<svg width="136" height="36" viewBox="0 0 136 36" fill="none" xmlns="http://www.w3.org/2000/svg">
<g clip-path="url(#clip0)">
<path d="M5.79264 27.9417H0V4.71582H5.78964L5.81962 11.4546H10.8747C11.4104 11.4341 11.9359 11.6094 12.3591 11.9498C12.7824 12.2902 13.0763 12.7739 13.1893 13.3161C13.4742 14.6223 16.4424 27.9231 16.4424 27.9231H10.4969L7.9124 16.3256C7.68154 15.2708 7.51364 15.187 7.04291 15.187H5.79563L5.79264 27.9417Z" fill="#E32119"/>
<path d="M23.2634 17.833V15.7636C23.2634 15.6147 23.3206 15.4718 23.4224 15.3665C23.5242 15.2612 23.6622 15.2021 23.8061 15.2021H25.9799C26.1238 15.2021 26.2618 15.2612 26.3636 15.3665C26.4654 15.4718 26.5225 15.6147 26.5225 15.7636V17.833H23.2634ZM32.3092 13.3281C32.3092 12.8344 32.1196 12.3609 31.7823 12.0118C31.4449 11.6627 30.9873 11.4666 30.5102 11.4666H19.2817C18.8046 11.4666 18.3471 11.6627 18.0097 12.0118C17.6723 12.3609 17.4828 12.8344 17.4828 13.3281V26.0642C17.4828 26.5579 17.6723 27.0314 18.0097 27.3805C18.3471 27.7296 18.8046 27.9257 19.2817 27.9257H30.5012C30.9783 27.9257 31.4359 27.7296 31.7733 27.3805C32.1106 27.0314 32.3002 26.5579 32.3002 26.0642V24.2026H23.8031C23.6592 24.2026 23.5212 24.1435 23.4194 24.0381C23.3176 23.9328 23.2604 23.79 23.2604 23.641V21.584H32.3092V13.3281Z" fill="#E32119"/>
<path d="M40.5392 27.9322L34.7466 27.9353V4.7157H40.5362L40.5392 27.9322Z" fill="#E32119"/>
<path d="M48.7724 27.9322L42.9798 27.9353V4.7157H48.7694L48.7724 27.9322Z" fill="#E32119"/>
<path d="M66.0573 27.9384H60.2857L60.2707 15.2178H57.0116V27.9384H51.2189V11.4606H71.1394C71.675 11.4401 72.2006 11.6154 72.6238 11.9558C73.0471 12.2962 73.341 12.7799 73.454 13.3221C73.7388 14.6283 76.7071 27.9291 76.7071 27.9291H70.7616L68.1741 16.3347C67.9432 15.2768 67.7783 15.1961 67.3046 15.1961H66.0573V27.9384Z" fill="#E32119"/>
<path d="M77.7333 13.3281C77.7333 12.8344 77.9228 12.3609 78.2602 12.0118C78.5975 11.6627 79.0551 11.4666 79.5322 11.4666H90.7517C91.2288 11.4666 91.6864 11.6627 92.0238 12.0118C92.3611 12.3609 92.5507 12.8344 92.5507 13.3281V27.9412H79.5442C79.0671 27.9412 78.6095 27.7451 78.2722 27.396C77.9348 27.0469 77.7453 26.5734 77.7453 26.0797V19.6915C77.7453 19.1978 77.9348 18.7243 78.2722 18.3752C78.6095 18.0261 79.0671 17.8299 79.5442 17.8299H86.785V15.7605C86.785 15.6116 86.7278 15.4687 86.6261 15.3634C86.5243 15.2581 86.3863 15.1989 86.2423 15.1989H77.7333V13.3281ZM86.785 21.5654H84.0686C83.9247 21.5654 83.7866 21.6246 83.6849 21.7299C83.5831 21.8352 83.5259 21.9781 83.5259 22.127V23.6317C83.5259 23.7807 83.5831 23.9235 83.6849 24.0288C83.7866 24.1341 83.9247 24.1933 84.0686 24.1933H86.785V21.5654Z" fill="#E32119"/>
<path d="M100.807 27.9354H95.0148V11.4545H105.889C106.425 11.434 106.951 11.6093 107.374 11.9497C107.797 12.2901 108.091 12.7738 108.204 13.316C108.489 14.6222 111.457 27.9229 111.457 27.9229H105.512L102.927 16.3255C102.696 15.2707 102.528 15.1869 102.058 15.1869H100.81L100.807 27.9354Z" fill="#E32119"/>
<path d="M118.257 27.9354H112.464V11.4545H123.339C123.875 11.434 124.4 11.6093 124.823 11.9497C125.247 12.2901 125.541 12.7738 125.654 13.316C125.938 14.6222 128.907 27.9229 128.907 27.9229H122.961L120.374 16.3255C120.143 15.2707 119.975 15.1869 119.504 15.1869H118.257V27.9354Z" fill="#E32119"/>
<path d="M3.61008 34.6462L4.2607 31.3513H4.98928L4.01185 35.7259H3.31026L2.50672 32.5303L1.6852 35.7259H0.980609L0.00317383 31.3513H0.731753L1.38837 34.64L2.1949 31.3513H2.80954L3.61008 34.6462Z" fill="#004C99"/>
<path d="M12.4694 33.6567C12.4772 34.0448 12.4036 34.4302 12.2535 34.786C12.1286 35.0897 11.92 35.3487 11.6539 35.5306C11.3761 35.701 11.0592 35.7909 10.7364 35.7909C10.4135 35.7909 10.0966 35.701 9.81892 35.5306C9.54637 35.3516 9.33057 35.0938 9.19829 34.7891C9.04658 34.4413 8.97082 34.0631 8.97641 33.6815V33.4364C8.96885 33.0479 9.04355 32.6625 9.19528 32.3071C9.32513 31.9993 9.54001 31.738 9.81293 31.5562C10.0903 31.3865 10.4066 31.2969 10.7289 31.2969C11.0512 31.2969 11.3675 31.3865 11.6449 31.5562C11.9167 31.7339 12.1316 31.9908 12.2625 32.2947C12.4145 32.6479 12.4902 33.0312 12.4844 33.4178L12.4694 33.6567ZM11.7348 33.4271C11.7582 33.0363 11.6651 32.6475 11.468 32.3133C11.3805 32.1931 11.2673 32.0957 11.1372 32.0285C11.0071 31.9614 10.8638 31.9265 10.7184 31.9265C10.573 31.9265 10.4297 31.9614 10.2996 32.0285C10.1695 32.0957 10.0563 32.1931 9.96884 32.3133C9.76987 32.639 9.6735 33.0206 9.693 33.4054V33.6567C9.67059 34.0482 9.76591 34.4373 9.96584 34.7705C10.0491 34.8964 10.1617 34.9986 10.2932 35.0675C10.4248 35.1364 10.571 35.1697 10.7184 35.1645C10.8646 35.1714 11.0101 35.1397 11.1412 35.0724C11.2723 35.0051 11.3848 34.9044 11.468 34.7798C11.6642 34.4419 11.7562 34.0501 11.7318 33.6567L11.7348 33.4271Z" fill="#004C99"/>
<path d="M18.3252 34.0475H17.5067V35.7322H16.7691V31.3576H18.2682C18.672 31.3311 19.0719 31.4518 19.3986 31.6989C19.5336 31.8201 19.6398 31.9719 19.709 32.1424C19.7781 32.313 19.8084 32.4978 19.7973 32.6824C19.8059 32.9436 19.7345 33.2009 19.5935 33.4177C19.4488 33.6222 19.2514 33.7802 19.0238 33.8738L19.9742 35.695V35.7353H19.1857L18.3252 34.0475ZM17.5067 33.427H18.2622C18.4726 33.4407 18.6802 33.372 18.8439 33.2346C18.9143 33.1675 18.9696 33.0852 19.0058 32.9935C19.0421 32.9019 19.0585 32.8031 19.0538 32.7041C19.0598 32.6048 19.0458 32.5053 19.0128 32.4118C18.9798 32.3184 18.9284 32.233 18.8619 32.1612C18.7015 32.0214 18.4956 31.9503 18.2862 31.9626H17.5097L17.5067 33.427Z" fill="#004C99"/>
<path d="M24.7864 35.1209H26.7053V35.7415H24.0518V31.3668H24.7864V35.1209Z" fill="#004C99"/>
<path d="M30.8309 35.7289V31.3543H32.0812C32.4292 31.3472 32.7728 31.436 33.0766 31.6118C33.3646 31.783 33.598 32.0375 33.7482 32.344C33.9114 32.6817 33.9927 33.0555 33.9851 33.433V33.6533C33.993 34.0332 33.9106 34.4092 33.7452 34.7485C33.5919 35.0552 33.354 35.3079 33.0616 35.4745C32.7498 35.6488 32.3996 35.7364 32.0452 35.7289H30.8309ZM31.5655 31.9655V35.1208H32.0452C32.2129 35.1332 32.3811 35.1059 32.537 35.0408C32.6929 34.9758 32.8323 34.8747 32.9447 34.7454C33.1692 34.4374 33.2807 34.057 33.2595 33.6719V33.4299C33.285 33.0419 33.179 32.6568 32.9597 32.3409C32.8525 32.2133 32.7182 32.113 32.5674 32.0479C32.4166 31.9828 32.2533 31.9546 32.0902 31.9655H31.5655Z" fill="#004C99"/>
<path d="M41.6249 34.6462L42.2755 31.3513H43.0041L42.0267 35.7259H41.3251L40.5216 32.5303L39.7 35.7259H38.9954L38.018 31.3513H38.7466L39.4032 34.64L40.2097 31.3513H40.8244L41.6249 34.6462Z" fill="#004C99"/>
<path d="M47.8731 35.7292H47.1415V31.3546H47.8731V35.7292Z" fill="#004C99"/>
<path d="M52.3436 35.7289V31.3543H53.5938C53.9419 31.3472 54.2854 31.436 54.5893 31.6118C54.8772 31.783 55.1107 32.0375 55.2609 32.344C55.424 32.6817 55.5053 33.0555 55.4977 33.433V33.6533C55.5056 34.0332 55.4233 34.4092 55.2579 34.7485C55.1045 35.0552 54.8666 35.3079 54.5743 35.4745C54.2624 35.6488 53.9122 35.7364 53.5579 35.7289H52.3436ZM53.0781 31.9655V35.1208H53.5579C53.7255 35.1332 53.8937 35.1059 54.0496 35.0408C54.2055 34.9758 54.3449 34.8747 54.4573 34.7454C54.6818 34.4374 54.7934 34.057 54.7722 33.6719V33.4299C54.7976 33.0419 54.6916 32.6568 54.4723 32.3409C54.3651 32.2133 54.2309 32.113 54.08 32.0479C53.9292 31.9828 53.7659 31.9546 53.6028 31.9655H53.0781Z" fill="#004C99"/>
<path d="M62.2704 33.7744H60.5344V35.1209H62.5643V35.7415H59.7999V31.3668H62.5433V31.9873H60.5344V33.1942H62.2704V33.7744Z" fill="#004C99"/>
<path d="M72.507 35.1209H74.4258V35.7415H71.7724V31.3668H72.507V35.1209Z" fill="#004C99"/>
<path d="M81.7595 33.6564C81.7673 34.0445 81.6937 34.4299 81.5436 34.7857C81.4187 35.0894 81.2101 35.3484 80.944 35.5303C80.6663 35.7007 80.3493 35.7906 80.0265 35.7906C79.7036 35.7906 79.3867 35.7007 79.109 35.5303C78.8363 35.3515 78.6205 35.0936 78.4884 34.7888C78.3368 34.4409 78.261 34.0628 78.2665 33.6812V33.4361C78.2589 33.0476 78.3337 32.6622 78.4854 32.3068C78.6147 31.9978 78.8297 31.7354 79.103 31.5528C79.3804 31.383 79.6967 31.2935 80.019 31.2935C80.3413 31.2935 80.6576 31.383 80.935 31.5528C81.2069 31.7303 81.4218 31.9873 81.5526 32.2912C81.7046 32.6445 81.7803 33.0277 81.7745 33.4144L81.7595 33.6564ZM81.0249 33.4268C81.0483 33.036 80.9552 32.6472 80.7581 32.313C80.6706 32.1928 80.5574 32.0953 80.4273 32.0282C80.2972 31.9611 80.1539 31.9262 80.0085 31.9262C79.8631 31.9262 79.7198 31.9611 79.5897 32.0282C79.4596 32.0953 79.3464 32.1928 79.2589 32.313C79.0609 32.6391 78.9646 33.0204 78.9831 33.4051V33.6564C78.9607 34.0479 79.056 34.437 79.2559 34.7702C79.3392 34.8961 79.4518 34.9983 79.5833 35.0672C79.7149 35.136 79.8611 35.1694 80.0085 35.1642C80.1547 35.1708 80.3001 35.139 80.4311 35.0717C80.5622 35.0044 80.6747 34.9039 80.7581 34.7795C80.9541 34.4415 81.0461 34.0498 81.0219 33.6564L81.0249 33.4268Z" fill="#004C99"/>
<path d="M89.2967 35.161C89.1319 35.3762 88.9115 35.5387 88.6611 35.6295C88.3651 35.7398 88.0522 35.7935 87.7377 35.7877C87.4079 35.795 87.0824 35.7092 86.7962 35.5395C86.5215 35.372 86.3012 35.1236 86.1636 34.8259C86.0092 34.4875 85.9303 34.1174 85.9327 33.7431V33.4019C85.8997 32.8444 86.0627 32.2935 86.3914 31.8506C86.55 31.6632 86.7477 31.5156 86.9695 31.4189C87.1912 31.3222 87.4314 31.2788 87.6717 31.2921C88.0755 31.27 88.4735 31.3988 88.793 31.6551C89.0862 31.9224 89.2669 32.2976 89.2967 32.7007H88.5772C88.5717 32.5864 88.5437 32.4744 88.4948 32.3717C88.4459 32.269 88.3772 32.1778 88.2929 32.1037C88.2086 32.0295 88.1105 31.974 88.0047 31.9406C87.8989 31.9073 87.7876 31.8967 87.6777 31.9095C87.5329 31.9015 87.3885 31.9311 87.2576 31.9956C87.1267 32.0601 87.0134 32.1574 86.9281 32.2787C86.7347 32.602 86.6416 32.9788 86.6613 33.3584V33.6935C86.6414 34.0848 86.7468 34.4719 86.9611 34.7949C87.055 34.9225 87.1775 35.0245 87.318 35.0921C87.4585 35.1597 87.6129 35.1908 87.7676 35.1827C87.9114 35.1977 88.0566 35.1819 88.1943 35.1366C88.3319 35.0912 88.4592 35.0172 88.5682 34.919V34.0627H87.6957V33.4856H89.2967V35.161Z" fill="#004C99"/>
<path d="M94.4544 35.7292H93.7228V31.3546H94.4544V35.7292Z" fill="#004C99"/>
<path d="M101.137 34.6025C101.142 34.5178 101.126 34.4332 101.092 34.356C101.058 34.2787 101.007 34.2111 100.942 34.1588C100.725 34.0162 100.485 33.9114 100.235 33.8486C99.9504 33.7676 99.6773 33.6487 99.4224 33.4949C99.2496 33.4005 99.1046 33.2596 99.0027 33.087C98.9009 32.9144 98.8459 32.7166 98.8437 32.5144C98.8415 32.3454 98.8781 32.1781 98.9505 32.0266C99.023 31.875 99.1292 31.7434 99.2604 31.6426C99.5724 31.4032 99.9548 31.2826 100.343 31.3013C100.614 31.2959 100.884 31.3531 101.131 31.4689C101.352 31.5732 101.54 31.7399 101.674 31.9498C101.804 32.1541 101.873 32.3938 101.872 32.6385H101.14C101.146 32.5389 101.13 32.4392 101.094 32.3465C101.058 32.2538 101.004 32.1703 100.933 32.1018C100.764 31.9613 100.55 31.8925 100.334 31.9094C100.136 31.8972 99.9401 31.9528 99.7761 32.0677C99.7112 32.1198 99.6593 32.1873 99.6249 32.2645C99.5905 32.3417 99.5745 32.4264 99.5783 32.5113C99.5792 32.5914 99.5995 32.6699 99.6372 32.7398C99.6749 32.8097 99.7288 32.8687 99.7941 32.9116C100.013 33.0525 100.252 33.1572 100.502 33.2218C100.779 33.3 101.045 33.4158 101.293 33.5662C101.472 33.6747 101.623 33.827 101.731 34.0099C101.826 34.1893 101.874 34.3916 101.869 34.5963C101.874 34.7641 101.84 34.9309 101.77 35.0822C101.699 35.2334 101.594 35.3648 101.464 35.465C101.141 35.6921 100.754 35.8013 100.364 35.7753C100.074 35.7781 99.787 35.7178 99.5213 35.5984C99.2825 35.4966 99.0752 35.3292 98.9216 35.1144C98.7779 34.9031 98.7033 34.6498 98.7088 34.3915H99.4433C99.4373 34.5001 99.4555 34.6086 99.4966 34.7087C99.5377 34.8088 99.6005 34.8977 99.6802 34.9686C99.8778 35.1176 100.12 35.1901 100.364 35.1734C100.568 35.1889 100.771 35.132 100.939 35.012C101.001 34.964 101.05 34.9021 101.084 34.8311C101.119 34.7601 101.137 34.6819 101.137 34.6025Z" fill="#004C99"/>
<path d="M109.14 31.9655H107.82V35.7289H107.092V31.9655H105.787V31.345H109.143L109.14 31.9655Z" fill="#004C99"/>
<path d="M114.039 35.7292H113.307V31.3546H114.039V35.7292Z" fill="#004C99"/>
<path d="M121.738 34.305C121.718 34.7233 121.538 35.116 121.238 35.3972C120.911 35.6713 120.497 35.8106 120.077 35.7881C119.761 35.7963 119.448 35.7101 119.178 35.5399C118.916 35.3711 118.707 35.1262 118.578 34.8356C118.432 34.5023 118.358 34.1404 118.359 33.7745V33.365C118.352 32.9892 118.425 32.6163 118.572 32.2729C118.699 31.9751 118.907 31.7226 119.172 31.5469C119.448 31.3734 119.766 31.2851 120.089 31.2924C120.499 31.2716 120.902 31.4112 121.217 31.6834C121.515 31.9733 121.693 32.3713 121.714 32.7941H120.983C120.973 32.5424 120.879 32.3021 120.716 32.1146C120.541 31.9639 120.316 31.8894 120.089 31.9068C119.947 31.899 119.805 31.9282 119.676 31.9915C119.547 32.0549 119.436 32.1505 119.352 32.2697C119.159 32.5877 119.067 32.9595 119.088 33.3339V33.7218C119.065 34.0999 119.151 34.4766 119.334 34.8046C119.412 34.9257 119.52 35.0237 119.646 35.0889C119.772 35.1542 119.913 35.1845 120.053 35.1769C120.287 35.1949 120.518 35.123 120.704 34.9752C120.87 34.7929 120.968 34.5553 120.98 34.305H121.738Z" fill="#004C99"/>
<path d="M128.175 34.6025C128.18 34.5178 128.164 34.4332 128.13 34.356C128.096 34.2787 128.045 34.2111 127.98 34.1588C127.762 34.0162 127.523 33.9114 127.273 33.8486C126.988 33.7676 126.715 33.6487 126.46 33.4949C126.287 33.4005 126.142 33.2596 126.04 33.087C125.939 32.9144 125.884 32.7166 125.881 32.5144C125.879 32.3454 125.916 32.1781 125.988 32.0266C126.061 31.875 126.167 31.7434 126.298 31.6426C126.61 31.4032 126.993 31.2826 127.381 31.3013C127.652 31.2959 127.922 31.3531 128.169 31.4689C128.39 31.5732 128.578 31.7399 128.712 31.9498C128.842 32.1541 128.911 32.3938 128.91 32.6385H128.178C128.187 32.5356 128.173 32.4319 128.138 32.3352C128.103 32.2384 128.047 32.1512 127.974 32.0801C127.805 31.9396 127.591 31.8708 127.375 31.8877C127.177 31.8755 126.981 31.9311 126.817 32.046C126.752 32.0981 126.7 32.1656 126.666 32.2428C126.631 32.32 126.615 32.4047 126.619 32.4896C126.62 32.5697 126.64 32.6482 126.678 32.7181C126.716 32.788 126.77 32.847 126.835 32.8899C127.054 33.0308 127.292 33.1355 127.542 33.2001C127.82 33.2783 128.086 33.3941 128.334 33.5445C128.513 33.6529 128.663 33.8053 128.772 33.9882C128.867 34.1676 128.915 34.3699 128.91 34.5746C128.915 34.7424 128.881 34.9091 128.811 35.0604C128.74 35.2117 128.635 35.3431 128.505 35.4433C128.182 35.6704 127.794 35.7796 127.405 35.7535C127.115 35.7564 126.828 35.6961 126.562 35.5767C126.323 35.4748 126.116 35.3075 125.962 35.0927C125.819 34.8814 125.744 34.6281 125.75 34.3698H126.475C126.469 34.4783 126.487 34.5869 126.528 34.687C126.569 34.787 126.632 34.876 126.712 34.9469C126.91 35.0959 127.152 35.1684 127.396 35.1516C127.6 35.1672 127.803 35.1103 127.971 34.9903C128.031 34.9452 128.08 34.887 128.115 34.82C128.15 34.7529 128.171 34.6787 128.175 34.6025Z" fill="#004C99"/>
<path d="M130.373 0.223145C129.262 0.223145 128.176 0.564139 127.252 1.20301C126.328 1.84189 125.608 2.74995 125.182 3.81236C124.757 4.87477 124.646 6.04382 124.863 7.17166C125.079 8.29951 125.614 9.33551 126.4 10.1486C127.186 10.9618 128.187 11.5155 129.277 11.7399C130.367 11.9642 131.497 11.8491 132.524 11.409C133.55 10.9689 134.428 10.2237 135.045 9.26757C135.663 8.31142 135.992 7.18731 135.992 6.03736C135.991 4.49584 135.398 3.01792 134.345 1.9279C133.291 0.83788 131.863 0.224787 130.373 0.223145ZM130.373 11.1256C129.512 11.1278 128.666 10.8898 127.924 10.4368C128.252 10.4329 128.58 10.3954 128.901 10.3251C129.233 10.2444 129.557 10.1333 129.87 9.99314C130.313 9.8262 130.71 9.55044 131.027 9.18958C131.275 8.89201 131.559 8.62917 131.872 8.40773C132.191 8.18214 132.528 7.98691 132.88 7.82445C133.004 7.76227 133.14 7.72842 133.279 7.72516C133.524 7.71498 133.764 7.65378 133.986 7.54522C134.167 7.48211 134.351 7.43132 134.538 7.39318C134.562 7.39318 134.598 7.39319 134.607 7.34665C134.616 7.30011 134.538 7.31251 134.505 7.2939C134.267 7.23513 134.034 7.15521 133.809 7.055C133.657 7.01508 133.497 7.01508 133.345 7.055C133.125 7.1246 132.921 7.23964 132.745 7.39318C132.453 7.64447 132.125 7.84845 131.774 7.99819C131.519 8.10706 131.252 8.18111 130.979 8.21847C130.906 8.23513 130.83 8.23513 130.757 8.21847C130.998 8.08972 131.213 7.91377 131.39 7.70035C131.521 7.5135 131.662 7.3343 131.813 7.1636C132.052 6.95593 132.304 6.76521 132.568 6.59272L133.189 6.22972C133.314 6.1574 133.448 6.10312 133.587 6.06839C133.679 6.04332 133.774 6.03081 133.869 6.03116C134.134 5.97521 134.391 5.88558 134.634 5.76433C134.742 5.73021 134.862 5.7209 134.97 5.67437C134.988 5.67437 135.009 5.63713 134.994 5.61231L134.97 5.5968C134.688 5.55711 134.412 5.48531 134.145 5.38272C133.915 5.33415 133.675 5.36692 133.465 5.4758C133.252 5.61541 133.066 5.78605 132.865 5.94738L132.685 6.07149C132.447 6.2463 132.184 6.38135 131.905 6.47172C131.641 6.55591 131.364 6.59367 131.087 6.58342C131.038 6.58425 130.99 6.57142 130.948 6.54629C130.906 6.52116 130.871 6.48467 130.847 6.44069C130.792 6.32501 130.759 6.19983 130.748 6.07149C130.748 5.99083 130.748 5.91016 130.727 5.82949C130.712 5.58631 130.719 5.34221 130.748 5.10039C130.797 4.88919 130.819 4.67222 130.814 4.45505C130.763 4.25959 130.514 4.0362 129.942 3.546C129.369 3.03417 128.872 2.43836 128.466 1.77753C128.436 1.72169 128.4 1.63792 128.385 1.63792C128.37 1.63792 128.311 1.67515 128.287 1.70617C128.167 1.87415 128.082 2.06577 128.037 2.26913C127.992 2.4725 127.988 2.68324 128.026 2.88825C128.109 3.31835 128.305 3.71647 128.592 4.0393C128.755 4.22889 128.896 4.43709 129.012 4.65982C129.096 4.84126 129.129 5.04323 129.108 5.2431L128.658 4.90492C128.658 4.90492 128.466 4.76841 128.218 4.57295C127.877 4.34086 127.568 4.06337 127.297 3.74766C127.294 3.74428 127.29 3.74159 127.286 3.73975C127.282 3.73791 127.278 3.73696 127.273 3.73696C127.269 3.73696 127.264 3.73791 127.26 3.73975C127.256 3.74159 127.252 3.74428 127.249 3.74766C127.21 3.77248 127.204 3.81902 127.195 3.88418C127.123 4.38679 127.099 4.96698 127.369 5.38893C127.536 5.63718 127.725 5.86788 127.936 6.0777C128.071 6.21421 128.218 6.34762 128.361 6.47483C128.516 6.58254 128.623 6.74843 128.661 6.93711C128.672 7.13859 128.626 7.33897 128.529 7.51419C128.46 7.67075 128.364 7.81274 128.245 7.93304C128.062 8.04783 127.81 7.97647 127.597 7.98267C127.45 7.98267 127.351 8.14711 127.297 8.26191C127.196 8.40302 127.147 8.57691 127.159 8.75211C127.188 8.92691 127.247 9.09498 127.333 9.24853C127.363 9.28886 127.405 9.3478 127.462 9.33229C127.558 9.31619 127.647 9.27205 127.72 9.20508C128.001 8.89192 128.368 8.67538 128.772 8.58457C128.558 8.72006 128.37 8.89704 128.221 9.10581C127.855 9.53707 127.525 9.72632 127.021 9.61773C126.957 9.60793 126.895 9.58584 126.838 9.55258C125.99 8.60914 125.516 7.36965 125.51 6.0808C125.51 4.73544 126.027 3.44517 126.946 2.49386C127.865 1.54254 129.112 1.00809 130.412 1.00809C131.712 1.00809 132.959 1.54254 133.879 2.49386C134.798 3.44517 135.314 4.73544 135.314 6.0808C135.287 7.42199 134.756 8.69939 133.833 9.64187C132.911 10.5843 131.67 11.1177 130.373 11.1287V11.1256Z" fill="#004C99"/>
</g>
<defs>
<clipPath id="clip0">
<rect width="135.983" height="35.5648" fill="white" transform="translate(0 0.223145)"/>
</clipPath>
</defs>
</svg>
