<svg width="17" height="16" viewBox="0 0 17 16" fill="none" xmlns="http://www.w3.org/2000/svg">
<path fill-rule="evenodd" clip-rule="evenodd" d="M8.7325 15.3333C4.68241 15.3333 1.39917 12.05 1.39917 7.99996C1.39917 3.94987 4.68241 0.666626 8.7325 0.666626C12.7826 0.666626 16.0658 3.94987 16.0658 7.99996C16.0658 12.05 12.7826 15.3333 8.7325 15.3333ZM13.6655 11.4164C14.3382 10.4468 14.7325 9.26944 14.7325 7.99996C14.7325 4.68625 12.0462 1.99996 8.7325 1.99996C5.41879 1.99996 2.7325 4.68625 2.7325 7.99996C2.7325 9.26944 3.12676 10.4468 3.7995 11.4164C4.5498 10.4253 6.3129 9.99996 8.7325 9.99996C11.1521 9.99996 12.9152 10.4253 13.6655 11.4164ZM12.709 12.4931C12.5138 11.7915 11.1121 11.3333 8.7325 11.3333C6.35292 11.3333 4.95117 11.7915 4.75605 12.4931C5.8147 13.4307 7.20713 14 8.7325 14C10.2579 14 11.6503 13.4307 12.709 12.4931ZM8.7325 3.99996C7.11857 3.99996 6.06584 5.17047 6.06584 6.66663C6.06584 8.95154 7.23975 9.99996 8.7325 9.99996C10.2112 9.99996 11.3992 8.98637 11.3992 6.79996C11.3992 5.28101 10.342 3.99996 8.7325 3.99996ZM7.39917 6.66663C7.39917 8.17946 7.94464 8.66663 8.7325 8.66663C9.51764 8.66663 10.0658 8.19889 10.0658 6.79996C10.0658 5.9669 9.54294 5.33329 8.7325 5.33329C7.88833 5.33329 7.39917 5.87718 7.39917 6.66663Z" fill="black"/>
</svg>
