<svg width="53" height="53" viewBox="0 0 53 53" fill="none" xmlns="http://www.w3.org/2000/svg">
<path fill-rule="evenodd" clip-rule="evenodd" d="M22.8159 31.0916C22.9983 30.9087 23.251 30.7957 23.53 30.7957C23.809 30.7957 24.0612 30.9087 24.2441 31.0916C24.4266 31.274 24.5396 31.5267 24.5396 31.8057C24.5396 32.0847 24.4266 32.337 24.2441 32.5198C24.0612 32.7023 23.809 32.8153 23.53 32.8153C23.251 32.8153 22.9988 32.7023 22.8159 32.5198C22.633 32.337 22.52 32.0847 22.52 31.8057C22.52 31.5267 22.633 31.274 22.8159 31.0916ZM40.0177 31.0916C40.2002 30.9087 40.4529 30.7957 40.7318 30.7957C41.0108 30.7957 41.2635 30.9087 41.4459 31.0916C41.6284 31.274 41.7418 31.5267 41.7418 31.8057C41.7418 32.0847 41.6288 32.337 41.4459 32.5198C41.2635 32.7023 41.0108 32.8153 40.7318 32.8153C40.4529 32.8153 40.2006 32.7023 40.0177 32.5198C39.8353 32.337 39.7218 32.0847 39.7218 31.8057C39.7218 31.5267 39.8348 31.274 40.0177 31.0916ZM14.423 33.8765C13.9036 33.3571 13.5777 32.6434 13.5646 31.8552H12.1825C11.7719 31.8552 11.3994 31.688 11.1297 31.4184C10.8601 31.1487 10.6929 30.7762 10.6929 30.3656V17.8836C10.6929 17.473 10.8601 17.1005 11.1297 16.8309C11.3994 16.5613 11.7719 16.394 12.1825 16.394H35.4511C35.8617 16.394 36.2342 16.5613 36.5039 16.8309C36.7735 17.1005 36.9407 17.473 36.9407 17.8836V19.2742H40.7318C41.1424 19.2742 41.5149 19.4414 41.785 19.7111C42.0547 19.9807 42.2219 20.3532 42.2219 20.7638C42.2219 20.9657 42.1816 21.1643 42.1025 21.3492C42.0293 21.5207 41.9217 21.6807 41.7816 21.8195L42.5948 25.0718C43.1688 25.1721 43.6751 25.4731 44.0378 25.8989C44.4019 26.3265 44.622 26.8806 44.622 27.4846V30.3652C44.622 30.6844 44.5208 30.9811 44.3485 31.2241C44.1788 31.4641 43.9392 31.6516 43.6607 31.7579L43.6619 31.8057C43.6619 32.6134 43.3335 33.3461 42.8026 33.8765C42.2722 34.4069 41.5395 34.7354 40.7318 34.7354C39.9242 34.7354 39.1914 34.4069 38.661 33.8765C38.1416 33.3571 37.8157 32.6434 37.8026 31.8552H26.4597C26.4466 32.6434 26.1206 33.3571 25.6012 33.8765C25.0708 34.4069 24.3381 34.7354 23.5304 34.7354C22.7228 34.7354 21.99 34.4069 21.4596 33.8765C20.9402 33.3571 20.6143 32.6434 20.6012 31.8552H19.424C19.4108 32.6434 19.0849 33.3571 18.5655 33.8765C18.0351 34.4069 17.3023 34.7354 16.4947 34.7354C15.687 34.7354 14.9543 34.4069 14.4239 33.8765H14.423ZM18.1824 29.414C18.6603 29.7518 19.0362 30.231 19.244 30.7957H20.7794C20.9868 30.231 21.3627 29.7523 21.841 29.414C22.3227 29.0733 22.9082 28.8756 23.53 28.8756C24.1514 28.8756 24.7368 29.0733 25.2186 29.414C25.6965 29.7518 26.0724 30.231 26.2802 30.7957H35.8816V17.8832C35.8816 17.7647 35.8333 17.6568 35.7555 17.5789C35.6776 17.501 35.5701 17.4527 35.4511 17.4527H12.1825C12.0635 17.4527 11.956 17.501 11.8781 17.5789C11.8002 17.6568 11.752 17.7647 11.752 17.8832V30.3652C11.752 30.4837 11.8002 30.5917 11.8781 30.6696C11.956 30.7474 12.0635 30.7957 12.1825 30.7957H13.7432C13.9506 30.231 14.3265 29.7523 14.8049 29.414C15.2866 29.0733 15.872 28.8756 16.4938 28.8756C17.1152 28.8756 17.7007 29.0733 18.1824 29.414ZM15.1714 33.1277C15.5101 33.4663 15.9778 33.6763 16.4934 33.6763C17.009 33.6763 17.4772 33.4663 17.8158 33.1277C18.1545 32.789 18.3644 32.3209 18.3644 31.8053C18.3644 31.2867 18.1536 30.8211 17.8171 30.4846C17.4763 30.1438 17.0056 29.9343 16.4934 29.9343C15.9816 29.9343 15.5109 30.1438 15.1693 30.4846C14.8332 30.8207 14.6224 31.2859 14.6224 31.8049C14.6224 32.3205 14.8324 32.7886 15.171 33.1273L15.1714 33.1277ZM41.4938 25.0345L40.7983 22.253H36.9407V24.2853L37.9571 23.2689C38.0608 23.1656 38.1962 23.1136 38.3317 23.1136C38.4667 23.1136 38.6026 23.1652 38.7059 23.2685C38.8096 23.3722 38.8612 23.5077 38.8612 23.6431C38.8612 23.7786 38.8096 23.914 38.7063 24.0173L37.69 25.0341H41.4942L41.4938 25.0345ZM41.0362 21.0677C41.1141 20.9899 41.1623 20.8823 41.1623 20.7634C41.1623 20.6449 41.1141 20.5369 41.0362 20.459C40.9583 20.3811 40.8504 20.3329 40.7318 20.3329H36.9407V21.1943H40.7318C40.8508 21.1939 40.9583 21.1461 41.0362 21.0682V21.0677ZM22.2076 33.1273C22.5462 33.4659 23.014 33.6759 23.5296 33.6759C24.0452 33.6759 24.5133 33.4659 24.8516 33.1273C25.1902 32.7886 25.4002 32.3205 25.4002 31.8049C25.4002 31.2863 25.1898 30.8207 24.8528 30.4841C24.5121 30.1434 24.0418 29.9339 23.5292 29.9339C23.0174 29.9339 22.5467 30.1434 22.2051 30.4841C21.869 30.8203 21.6581 31.2855 21.6581 31.8044C21.6581 32.32 21.8681 32.7882 22.2068 33.1268L22.2076 33.1273ZM39.4094 33.1273C39.7481 33.4659 40.2158 33.6759 40.7314 33.6759C41.247 33.6759 41.7152 33.4659 42.0538 33.1273C42.3925 32.7886 42.6024 32.3205 42.6024 31.8049C42.6024 31.2863 42.3916 30.8207 42.0551 30.4841C41.7143 30.1434 41.2436 29.9339 40.7314 29.9339C40.2196 29.9339 39.7489 30.1434 39.4073 30.4841C39.0712 30.8203 38.8604 31.2855 38.8604 31.8044C38.8604 32.32 39.0704 32.7882 39.409 33.1268L39.4094 33.1273ZM42.3793 29.3853C42.8412 29.7002 43.2115 30.1447 43.4334 30.6717C43.4668 30.6391 43.4947 30.6014 43.5159 30.5595C43.5455 30.5015 43.5625 30.4351 43.5625 30.3644V28.0138H42.1719C42.0259 28.0138 41.8934 27.9541 41.7977 27.8584C41.7016 27.7623 41.6424 27.6298 41.6424 27.4838C41.6424 27.3373 41.7016 27.2048 41.7973 27.1091C41.8934 27.0135 42.0259 26.9542 42.1719 26.9542H43.4575C43.3563 26.7091 43.1866 26.4987 42.9728 26.3476C42.7463 26.1876 42.4699 26.0932 42.1719 26.0932H36.9407V30.7949H37.9812C38.1886 30.2302 38.5645 29.7514 39.0428 29.4132C39.5246 29.0724 40.1104 28.8747 40.7318 28.8747C41.3359 28.8747 41.9057 29.0618 42.3793 29.3848V29.3853ZM39.8772 27.11C39.9728 27.0139 40.1053 26.9546 40.2514 26.9546C40.397 26.9546 40.5299 27.0139 40.6256 27.11C40.7217 27.2061 40.7809 27.3386 40.7809 27.4842C40.7809 27.6302 40.7217 27.7627 40.6256 27.8584C40.5295 27.9541 40.397 28.0138 40.2514 28.0138C40.1053 28.0138 39.9728 27.9541 39.8772 27.8584C39.7811 27.7627 39.7218 27.6302 39.7218 27.4842C39.7218 27.3386 39.7815 27.2057 39.8772 27.11ZM15.7797 31.0907C15.9622 30.9079 16.2149 30.7949 16.4938 30.7949C16.7724 30.7949 17.0251 30.9079 17.2075 31.0907C17.3904 31.2732 17.5034 31.5259 17.5034 31.8049C17.5034 32.0838 17.3904 32.3361 17.2075 32.519C17.0247 32.7014 16.7719 32.8144 16.4934 32.8144C16.2145 32.8144 15.9622 32.7014 15.7793 32.519C15.5964 32.3361 15.4834 32.0838 15.4834 31.8049C15.4834 31.5259 15.5964 31.2732 15.7793 31.0907H15.7797Z" fill="#003C5F"/>
<path d="M15.8346 22.4241V25.6827C15.8346 25.8228 15.8833 25.9417 15.9811 26.0391C16.081 26.1369 16.1995 26.1856 16.3375 26.1856C16.4755 26.1856 16.5932 26.1369 16.6905 26.0391C16.7879 25.9417 16.837 25.8228 16.837 25.6827V22.4241H17.9029C18.0409 22.4241 18.1594 22.3754 18.2593 22.2776C18.3571 22.1798 18.4058 22.0622 18.4058 21.9246C18.4058 21.7866 18.3571 21.6689 18.2593 21.5715C18.1594 21.4716 18.0409 21.4221 17.9029 21.4221H14.7717C14.6316 21.4221 14.513 21.4721 14.4153 21.5715C14.3179 21.6693 14.2688 21.787 14.2688 21.9246C14.2688 22.0626 14.3175 22.1803 14.4153 22.2776C14.513 22.375 14.6316 22.4241 14.7717 22.4241H15.8346ZM22.2189 23.1784C22.2189 23.3841 22.1448 23.5615 21.9962 23.7097C21.8498 23.8561 21.6728 23.9294 21.465 23.9294H20.0871V22.4241H21.465C21.6728 22.4241 21.8498 22.4986 21.9962 22.6467C22.1448 22.7932 22.2189 22.9701 22.2189 23.178V23.1784ZM21.258 24.9317L22.3653 26.0391C22.4631 26.1369 22.5808 26.1856 22.7184 26.1856C22.8564 26.1856 22.9749 26.1369 23.0748 26.0391C23.1722 25.9417 23.2213 25.8228 23.2213 25.6827C23.2213 25.5447 23.1726 25.427 23.0748 25.3296L22.4034 24.6583C22.6536 24.4991 22.8509 24.2913 22.9952 24.0348C23.1459 23.7693 23.2213 23.484 23.2213 23.1788C23.2213 22.695 23.0494 22.2814 22.7057 21.9377C22.362 21.594 21.9484 21.4221 21.465 21.4221H19.5876C19.4475 21.4221 19.3286 21.4721 19.2312 21.5715C19.1334 21.6693 19.0847 21.787 19.0847 21.9246V25.6827C19.0847 25.8228 19.1334 25.9417 19.2312 26.0391C19.3286 26.1369 19.4475 26.1856 19.5876 26.1856C19.7256 26.1856 19.8433 26.1369 19.9407 26.0391C20.0384 25.9417 20.0871 25.8228 20.0871 25.6827V24.9317H21.258ZM24.3553 21.4539C24.2554 21.4898 24.1762 21.5504 24.1166 21.6355C24.0552 21.7222 24.0243 21.8188 24.0243 21.925V25.6831C24.0243 25.8232 24.073 25.9422 24.1707 26.0395C24.2681 26.1373 24.387 26.186 24.5272 26.186C24.6652 26.186 24.7828 26.1373 24.8802 26.0395C24.978 25.9422 25.0267 25.8232 25.0267 25.6831V23.3092L27.2731 26.0044C27.373 26.1255 27.5013 26.186 27.6579 26.186C27.7172 26.186 27.7748 26.1762 27.8298 26.1572C27.9297 26.1212 28.0088 26.0594 28.0685 25.9726C28.1299 25.8859 28.1608 25.7893 28.1608 25.6831V21.925C28.1608 21.787 28.1121 21.6693 28.0143 21.572C27.9144 21.4721 27.7959 21.4225 27.6579 21.4225C27.5199 21.4225 27.4022 21.4725 27.3049 21.572C27.2075 21.6698 27.1584 21.7874 27.1584 21.925V24.2989L24.9119 21.6037C24.8442 21.5233 24.7591 21.4691 24.6575 21.4416C24.5555 21.4141 24.4548 21.4183 24.3553 21.4543V21.4539ZM29.4671 25.1832C29.327 25.1832 29.2081 25.2319 29.1107 25.3296C29.0129 25.427 28.9642 25.5451 28.9642 25.6827C28.9642 25.8228 29.0129 25.9417 29.1107 26.0391C29.2081 26.1369 29.327 26.1856 29.4671 26.1856H31.6594C32.0561 26.1856 32.3955 26.0446 32.6775 25.7623C32.9598 25.4803 33.1008 25.1408 33.1008 24.7442C33.1008 24.3476 32.9598 24.0081 32.6775 23.7262C32.3951 23.4438 32.0561 23.3029 31.6594 23.3029H30.4056C30.2845 23.3029 30.1817 23.2605 30.097 23.1754C30.0102 23.0882 29.9666 22.9845 29.9666 22.8635C29.9666 22.7424 30.0102 22.6395 30.097 22.5549C30.1817 22.4681 30.2849 22.4245 30.4056 22.4245H32.5979C32.7359 22.4245 32.8544 22.3758 32.9543 22.278C33.0517 22.1803 33.1008 22.0626 33.1008 21.925C33.1008 21.787 33.0521 21.6693 32.9543 21.572C32.8544 21.4721 32.7359 21.4225 32.5979 21.4225H30.4056C30.009 21.4225 29.6695 21.5635 29.3875 21.8458C29.1052 22.1282 28.9642 22.4673 28.9642 22.8639C28.9642 23.2626 29.1052 23.6021 29.3875 23.8819C29.6695 24.1643 30.009 24.3052 30.4056 24.3052H31.6594C31.7805 24.3052 31.8833 24.3488 31.968 24.4356C32.0552 24.5203 32.0984 24.6231 32.0984 24.7442C32.0984 24.8653 32.0548 24.969 31.968 25.0562C31.8833 25.1408 31.7805 25.1836 31.6594 25.1836H29.4671V25.1832Z" fill="#003C5F"/>
<path fill-rule="evenodd" clip-rule="evenodd" d="M26.3732 50.7464C39.8341 50.7464 50.7464 39.8341 50.7464 26.3732C50.7464 12.9122 39.8341 2 26.3732 2C12.9122 2 2 12.9122 2 26.3732C2 39.8341 12.9122 50.7464 26.3732 50.7464ZM26.3732 52.7464C40.9387 52.7464 52.7464 40.9387 52.7464 26.3732C52.7464 11.8077 40.9387 0 26.3732 0C11.8077 0 0 11.8077 0 26.3732C0 40.9387 11.8077 52.7464 26.3732 52.7464Z" fill="#008DD2"/>
</svg>
