<svg width="53" height="53" viewBox="0 0 53 53" fill="none" xmlns="http://www.w3.org/2000/svg">
<path fill-rule="evenodd" clip-rule="evenodd" d="M16.3945 13.4931C16.3945 13.1272 16.6911 12.8306 17.057 12.8306H31.6202C31.7959 12.8306 31.9644 12.9004 32.0886 13.0246L37.371 18.3065C37.4952 18.4307 37.565 18.5992 37.565 18.7749V23.331C37.565 23.6968 37.2684 23.9935 36.9025 23.9935C36.5367 23.9935 36.24 23.6968 36.24 23.331V19.0494L31.3458 14.1556H17.7195V40.3203H36.9025C37.2684 40.3203 37.565 40.6169 37.565 40.9828C37.565 41.3487 37.2684 41.6453 36.9025 41.6453H17.057C16.6911 41.6453 16.3945 41.3487 16.3945 40.9828V13.4931Z" fill="#003C5F"/>
<path d="M30.9617 13.4928C30.9617 13.127 31.2571 12.8301 31.622 12.8301C31.9864 12.8301 32.2823 13.127 32.2823 13.4928H30.9622H30.9617ZM30.9617 18.7752V13.4928H32.2818V18.7752H30.9617ZM32.2818 18.7752C32.2818 19.141 31.9863 19.4379 31.6215 19.4379C31.2571 19.4379 30.9612 19.141 30.9612 18.7752H32.2813H32.2818Z" fill="#003C5F"/>
<path fill-rule="evenodd" clip-rule="evenodd" d="M30.9587 18.7746C30.9587 18.4087 31.2553 18.1121 31.6212 18.1121H36.9036C37.2695 18.1121 37.5661 18.4087 37.5661 18.7746C37.5661 19.1404 37.2695 19.4371 36.9036 19.4371H31.6212C31.2553 19.4371 30.9587 19.1404 30.9587 18.7746Z" fill="#003C5F"/>
<path fill-rule="evenodd" clip-rule="evenodd" d="M30.8501 27.1204V32.7059C30.8501 33.7803 31.5772 34.9191 32.6966 35.9327C33.7197 36.859 34.9589 37.5772 35.9073 37.9366C36.8556 37.5772 38.095 36.8589 39.1182 35.9327C40.2377 34.9191 40.9649 33.7803 40.9649 32.7059V27.1205C39.2687 26.354 37.586 25.994 35.9112 26.0039L35.9033 26.0039C34.2284 25.9941 32.5457 26.3537 30.8501 27.1204ZM30.1876 26.6997L29.8976 26.104C31.8877 25.135 33.893 24.6676 35.9073 24.6789C37.9216 24.6676 39.9269 25.1356 41.9172 26.1039C42.1452 26.2149 42.2899 26.4461 42.2899 26.6997V32.7059C42.2899 34.3485 41.2176 35.8193 40.0074 36.9149C38.7788 38.0272 37.2704 38.8798 36.1189 39.268C35.9816 39.3143 35.8329 39.3143 35.6956 39.268C34.5441 38.8798 33.0358 38.0271 31.8073 36.9149C30.5973 35.8193 29.5251 34.3484 29.5251 32.7059V26.6997H30.1876Z" fill="#003C5F"/>
<path fill-rule="evenodd" clip-rule="evenodd" d="M39.2219 29.3693C39.4806 29.6281 39.4806 30.0475 39.2219 30.3062L36.2041 33.324C36.0799 33.4483 35.9113 33.5181 35.7356 33.5181C35.5599 33.5181 35.3914 33.4482 35.2671 33.324L33.7211 31.7774C33.4624 31.5186 33.4625 31.0992 33.7212 30.8405C33.98 30.5818 34.3994 30.5819 34.6581 30.8406L35.7357 31.9186L38.285 29.3693C38.5437 29.1106 38.9632 29.1106 39.2219 29.3693Z" fill="#003C5F"/>
<path d="M20.9282 19.2749C21.3699 19.2749 21.747 19.1189 22.0591 18.8069C22.1246 18.7413 22.1574 18.6616 22.1574 18.5677C22.1574 18.4752 22.1246 18.396 22.0591 18.3305C21.9935 18.2649 21.9143 18.2322 21.8218 18.2322C21.7279 18.2322 21.6477 18.2649 21.5822 18.3305C21.4012 18.5114 21.1831 18.6019 20.9282 18.6019C20.6729 18.6019 20.4553 18.5114 20.2743 18.3305C20.0933 18.1495 20.0028 17.9314 20.0028 17.6765C20.0028 17.4202 20.0933 17.2011 20.2743 17.0202C20.4553 16.8392 20.6734 16.7487 20.9282 16.7487C21.1831 16.7487 21.4012 16.8392 21.5822 17.0202C21.6477 17.0872 21.7274 17.1209 21.8218 17.1209C21.9143 17.1209 21.9935 17.0872 22.0591 17.0202C22.1246 16.9546 22.1574 16.8754 22.1574 16.7829C22.1574 16.6905 22.1246 16.6113 22.0591 16.5457C21.747 16.2322 21.3699 16.0757 20.9282 16.0757C20.4866 16.0757 20.1095 16.2322 19.7974 16.5457C19.4854 16.8563 19.3293 17.2334 19.3293 17.6765C19.3293 18.1182 19.4854 18.4953 19.7974 18.8073C20.1095 19.1194 20.4866 19.2754 20.9282 19.2754V19.2749ZM23.4276 16.1755C23.3791 16.127 23.3214 16.0957 23.2544 16.0816C23.1874 16.0688 23.1229 16.0752 23.0598 16.1006C22.9972 16.1275 22.9473 16.1691 22.9101 16.2244C22.8715 16.2811 22.8524 16.3442 22.8524 16.4127V18.937C22.8524 19.0309 22.8852 19.1111 22.9507 19.1766C23.0162 19.2422 23.096 19.2749 23.1899 19.2749C23.2823 19.2749 23.3615 19.2422 23.4271 19.1766C23.4926 19.1111 23.5254 19.0314 23.5254 18.937V17.2246L24.2136 17.9128C24.2791 17.9783 24.3583 18.0111 24.4508 18.0111C24.5447 18.0111 24.6244 17.9783 24.69 17.9128L25.3781 17.2246V18.937C25.3781 19.0309 25.4109 19.1111 25.4764 19.1766C25.542 19.2422 25.6212 19.2749 25.7137 19.2749C25.8061 19.2749 25.8853 19.2422 25.9509 19.1766C26.0179 19.1111 26.0516 19.0314 26.0516 18.937V16.4127C26.0516 16.3442 26.0326 16.2816 25.9939 16.2244C25.9567 16.1686 25.9064 16.1275 25.8418 16.1006C25.7792 16.0752 25.7141 16.0683 25.6471 16.0816C25.5816 16.0957 25.5244 16.127 25.476 16.1755L24.4498 17.1997L23.4256 16.1755H23.4276ZM29.0689 17.2549C29.0689 17.3933 29.019 17.5122 28.9193 17.612C28.821 17.7103 28.7021 17.7597 28.5622 17.7597H27.6368V16.7487H28.5622C28.7016 16.7487 28.821 16.7986 28.9193 16.8984C29.019 16.9967 29.0689 17.1155 29.0689 17.2554V17.2549ZM28.4233 18.4327L29.1672 19.1766C29.2328 19.2422 29.312 19.2749 29.4045 19.2749C29.4969 19.2749 29.5766 19.2422 29.6436 19.1766C29.7092 19.1111 29.7419 19.0314 29.7419 18.937C29.7419 18.8445 29.7092 18.7653 29.6436 18.6997L29.1927 18.2488C29.3609 18.1417 29.4935 18.0023 29.5903 17.8296C29.6916 17.6516 29.7419 17.4599 29.7419 17.2549C29.7419 16.9297 29.6265 16.6519 29.3957 16.421C29.1648 16.1901 28.887 16.0747 28.5622 16.0747H27.3008C27.2069 16.0747 27.1272 16.108 27.0616 16.175C26.9961 16.2405 26.9633 16.3197 26.9633 16.4122V18.9365C26.9633 19.0304 26.9961 19.1106 27.0616 19.1761C27.1272 19.2417 27.2069 19.2744 27.3008 19.2744C27.3933 19.2744 27.4725 19.2417 27.538 19.1761C27.6036 19.1106 27.6363 19.0309 27.6363 18.9365V18.4322H28.4228L28.4233 18.4327Z" fill="#003C5F"/>
<path d="M24.9611 23.5689C24.6686 23.5689 24.4309 23.271 24.4309 22.9032C24.4309 22.5359 24.6681 22.2375 24.9611 22.2375V23.5689ZM32.2136 23.5689H24.9611V22.2375H32.2136V23.5689ZM32.2136 22.2375C32.5061 22.2375 32.7438 22.5354 32.7438 22.9032C32.7438 23.2705 32.5066 23.5689 32.2136 23.5689V22.2375Z" fill="#003C5F"/>
<path d="M20.1684 23.5674C19.802 23.5674 19.5051 23.2701 19.5051 22.9037C19.5051 22.5369 19.802 22.24 20.1684 22.24V23.5679V23.5674ZM22.0788 23.5674H20.1684V22.2395H22.0788V23.5674ZM22.0788 22.2395C22.4451 22.2395 22.742 22.5369 22.742 22.9032C22.742 23.2701 22.4451 23.5669 22.0788 23.5669V22.239V22.2395Z" fill="#003C5F"/>
<path fill-rule="evenodd" clip-rule="evenodd" d="M24.2979 25.9584C24.2979 25.5925 24.5945 25.2959 24.9603 25.2959H27.4592C27.8251 25.2959 28.1217 25.5925 28.1217 25.9584C28.1217 26.3243 27.8251 26.6209 27.4592 26.6209H24.9603C24.5945 26.6209 24.2979 26.3243 24.2979 25.9584Z" fill="#003C5F"/>
<path d="M20.1679 26.6209C19.802 26.6209 19.5051 26.324 19.5051 25.9582C19.5051 25.5923 19.802 25.2954 20.1679 25.2954V26.6204V26.6209ZM22.0783 26.6209H20.1679V25.2959H22.0783V26.6209ZM22.0783 25.2959C22.4442 25.2959 22.7411 25.5928 22.7411 25.9586C22.7411 26.3245 22.4442 26.6214 22.0783 26.6214V25.2964V25.2959Z" fill="#003C5F"/>
<path fill-rule="evenodd" clip-rule="evenodd" d="M24.2979 29.0136C24.2979 28.6477 24.5945 28.3511 24.9603 28.3511H27.5365C27.9024 28.3511 28.199 28.6477 28.199 29.0136C28.199 29.3795 27.9024 29.6761 27.5365 29.6761H24.9603C24.5945 29.6761 24.2979 29.3795 24.2979 29.0136Z" fill="#003C5F"/>
<path d="M20.1679 29.6758C19.802 29.6758 19.5051 29.3789 19.5051 29.0131C19.5051 28.6472 19.802 28.3503 20.1679 28.3503V29.6753V29.6758ZM22.0783 29.6758H20.1679V28.3508H22.0783V29.6758ZM22.0783 28.3508C22.4442 28.3508 22.7411 28.6477 22.7411 29.0136C22.7411 29.3794 22.4442 29.6763 22.0783 29.6763V28.3513V28.3508Z" fill="#003C5F"/>
<path d="M20.1679 35.7815C19.802 35.7815 19.5051 35.4866 19.5051 35.1232C19.5051 34.7598 19.802 34.4648 20.1679 34.4648V35.781V35.7815ZM27.6805 35.7815H20.1679V34.4653H27.6805V35.7815ZM27.6805 34.4653C28.0464 34.4653 28.3433 34.7603 28.3433 35.1237C28.3433 35.4871 28.0464 35.782 27.6805 35.782V34.4658V34.4653Z" fill="#003C5F"/>
<path fill-rule="evenodd" clip-rule="evenodd" d="M24.2979 32.0685C24.2979 31.7026 24.5945 31.406 24.9603 31.406H27.5365C27.9024 31.406 28.199 31.7026 28.199 32.0685C28.199 32.4344 27.9024 32.731 27.5365 32.731H24.9603C24.5945 32.731 24.2979 32.4344 24.2979 32.0685Z" fill="#003C5F"/>
<path d="M20.1679 32.731C19.802 32.731 19.5051 32.4341 19.5051 32.0683C19.5051 31.7024 19.802 31.4055 20.1679 31.4055V32.7305V32.731ZM22.0783 32.731H20.1679V31.406H22.0783V32.731ZM22.0783 31.406C22.4442 31.406 22.7411 31.7029 22.7411 32.0687C22.7411 32.4346 22.4442 32.7315 22.0783 32.7315V31.4065V31.406Z" fill="#003C5F"/>
<path fill-rule="evenodd" clip-rule="evenodd" d="M26.3732 50.7464C39.8341 50.7464 50.7464 39.8341 50.7464 26.3732C50.7464 12.9122 39.8341 2 26.3732 2C12.9122 2 2 12.9122 2 26.3732C2 39.8341 12.9122 50.7464 26.3732 50.7464ZM26.3732 52.7464C40.9387 52.7464 52.7464 40.9387 52.7464 26.3732C52.7464 11.8077 40.9387 0 26.3732 0C11.8077 0 0 11.8077 0 26.3732C0 40.9387 11.8077 52.7464 26.3732 52.7464Z" fill="#008DD2"/>
</svg>
