<svg width="53" height="53" viewBox="0 0 53 53" fill="none" xmlns="http://www.w3.org/2000/svg">
<path fill-rule="evenodd" clip-rule="evenodd" d="M12.1189 19.933C12.1189 17.9852 13.7102 16.394 15.6583 16.394H37.3233C38.1622 16.394 38.9359 16.6898 39.5428 17.1807C39.8273 17.4108 39.8713 17.828 39.6412 18.1125C39.4111 18.3969 38.994 18.441 38.7095 18.2109C38.3284 17.9026 37.8461 17.719 37.3233 17.719H15.6583C14.4419 17.719 13.4439 18.7172 13.4439 19.933V33.0909C13.4439 34.3073 14.4419 35.3054 15.6583 35.3054H37.3233C37.9111 35.3054 38.4478 35.0733 38.847 34.6926C39.1118 34.4401 39.5311 34.4501 39.7836 34.7149C40.0361 34.9797 40.0262 35.399 39.7614 35.6515C39.1275 36.256 38.2674 36.6303 37.3233 36.6303H15.6583C13.7102 36.6303 12.1189 35.0391 12.1189 33.0909V19.933Z" fill="#003C5F"/>
<path d="M21.3709 21.522V20.199L21.542 20.2034L21.7113 20.2166L21.8781 20.2381L22.0424 20.2679L22.2043 20.3056L22.3628 20.3511L22.5183 20.4039L22.6699 20.4641L22.8181 20.5316L22.9619 20.6059L23.1013 20.6871L23.2363 20.7742L23.3669 20.8681L23.4926 20.9678L23.6134 21.0735L23.7288 21.1845L23.8389 21.3009L23.9431 21.4227L24.0419 21.5494L24.1343 21.681L24.2209 21.8169L24.3011 21.9573L24.3745 22.1021L24.441 22.2503L24.5007 22.4029L24.553 22.5584L24.598 22.7179L24.6352 22.8803L24.664 23.0451L24.685 23.2124L24.6978 23.3821L24.7022 23.5538H23.3772L23.3747 23.4481L23.3669 23.3444L23.3542 23.2422L23.3366 23.1419L23.3141 23.0436L23.2867 22.9473L23.2549 22.8529L23.2187 22.7609L23.1786 22.6709L23.1341 22.5834L23.0857 22.4983L23.0333 22.4156L22.9771 22.3359L22.9174 22.2591L22.8538 22.1852L22.7873 22.1143L22.7174 22.0473L22.6445 21.9837L22.5687 21.9236L22.4899 21.8673L22.4083 21.8145L22.3241 21.7656L22.238 21.7211L22.1495 21.6805L22.059 21.6443L21.9661 21.6125L21.8712 21.5851L21.7749 21.5626L21.6761 21.545L21.5758 21.5323L21.4741 21.5245L21.3704 21.5215L21.3709 21.522ZM19.3636 23.5533H18.0386L18.043 23.3816L18.0557 23.2119L18.0767 23.0446L18.1056 22.8798L18.1428 22.7174L18.1878 22.5579L18.2401 22.4024L18.2998 22.2498L18.3663 22.1016L18.4396 21.9568L18.5199 21.8165L18.6064 21.6805L18.6989 21.5489L18.7977 21.4222L18.9018 21.3004L19.0119 21.184L19.1273 21.073L19.2481 20.9674L19.3738 20.8681L19.5044 20.7747L19.6399 20.6871L19.7793 20.6059L19.9231 20.5316L20.0708 20.4641L20.2229 20.4039L20.378 20.3511L20.5369 20.3056L20.6988 20.2679L20.8632 20.2381L21.0304 20.2166L21.1997 20.2034L21.3709 20.199V21.522L21.2672 21.5249L21.1654 21.5328L21.0652 21.5455L20.9669 21.5631L20.8705 21.5856L20.7756 21.613L20.6827 21.6448L20.5917 21.681L20.5032 21.7216L20.4166 21.7661L20.3325 21.815L20.2513 21.8678L20.1725 21.9245L20.0962 21.9847L20.0234 22.0483L19.9534 22.1153L19.8869 22.1862L19.8233 22.2601L19.7637 22.3369L19.7074 22.4166L19.6551 22.4992L19.6067 22.5843L19.5621 22.6719L19.522 22.7619L19.4858 22.8538L19.454 22.9482L19.4267 23.0446L19.4042 23.1429L19.3866 23.2432L19.3738 23.3454L19.366 23.4491L19.3636 23.5547V23.5533ZM21.3709 25.5845V26.9076L21.1997 26.9032L21.0304 26.89L20.8632 26.8684L20.6988 26.8386L20.5369 26.8009L20.378 26.7555L20.2229 26.7026L20.0708 26.6425L19.9231 26.575L19.7793 26.5006L19.6399 26.4194L19.5044 26.3319L19.3738 26.2385L19.2481 26.1392L19.1273 26.0335L19.0119 25.9225L18.9018 25.8061L18.7977 25.6843L18.6989 25.5576L18.6064 25.4261L18.5199 25.2896L18.4396 25.1492L18.3663 25.0049L18.2998 24.8562L18.2401 24.7036L18.1878 24.5481L18.1428 24.3892L18.1056 24.2268L18.0767 24.0619L18.0557 23.8947L18.043 23.7249L18.0386 23.5533H19.3636L19.366 23.6589L19.3738 23.7626L19.3866 23.8648L19.4042 23.9651L19.4267 24.0629L19.454 24.1593L19.4858 24.2537L19.522 24.3461L19.5621 24.4361L19.6067 24.5237L19.6551 24.6088L19.7074 24.6909L19.7637 24.7707L19.8233 24.8474L19.8869 24.9213L19.9534 24.9922L20.0234 25.0592L20.0962 25.1228L20.1725 25.183L20.2513 25.2397L20.3325 25.2925L20.4166 25.3414L20.5032 25.386L20.5917 25.4265L20.6827 25.4627L20.7756 25.4945L20.8705 25.5219L20.9669 25.5444L21.0652 25.562L21.1654 25.5747L21.2672 25.5826L21.3709 25.5855V25.5845ZM23.3782 23.5533H24.7031L24.6987 23.7249L24.686 23.8947L24.665 24.0619L24.6361 24.2268L24.599 24.3892L24.554 24.5481L24.5016 24.7036L24.442 24.8562L24.3754 25.0049L24.3021 25.1492L24.2219 25.2896L24.1353 25.4261L24.0429 25.5576L23.9441 25.6843L23.8399 25.8061L23.7298 25.9225L23.6144 26.0335L23.4936 26.1392L23.3679 26.239L23.2373 26.3329L23.1023 26.4199L22.9629 26.5011L22.8191 26.5755L22.6709 26.643L22.5193 26.7031L22.3637 26.7559L22.2053 26.8014L22.0434 26.8391L21.879 26.8689L21.7123 26.8904L21.543 26.9037L21.3718 26.9081V25.585L21.4755 25.5821L21.5773 25.5743L21.6775 25.5615L21.7763 25.5439L21.8727 25.5214L21.9676 25.494L22.0605 25.4623L22.151 25.4261L22.2395 25.3855L22.3256 25.341L22.4097 25.292L22.4914 25.2392L22.5702 25.183L22.646 25.1228L22.7188 25.0592L22.7888 24.9922L22.8553 24.9213L22.9189 24.8474L22.9786 24.7707L23.0348 24.6909L23.0871 24.6088L23.1356 24.5237L23.1801 24.4361L23.2202 24.3461L23.2564 24.2537L23.2882 24.1593L23.3155 24.0629L23.338 23.9651L23.3557 23.8648L23.3684 23.7626L23.3762 23.6589L23.3786 23.5533H23.3782Z" fill="#003C5F"/>
<path d="M28.1642 23.0374C27.7993 23.0374 27.5039 22.7405 27.5039 22.3747C27.5039 22.0088 27.7998 21.7119 28.1642 21.7119V23.0369V23.0374ZM31.9254 23.0374H28.1642V21.7124H31.9254V23.0374ZM31.9254 21.7124C32.2903 21.7124 32.5857 22.0093 32.5857 22.3751C32.5857 22.741 32.2898 23.0379 31.9254 23.0379V21.7129V21.7124Z" fill="#003C5F"/>
<path d="M28.1642 27.0415C27.7993 27.0415 27.5039 26.7447 27.5039 26.3788C27.5039 26.013 27.7998 25.7161 28.1642 25.7161V27.0411V27.0415ZM31.833 27.0415H28.1642V25.7166H31.833V27.0415ZM31.833 25.7166C32.1979 25.7166 32.4933 26.0134 32.4933 26.3793C32.4933 26.7451 32.1974 27.042 31.833 27.042V25.717V25.7166Z" fill="#003C5F"/>
<path d="M26.523 32.1636C26.523 32.5294 26.2261 32.8263 25.8603 32.8263C25.4944 32.8263 25.1975 32.5294 25.1975 32.1636H26.5225H26.523ZM26.523 30.9486V32.1636H25.198V30.9486H26.523ZM22.9711 28.7222V27.3972L23.1531 27.4016L23.3331 27.4153L23.5106 27.4378L23.6857 27.4691L23.8574 27.5092L24.0261 27.5572L24.1914 27.6134L24.3528 27.6775L24.5099 27.7489L24.6629 27.8276L24.8116 27.9132L24.9554 28.0057L25.0943 28.1045L25.2283 28.2101L25.3575 28.3216L25.4807 28.439L25.5981 28.5623L25.7096 28.6909L25.8153 28.8249L25.9146 28.9643L26.007 29.1086L26.0926 29.2573L26.1713 29.4104L26.2428 29.5679L26.3068 29.7293L26.3631 29.8946L26.411 30.0633L26.4511 30.235L26.4824 30.4101L26.5049 30.5872L26.5186 30.7672L26.523 30.9491H25.198L25.1951 30.8347L25.1863 30.7222L25.1721 30.6111L25.1525 30.5021L25.1276 30.395L25.0978 30.2898L25.063 30.1871L25.0229 30.0863L24.9779 29.988L24.9285 29.8922L24.8747 29.7987L24.8165 29.7082L24.7544 29.6207L24.6879 29.5361L24.6175 29.4549L24.5431 29.3771L24.4653 29.3028L24.3841 29.2323L24.2995 29.1658L24.212 29.1032L24.1215 29.045L24.0286 28.9912L23.9322 28.9418L23.8339 28.8968L23.7331 28.8567L23.6304 28.822L23.5253 28.7922L23.4182 28.7672L23.3096 28.7476L23.1986 28.7335L23.0861 28.7247L22.9716 28.7217L22.9711 28.7222ZM19.768 27.3972H22.9711V28.7222H19.768V27.3972ZM17.5415 30.9491H16.2166L16.221 30.7672L16.2347 30.5872L16.2571 30.4096L16.2885 30.2345L16.3286 30.0628L16.3765 29.8941L16.4327 29.7288L16.4968 29.5674L16.5682 29.4104L16.647 29.2573L16.7326 29.1086L16.825 28.9648L16.9243 28.8254L17.0299 28.6919L17.1415 28.5628L17.2588 28.4395L17.3821 28.3221L17.5112 28.2106L17.6447 28.1054L17.7841 28.0062L17.9284 27.9137L18.0771 27.8281L18.2302 27.7494L18.3872 27.678L18.5486 27.6139L18.7139 27.5576L18.8827 27.5097L19.0544 27.4696L19.2295 27.4383L19.407 27.4158L19.5865 27.4021L19.7684 27.3977V28.7227L19.654 28.7256L19.5415 28.7344L19.4305 28.7486L19.3219 28.7682L19.2148 28.7931L19.1096 28.823L19.0069 28.8577L18.9062 28.8978L18.8078 28.9428L18.7115 28.9922L18.6181 29.046L18.5276 29.1042L18.4405 29.1663L18.3559 29.2328L18.2747 29.3033L18.1969 29.3776L18.1226 29.4554L18.0522 29.5366L17.9857 29.6212L17.9235 29.7087L17.8653 29.7992L17.8115 29.8922L17.7621 29.9885L17.7171 30.0868L17.677 30.1876L17.6423 30.2903L17.6125 30.3954L17.5875 30.5026L17.568 30.6111L17.5538 30.7222L17.545 30.8347L17.542 30.9491H17.5415ZM16.2166 32.1641V30.9491H17.5415V32.1641H16.2166ZM17.5415 32.1641C17.5415 32.5299 17.2447 32.8268 16.8788 32.8268C16.513 32.8268 16.2161 32.5299 16.2161 32.1641H17.5411H17.5415Z" fill="#003C5F"/>
<path fill-rule="evenodd" clip-rule="evenodd" d="M35.1228 21.6419V27.2274C35.1228 28.3018 35.8499 29.4406 36.9693 30.4542C37.9924 31.3804 39.2316 32.0987 40.18 32.4581C41.1283 32.0987 42.3677 31.3804 43.3909 30.4541C44.5104 29.4406 45.2376 28.3018 45.2376 27.2274V21.642C43.5414 20.8755 41.8587 20.5155 40.1839 20.5254L40.1761 20.5254C38.5011 20.5155 36.8184 20.8751 35.1228 21.6419ZM34.4603 21.2211L34.1703 20.6255C36.1604 19.6565 38.1657 19.1891 40.18 19.2004C42.1943 19.1891 44.1996 19.6571 46.1899 20.6254C46.4179 20.7363 46.5626 20.9676 46.5626 21.2211V27.2274C46.5626 28.87 45.4903 30.3408 44.2801 31.4364C43.0515 32.5486 41.5431 33.4013 40.3916 33.7895C40.2543 33.8358 40.1056 33.8358 39.9683 33.7895C38.8168 33.4013 37.3085 32.5486 36.08 31.4364C34.87 30.3408 33.7979 28.8699 33.7979 27.2274V21.2211H34.4603Z" fill="#003C5F"/>
<path fill-rule="evenodd" clip-rule="evenodd" d="M43.4941 23.8908C43.7528 24.1495 43.7528 24.569 43.4941 24.8277L40.4763 27.8455C40.3521 27.9698 40.1835 28.0396 40.0078 28.0396C39.8321 28.0395 39.6636 27.9697 39.5393 27.8454L37.9933 26.2989C37.7346 26.0401 37.7347 25.6207 37.9934 25.362C38.2522 25.1033 38.6717 25.1034 38.9303 25.3621L40.008 26.4401L42.5572 23.8908C42.8159 23.6321 43.2354 23.6321 43.4941 23.8908Z" fill="#003C5F"/>
<path fill-rule="evenodd" clip-rule="evenodd" d="M26.3732 50.7464C39.8341 50.7464 50.7464 39.8341 50.7464 26.3732C50.7464 12.9122 39.8341 2 26.3732 2C12.9122 2 2 12.9122 2 26.3732C2 39.8341 12.9122 50.7464 26.3732 50.7464ZM26.3732 52.7464C40.9387 52.7464 52.7464 40.9387 52.7464 26.3732C52.7464 11.8077 40.9387 0 26.3732 0C11.8077 0 0 11.8077 0 26.3732C0 40.9387 11.8077 52.7464 26.3732 52.7464Z" fill="#008DD2"/>
</svg>
