<svg width="53" height="53" viewBox="0 0 53 53" fill="none" xmlns="http://www.w3.org/2000/svg">
<path fill-rule="evenodd" clip-rule="evenodd" d="M16.348 18.4383C15.5361 18.4383 14.8692 19.1052 14.8692 19.9171V33.8351C14.8692 34.647 15.5361 35.3139 16.348 35.3139H37.7601C38.572 35.3139 39.2389 34.647 39.2389 33.8351V19.9171C39.2389 19.1052 38.572 18.4383 37.7601 18.4383H16.348ZM13.5442 19.9171C13.5442 18.3734 14.8043 17.1133 16.348 17.1133H37.7601C39.3038 17.1133 40.5639 18.3734 40.5639 19.9171V33.8351C40.5639 35.3788 39.3038 36.6389 37.7601 36.6389H16.348C14.8043 36.6389 13.5442 35.3788 13.5442 33.8351V19.9171Z" fill="#003C5F"/>
<path fill-rule="evenodd" clip-rule="evenodd" d="M16.348 18.4388C15.5361 18.4388 14.8692 19.1057 14.8692 19.9176V20.5598C14.8692 23.4058 17.1419 25.6785 19.9879 25.6785H22.5249C22.8908 25.6785 23.1874 25.9751 23.1874 26.341C23.1874 26.7069 22.8908 27.0035 22.5249 27.0035H19.9879C16.4101 27.0035 13.5442 24.1376 13.5442 20.5598V19.9176C13.5442 18.3739 14.8043 17.1138 16.348 17.1138H37.7601C39.3038 17.1138 40.5639 18.3739 40.5639 19.9176V20.5598C40.5639 24.1376 37.698 27.0035 34.1202 27.0035H31.5064C31.1405 27.0035 30.8439 26.7069 30.8439 26.341C30.8439 25.9751 31.1405 25.6785 31.5064 25.6785H34.1202C36.9663 25.6785 39.2389 23.4058 39.2389 20.5598V19.9176C39.2389 19.1057 38.572 18.4388 37.7601 18.4388H16.348Z" fill="#003C5F"/>
<path fill-rule="evenodd" clip-rule="evenodd" d="M29.9993 16.3545C29.3465 15.4247 28.2979 14.8541 27.0627 14.8682L27.0552 14.8683V14.8683C25.8144 14.8683 24.7511 15.4732 24.0937 16.4109C23.8837 16.7105 23.4705 16.7831 23.1709 16.5731C22.8713 16.3631 22.7987 15.9499 23.0087 15.6503C23.9012 14.3773 25.3592 13.5445 27.0514 13.5433C28.7278 13.5253 30.1838 14.3113 31.0838 15.5932C31.294 15.8927 31.2217 16.3059 30.9222 16.5161C30.6227 16.7263 30.2096 16.654 29.9993 16.3545Z" fill="#003C5F"/>
<path fill-rule="evenodd" clip-rule="evenodd" d="M27.052 21.5119C25.9115 21.5119 24.9869 22.4364 24.9869 23.5769C24.9869 24.7174 25.9115 25.6419 27.052 25.6419C28.1925 25.6419 29.117 24.7174 29.117 23.5769C29.117 22.4364 28.1925 21.5119 27.052 21.5119ZM23.6067 23.5769C23.6067 21.6741 25.1492 20.1316 27.052 20.1316C28.9548 20.1316 30.4973 21.6741 30.4973 23.5769C30.4973 25.4797 28.9548 27.0222 27.052 27.0222C25.1492 27.0222 23.6067 25.4797 23.6067 23.5769Z" fill="#003C5F"/>
<path fill-rule="evenodd" clip-rule="evenodd" d="M27.0515 27.0223C25.6935 27.0223 24.5927 28.1232 24.5927 29.4812C24.5927 30.8392 25.6935 31.94 27.0515 31.94C28.4095 31.94 29.5103 30.8392 29.5103 29.4812C29.5103 28.1232 28.4095 27.0223 27.0515 27.0223ZM23.2124 29.4812C23.2124 27.3609 24.9312 25.6421 27.0515 25.6421C29.1718 25.6421 30.8906 27.3609 30.8906 29.4812C30.8906 31.6015 29.1718 33.3203 27.0515 33.3203C24.9312 33.3203 23.2124 31.6015 23.2124 29.4812Z" fill="#003C5F"/>
<path fill-rule="evenodd" clip-rule="evenodd" d="M26.3732 50.7464C39.8341 50.7464 50.7464 39.8341 50.7464 26.3732C50.7464 12.9122 39.8341 2 26.3732 2C12.9122 2 2 12.9122 2 26.3732C2 39.8341 12.9122 50.7464 26.3732 50.7464ZM26.3732 52.7464C40.9387 52.7464 52.7464 40.9387 52.7464 26.3732C52.7464 11.8077 40.9387 0 26.3732 0C11.8077 0 0 11.8077 0 26.3732C0 40.9387 11.8077 52.7464 26.3732 52.7464Z" fill="#008DD2"/>
</svg>
