<svg width="53" height="53" viewBox="0 0 53 53" fill="none" xmlns="http://www.w3.org/2000/svg">
<path d="M23.3621 25.5552C23.0373 25.5552 22.7737 25.2906 22.7737 24.9649C22.7737 24.6386 23.0373 24.3745 23.3621 24.3745V25.5552ZM30.6693 25.5552H23.3621V24.3745H30.6693V25.5552ZM30.6693 24.3745C30.9941 24.3745 31.2577 24.6391 31.2577 24.9649C31.2577 25.2911 30.9941 25.5552 30.6693 25.5552V24.3745Z" fill="#003C5F"/>
<path d="M23.7172 25.3827C23.4868 25.6131 23.1126 25.6131 22.8822 25.3827C22.6519 25.1523 22.6519 24.7782 22.8822 24.5478L23.7172 25.3827ZM25.1811 23.9188L23.7172 25.3827L22.8822 24.5478L24.3461 23.0839L25.1811 23.9188ZM24.3461 23.0839C24.5765 22.8535 24.9507 22.8535 25.1811 23.0839C25.4114 23.3143 25.4114 23.6884 25.1811 23.9188L24.3461 23.0839Z" fill="#003C5F"/>
<path d="M30.6051 26.5435C30.9299 26.5435 31.1935 26.8081 31.1935 27.1338C31.1935 27.46 30.9299 27.7242 30.6051 27.7242V26.5435ZM23.2979 26.5435H30.6051V27.7242H23.2979V26.5435ZM23.2979 27.7242C22.9731 27.7242 22.7095 27.4596 22.7095 27.1338C22.7095 26.8076 22.9731 26.5435 23.2979 26.5435V27.7242Z" fill="#003C5F"/>
<path d="M30.2502 26.7167C30.4806 26.4864 30.8547 26.4864 31.0851 26.7167C31.3155 26.9471 31.3155 27.3213 31.0851 27.5516L30.2502 26.7167ZM28.7863 28.1806L30.2502 26.7167L31.0851 27.5516L29.6212 29.0155L28.7863 28.1806ZM29.6212 29.0155C29.3908 29.2459 29.0167 29.2459 28.7863 29.0155C28.5559 28.7852 28.5559 28.411 28.7863 28.1806L29.6212 29.0155Z" fill="#003C5F"/>
<path d="M17.5848 19.2118V17.8208L17.8098 17.8267L18.0323 17.8438L18.2519 17.8722L18.4681 17.9113L18.6804 17.9607L18.8887 18.0204L19.0927 18.0898L19.2923 18.169L19.4864 18.2576L19.6757 18.3554L19.8591 18.462L20.0367 18.5765L20.2084 18.6997L20.3737 18.8308L20.5321 18.9692L20.6843 19.1155L20.829 19.2686L20.9665 19.4285L21.0961 19.5953L21.2179 19.7679L21.3313 19.9469L21.4365 20.1313L21.5333 20.3216L21.6209 20.5172L21.6992 20.7173L21.7681 20.9222L21.8268 21.1316L21.8757 21.3448L21.9144 21.5615L21.9422 21.7821L21.9594 22.0051L21.9652 22.2311H20.5723L20.5683 22.0746L20.5566 21.9205L20.5375 21.7689L20.5111 21.6202L20.4779 21.4739L20.4377 21.3311L20.3908 21.1907L20.337 21.0533L20.2773 20.9198L20.2113 20.7897L20.1394 20.663L20.0616 20.5407L19.978 20.4224L19.8895 20.3084L19.7956 20.1988L19.6963 20.0937L19.5926 19.9939L19.484 19.899L19.371 19.8095L19.2541 19.7254L19.1328 19.6471L19.0081 19.5747L18.8795 19.5087L18.7474 19.4485L18.6124 19.3947L18.474 19.3473L18.3331 19.3067L18.1893 19.2734L18.0426 19.247L17.8934 19.228L17.7418 19.2162L17.5877 19.2123L17.5848 19.2118ZM14.5988 22.2301H13.2058L13.2117 22.0041L13.2288 21.7811L13.2567 21.5605L13.2953 21.3438L13.3442 21.1306L13.4029 20.9212L13.4719 20.7163L13.5501 20.5163L13.6377 20.3206L13.7345 20.1304L13.8397 19.946L13.9532 19.767L14.075 19.5943L14.2046 19.4275L14.342 19.2676L14.4868 19.1145L14.6389 18.9682L14.7974 18.8298L14.9627 18.6987L15.1344 18.5755L15.3119 18.461L15.4953 18.3544L15.6846 18.2566L15.8788 18.1681L16.0783 18.0888L16.2823 18.0194L16.4907 17.9597L16.7029 17.9103L16.9191 17.8712L17.1387 17.8428L17.3613 17.8257L17.5863 17.8198V19.2108L17.4322 19.2148L17.2806 19.2265L17.1314 19.2456L16.9847 19.272L16.8409 19.3052L16.7 19.3458L16.5616 19.3933L16.4266 19.4471L16.2945 19.5072L16.1659 19.5733L16.0412 19.6457L15.9199 19.7239L15.803 19.808L15.69 19.8975L15.5814 19.9924L15.4777 20.0922L15.3789 20.1974L15.2845 20.3069L15.196 20.4209L15.1124 20.5393L15.0346 20.6615L14.9627 20.7882L14.8967 20.9183L14.837 21.0518L14.7832 21.1893L14.7362 21.3297L14.6961 21.4725L14.6629 21.6187L14.6365 21.7674L14.6174 21.919L14.6056 22.0731L14.6017 22.2296L14.5988 22.2301ZM17.5848 25.2484V26.6394L17.3598 26.6335L17.1373 26.6164L16.9176 26.588L16.7015 26.5489L16.4892 26.4995L16.2808 26.4398L16.0769 26.3704L15.8773 26.2912L15.6831 26.2026L15.4939 26.1048L15.3104 25.9982L15.1329 25.8837L14.9612 25.7605L14.7959 25.6294L14.6374 25.491L14.4853 25.3447L14.3405 25.1916L14.2031 25.0317L14.0735 24.8649L13.9517 24.6923L13.8382 24.5133L13.7331 24.3289L13.6362 24.1386L13.5487 23.943L13.4704 23.7429L13.4015 23.538L13.3428 23.3286L13.2939 23.1154L13.2552 22.8987L13.2273 22.6781L13.2102 22.4551L13.2043 22.2291H14.5973L14.6012 22.3856L14.613 22.5397L14.632 22.6913L14.6585 22.84L14.6917 22.9863L14.7318 23.1291L14.7788 23.2694L14.8326 23.4069L14.8923 23.5404L14.9583 23.6705L15.0302 23.7972L15.1079 23.9195L15.1916 24.0378L15.2801 24.1518L15.3745 24.2614L15.4733 24.3665L15.577 24.4663L15.6856 24.5612L15.7986 24.6507L15.9155 24.7348L16.0368 24.8131L16.1615 24.8855L16.2901 24.9515L16.4222 25.0116L16.5572 25.0655L16.6956 25.1129L16.8365 25.1535L16.9803 25.1868L17.127 25.2132L17.2762 25.2322L17.4278 25.244L17.5819 25.2479L17.5848 25.2484ZM20.5708 22.2301H21.9638L21.9579 22.4561L21.9408 22.6791L21.9129 22.8997L21.8743 23.1164L21.8253 23.3296L21.7667 23.5389L21.6977 23.7439L21.6194 23.9439L21.5319 24.1396L21.435 24.3298L21.3299 24.5142L21.2164 24.6932L21.0946 24.8659L20.965 25.0327L20.8276 25.1926L20.6828 25.3457L20.5307 25.492L20.3722 25.6304L20.2069 25.7615L20.0352 25.8847L19.8577 25.9992L19.6743 26.1058L19.485 26.2036L19.2908 26.2921L19.0912 26.3714L18.8873 26.4408L18.6789 26.5005L18.4666 26.5499L18.2505 26.589L18.0309 26.6174L17.8083 26.6345L17.5833 26.6404V25.2494L17.7374 25.2454L17.889 25.2337L18.0382 25.2146L18.1849 25.1882L18.3287 25.155L18.4696 25.1144L18.608 25.0669L18.743 25.0131L18.8751 24.953L19.0037 24.8869L19.1284 24.8145L19.2497 24.7363L19.3666 24.6522L19.4796 24.5627L19.5882 24.4678L19.6919 24.368L19.7911 24.2628L19.8851 24.1533L19.9736 24.0393L20.0572 23.9209L20.135 23.7987L20.2069 23.672L20.2729 23.5419L20.3326 23.4084L20.3864 23.2709L20.4333 23.1305L20.4735 22.9877L20.5067 22.8415L20.5331 22.6928L20.5522 22.5412L20.5639 22.3871L20.5678 22.2306L20.5708 22.2301Z" fill="#003C5F"/>
<path d="M24.4737 34.1064C24.4737 34.4909 24.1616 34.8029 23.7772 34.8029C23.3928 34.8029 23.0807 34.4909 23.0807 34.1064H24.4737ZM24.4737 32.4308V34.1064H23.0807V32.4308H24.4737ZM19.7925 29.1425V27.7495L20.0321 27.7559L20.2688 27.774L20.5031 27.8038L20.7335 27.8454L20.9595 27.8977L21.182 27.9613L21.3992 28.0351L21.6119 28.1193L21.8193 28.2132L22.0208 28.3169L22.2165 28.4299L22.4062 28.5516L22.5897 28.6822L22.7662 28.8211L22.9359 28.9684L23.0988 29.1234L23.2534 29.2858L23.4006 29.4555L23.54 29.6326L23.6706 29.816L23.7924 30.0058L23.9054 30.2014L24.009 30.4029L24.103 30.6103L24.1871 30.8231L24.2609 31.0407L24.3245 31.2628L24.3769 31.4887L24.4184 31.7191L24.4483 31.9534L24.4664 32.1901L24.4727 32.4298H23.0797L23.0753 32.261L23.0626 32.0947L23.0416 31.9314L23.0127 31.7705L22.9756 31.6115L22.9311 31.456L22.8792 31.3038L22.82 31.1552L22.754 31.0099L22.6811 30.8681L22.6014 30.7301L22.5153 30.5966L22.4234 30.4675L22.3255 30.3428L22.2214 30.2229L22.1118 30.108L21.9974 29.9989L21.878 29.8952L21.7533 29.7974L21.6242 29.7055L21.4906 29.6194L21.3527 29.5396L21.2109 29.4668L21.0656 29.4007L20.9169 29.3416L20.7648 29.2897L20.6098 29.2452L20.4513 29.2085L20.2904 29.1792L20.127 29.1581L19.9607 29.1454L19.792 29.141L19.7925 29.1425ZM15.3748 27.7495H19.7925V29.1425H15.3748V27.7495ZM12.0866 32.4308H10.6936L10.7 32.1911L10.7181 31.9544L10.7479 31.7201L10.7895 31.4897L10.8418 31.2637L10.9054 31.0417L10.9797 30.824L11.0639 30.6118L11.1583 30.4044L11.2619 30.2024L11.3749 30.0062L11.4967 29.8165L11.6273 29.6331L11.7662 29.4565L11.9134 29.2868L12.0685 29.1239L12.2314 28.9689L12.4011 28.8216L12.5776 28.6827L12.7611 28.5521L12.9508 28.4303L13.147 28.3174L13.349 28.2137L13.5563 28.1193L13.7686 28.0351L13.9863 27.9608L14.2083 27.8972L14.4343 27.8449L14.6647 27.8033L14.8989 27.7735L15.1357 27.7554L15.3753 27.749V29.142L15.2066 29.1464L15.0403 29.1591L14.8769 29.1802L14.716 29.209L14.5571 29.2462L14.402 29.2907L14.2494 29.3425L14.1007 29.4017L13.9555 29.4677L13.8136 29.5406L13.6757 29.6199L13.5422 29.7059L13.413 29.7979L13.2883 29.8962L13.1685 29.9999L13.054 30.109L12.945 30.2234L12.8413 30.3432L12.743 30.468L12.651 30.5971L12.5649 30.7306L12.4857 30.8685L12.4128 31.0104L12.3468 31.1556L12.2876 31.3043L12.2358 31.4569L12.1912 31.612L12.1541 31.7709L12.1252 31.9319L12.1042 32.0952L12.0915 32.2615L12.0871 32.4303L12.0866 32.4308ZM10.6936 34.1064V32.4308H12.0866V34.1064H10.6936ZM12.0866 34.1064C12.0866 34.4909 11.7745 34.8029 11.3901 34.8029C11.0057 34.8029 10.6936 34.4909 10.6936 34.1064H12.0866Z" fill="#003C5F"/>
<path d="M36.6353 19.2118V17.8208L36.8603 17.8267L37.0829 17.8438L37.3025 17.8722L37.5182 17.9113L37.7304 17.9607L37.9388 18.0204L38.1427 18.0898L38.3423 18.169L38.5365 18.2576L38.7258 18.3554L38.9092 18.462L39.0867 18.5765L39.2584 18.6997L39.4232 18.8308L39.5822 18.9692L39.7343 19.1155L39.8791 19.2686L40.0165 19.4285L40.1461 19.5948L40.2679 19.7679L40.3814 19.9469L40.4866 20.1313L40.5834 20.3216L40.6709 20.5172L40.7492 20.7173L40.8182 20.9222L40.8769 21.1316L40.9258 21.3448L40.9644 21.5615L40.9923 21.7821L41.0094 22.0051L41.0153 22.2311H39.6223L39.6184 22.0746L39.6066 21.9205L39.5876 21.7689L39.5612 21.6202L39.5279 21.4739L39.4878 21.3311L39.4408 21.1907L39.387 21.0533L39.3274 20.9198L39.2613 20.7897L39.1894 20.663L39.1117 20.5407L39.028 20.4224L38.939 20.3084L38.8451 20.1988L38.7458 20.0937L38.6421 19.9939L38.5335 19.899L38.4206 19.8095L38.3037 19.7254L38.1824 19.6471L38.0572 19.5747L37.929 19.5087L37.797 19.4485L37.662 19.3947L37.5235 19.3478L37.3822 19.3072L37.2384 19.2739L37.0917 19.2475L36.943 19.2284L36.7913 19.2167L36.6373 19.2128L36.6353 19.2118ZM33.6493 22.2301H32.2563L32.2622 22.0041L32.2793 21.7811L32.3072 21.5605L32.3459 21.3438L32.3948 21.1306L32.4535 20.9212L32.5224 20.7163L32.6007 20.5163L32.6882 20.3206L32.7851 20.1304L32.8902 19.946L33.0037 19.767L33.1255 19.5943L33.2551 19.4275L33.3925 19.2676L33.5373 19.1145L33.6894 18.9682L33.8479 18.8298L34.0132 18.6987L34.1849 18.5755L34.3624 18.461L34.5459 18.3544L34.7351 18.2566L34.9293 18.1681L35.1289 18.0888L35.3328 18.0194L35.5412 17.9597L35.7535 17.9103L35.9696 17.8712L36.1893 17.8428L36.4118 17.8257L36.6368 17.8198V19.2108L36.4827 19.2148L36.3311 19.2265L36.1819 19.2456L36.0352 19.272L35.8914 19.3052L35.7505 19.3458L35.6121 19.3933L35.4771 19.4471L35.3451 19.5072L35.2164 19.5733L35.0917 19.6457L34.9704 19.7239L34.8535 19.808L34.7405 19.8975L34.6319 19.9924L34.5283 20.0922L34.4295 20.1974L34.3351 20.3069L34.2465 20.4209L34.1629 20.5393L34.0851 20.6615L34.0132 20.7882L33.9472 20.9183L33.8875 21.0518L33.8337 21.1893L33.7868 21.3297L33.7467 21.4725L33.7134 21.6187L33.687 21.7674L33.6679 21.919L33.6562 22.0731L33.6523 22.2296L33.6493 22.2301ZM36.6353 25.2484V26.6394L36.4103 26.6335L36.1878 26.6164L35.9682 26.588L35.752 26.5489L35.5397 26.4995L35.3314 26.4398L35.1274 26.3704L34.9279 26.2912L34.7337 26.2026L34.5444 26.1048L34.361 25.9982L34.1834 25.8837L34.0118 25.7605L33.8464 25.6294L33.688 25.491L33.5359 25.3447L33.3911 25.1916L33.2536 25.0317L33.124 24.8649L33.0022 24.6923L32.8888 24.5133L32.7836 24.3289L32.6868 24.1386L32.5992 23.943L32.521 23.7429L32.452 23.538L32.3933 23.3286L32.3444 23.1154L32.3057 22.8987L32.2779 22.6781L32.2608 22.4551L32.2549 22.2291H33.6479L33.6518 22.3856L33.6635 22.5397L33.6826 22.6913L33.709 22.84L33.7423 22.9863L33.7824 23.1291L33.8293 23.2694L33.8831 23.4069L33.9428 23.5404L34.0088 23.6705L34.0807 23.7972L34.1585 23.9195L34.2421 24.0378L34.3306 24.1518L34.425 24.2614L34.5238 24.3665L34.6275 24.4663L34.7361 24.5612L34.8491 24.6507L34.966 24.7348L35.0873 24.8131L35.212 24.8855L35.3407 24.9515L35.4727 25.0116L35.6077 25.0655L35.7461 25.1129L35.887 25.1535L36.0308 25.1868L36.1775 25.2132L36.3267 25.2322L36.4783 25.244L36.6324 25.2479L36.6353 25.2484ZM39.6213 22.2301H41.0143L41.0084 22.4561L40.9913 22.6791L40.9634 22.8997L40.9248 23.1164L40.8759 23.3296L40.8172 23.5389L40.7482 23.7439L40.67 23.9439L40.5824 24.1396L40.4856 24.3298L40.3804 24.5142L40.2669 24.6932L40.1452 24.8664L40.0155 25.0327L39.8781 25.1926L39.7333 25.3457L39.5812 25.492L39.4223 25.6304L39.2574 25.7615L39.0857 25.8847L38.9082 25.9992L38.7248 26.1058L38.5355 26.2036L38.3413 26.2921L38.1418 26.3714L37.9378 26.4408L37.7295 26.5005L37.5172 26.5499L37.3015 26.589L37.0819 26.6174L36.8593 26.6345L36.6343 26.6404V25.2494L36.7884 25.2454L36.94 25.2337L37.0887 25.2146L37.2355 25.1882L37.3793 25.155L37.5206 25.1144L37.659 25.0674L37.794 25.0136L37.9261 24.9534L38.0542 24.8874L38.1794 24.815L38.3007 24.7368L38.4176 24.6526L38.5306 24.5631L38.6392 24.4683L38.7429 24.3685L38.8422 24.2633L38.9361 24.1538L39.0251 24.0398L39.1087 23.9214L39.1865 23.7992L39.2584 23.6725L39.3244 23.5424L39.3841 23.4088L39.4379 23.2714L39.4849 23.131L39.525 22.9882L39.5582 22.842L39.5846 22.6933L39.6037 22.5417L39.6155 22.3876L39.6194 22.2311L39.6213 22.2301Z" fill="#003C5F"/>
<path d="M43.5245 34.1064C43.5245 34.4909 43.2124 34.8029 42.828 34.8029C42.4436 34.8029 42.1315 34.4909 42.1315 34.1064H43.5245ZM43.5245 32.4308V34.1064H42.1315V32.4308H43.5245ZM38.8432 29.1425V27.7495L39.0829 27.7559L39.3196 27.774L39.5539 27.8038L39.7843 27.8454L40.0102 27.8977L40.2328 27.9613L40.45 28.0351L40.6627 28.1193L40.8701 28.2132L41.0716 28.3169L41.2673 28.4299L41.457 28.5516L41.6404 28.6822L41.817 28.8211L41.9867 28.9684L42.1496 29.1234L42.3042 29.2858L42.4514 29.4555L42.5908 29.6326L42.7214 29.816L42.8432 30.0058L42.9561 30.2014L43.0598 30.4029L43.1537 30.6103L43.2379 30.8231L43.3117 31.0407L43.3753 31.2628L43.4276 31.4887L43.4692 31.7191L43.4991 31.9534L43.5171 32.1901L43.5235 32.4298H42.1305L42.1261 32.261L42.1134 32.0947L42.0924 31.9314L42.0635 31.7705L42.0264 31.6115L41.9818 31.456L41.93 31.3038L41.8708 31.1552L41.8048 31.0099L41.7319 30.8681L41.6522 30.7301L41.5661 30.5966L41.4741 30.4675L41.3763 30.3428L41.2721 30.2229L41.1626 30.108L41.0481 29.9989L40.9288 29.8952L40.8041 29.7974L40.6749 29.7055L40.5414 29.6194L40.4035 29.5396L40.2617 29.4668L40.1164 29.4007L39.9677 29.3416L39.8156 29.2897L39.6605 29.2452L39.5021 29.2085L39.3412 29.1792L39.1778 29.1581L39.0115 29.1454L38.8428 29.141L38.8432 29.1425ZM34.4256 27.7495H38.8432V29.1425H34.4256V27.7495ZM31.1374 32.4308H29.7444L29.7507 32.1911L29.7688 31.9544L29.7987 31.7201L29.8402 31.4897L29.8926 31.2637L29.9562 31.0417L30.0305 30.824L30.1146 30.6118L30.209 30.4044L30.3127 30.2024L30.4257 30.0062L30.5475 29.8165L30.6781 29.6331L30.817 29.4565L30.9642 29.2868L31.1193 29.1239L31.2821 28.9689L31.4519 28.8216L31.6284 28.6827L31.8118 28.5521L32.0016 28.4303L32.1977 28.3174L32.3997 28.2137L32.6071 28.1193L32.8194 28.0351L33.0371 27.9608L33.2591 27.8972L33.4851 27.8449L33.7154 27.8033L33.9497 27.7735L34.1865 27.7554L34.4261 27.749V29.142L34.2574 29.1464L34.0911 29.1591L33.9277 29.1802L33.7668 29.209L33.6078 29.2462L33.4528 29.2907L33.3002 29.3425L33.1515 29.4017L33.0062 29.4677L32.8644 29.5406L32.7265 29.6199L32.5929 29.7059L32.4638 29.7979L32.3391 29.8962L32.2193 29.9999L32.1048 30.109L31.9957 30.2234L31.8921 30.3432L31.7937 30.468L31.7018 30.5971L31.6157 30.7306L31.5365 30.8685L31.4636 31.0104L31.3976 31.1556L31.3384 31.3043L31.2865 31.4569L31.242 31.612L31.2049 31.7709L31.176 31.9319L31.155 32.0952L31.1423 32.2615L31.1379 32.4303L31.1374 32.4308ZM29.7444 34.1064V32.4308H31.1374V34.1064H29.7444ZM31.1374 34.1064C31.1374 34.4909 30.8253 34.8029 30.4409 34.8029C30.0564 34.8029 29.7444 34.4909 29.7444 34.1064H31.1374Z" fill="#003C5F"/>
<path fill-rule="evenodd" clip-rule="evenodd" d="M26.3732 50.7464C39.8341 50.7464 50.7464 39.8341 50.7464 26.3732C50.7464 12.9122 39.8341 2 26.3732 2C12.9122 2 2 12.9122 2 26.3732C2 39.8341 12.9122 50.7464 26.3732 50.7464ZM26.3732 52.7464C40.9387 52.7464 52.7464 40.9387 52.7464 26.3732C52.7464 11.8077 40.9387 0 26.3732 0C11.8077 0 0 11.8077 0 26.3732C0 40.9387 11.8077 52.7464 26.3732 52.7464Z" fill="#008DD2"/>
</svg>
