<svg width="53" height="53" viewBox="0 0 53 53" fill="none" xmlns="http://www.w3.org/2000/svg">
<path fill-rule="evenodd" clip-rule="evenodd" d="M27.1309 14.8684C23.6933 14.8479 20.2479 15.5801 16.7913 17.127C16.7874 17.1287 16.7835 17.1305 16.7796 17.1321C16.4718 17.2745 16.2935 17.5534 16.2935 17.8947V29.0165C16.2935 31.4646 17.9304 33.9229 20.2278 36.0029C22.429 37.9958 25.114 39.5279 27.1348 40.2504C29.1555 39.5279 31.8406 37.9958 34.0418 36.0029C36.3392 33.9229 37.9761 31.4646 37.9761 29.0165V17.8947C37.9761 17.5494 37.7936 17.2677 37.479 17.1271C34.0219 15.5802 30.5768 14.8479 27.1387 14.8684H27.1309ZM27.1348 13.5434C23.5032 13.5224 19.8774 14.2965 16.2647 15.9111C16.2596 15.9132 16.2546 15.9153 16.2496 15.9176C15.4579 16.2718 14.9685 17.0271 14.9685 17.8947V29.0165C14.9685 32.0328 16.9505 34.8231 19.3385 36.9851C21.7449 39.1638 24.6993 40.8299 26.9232 41.5795C27.0605 41.6258 27.2091 41.6258 27.3464 41.5795C29.5703 40.8299 32.5247 39.1638 34.9311 36.9851C37.3191 34.8231 39.3011 32.0328 39.3011 29.0165V17.8947C39.3011 17.0281 38.8126 16.272 38.02 15.9176M38.02 15.9176C34.4021 14.2987 30.7717 13.5223 27.1348 13.5434L38.02 15.9176Z" fill="#003C5F"/>
<path d="M24.5166 18.4294C24.5195 18.063 24.8194 17.7681 25.1862 17.771C25.553 17.774 25.8484 18.0733 25.8455 18.4396L24.5166 18.4294ZM24.5122 18.9987L24.5166 18.4294L25.8455 18.4396L25.8411 19.0089L24.5122 18.9987ZM25.8411 19.0089C25.8382 19.3753 25.5384 19.6702 25.1715 19.6673C24.8047 19.6644 24.5093 19.365 24.5122 18.9987L25.8411 19.0089ZM24.5112 22.3632C24.5112 21.9969 24.8086 21.6995 25.1754 21.6995C25.5423 21.6995 25.8401 21.9964 25.8406 22.3628L24.5117 22.3637L24.5112 22.3632ZM24.5151 28.503L24.5112 22.3632L25.8401 22.3623L25.844 28.502V28.5025L24.5151 28.503ZM25.844 28.502C25.844 28.8684 25.5467 29.1657 25.1798 29.1657C24.813 29.1657 24.5151 28.8688 24.5147 28.5025L25.8436 28.5015L25.844 28.502ZM24.5151 30.7539V28.5025H25.844V30.7539H24.5151ZM25.844 30.7539C25.844 31.1202 25.5467 31.4171 25.1794 31.4171C24.8125 31.4171 24.5147 31.1202 24.5147 30.7539H25.8436H25.844ZM24.5151 34.0617C24.5151 33.6954 24.8125 33.3985 25.1798 33.3985C25.5467 33.3985 25.8445 33.6954 25.8445 34.0617H24.5156H24.5151ZM24.5151 34.5166V34.0617H25.844V34.5166H24.5151ZM25.844 34.5166C25.844 34.8829 25.5467 35.1798 25.1794 35.1798C24.8125 35.1798 24.5147 34.8829 24.5147 34.5166H25.8436H25.844Z" fill="#003C5F"/>
<path fill-rule="evenodd" clip-rule="evenodd" d="M24.3327 21.3658C23.0938 21.3658 22.0777 22.3819 22.0777 23.6208C22.0777 24.5455 22.645 25.3504 23.4548 25.6962C23.7912 25.84 23.9475 26.2292 23.8038 26.5657C23.6601 26.9022 23.2708 27.0585 22.9343 26.9148C21.6576 26.3694 20.7527 25.0986 20.7527 23.6208C20.7527 21.6501 22.3621 20.0408 24.3327 20.0408H27.2439C27.6098 20.0408 27.9064 20.3374 27.9064 20.7033C27.9064 21.0692 27.6098 21.3658 27.2439 21.3658H24.3327ZM26.2268 26.5378C26.2268 26.1719 26.5234 25.8753 26.8893 25.8753H27.618C27.9839 25.8753 28.2805 26.1719 28.2805 26.5378C28.2805 26.9037 27.9839 27.2003 27.618 27.2003H26.8893C26.5234 27.2003 26.2268 26.9037 26.2268 26.5378ZM30.5277 26.5211C30.678 26.1875 31.0702 26.0388 31.4038 26.1891C32.6464 26.7487 33.5213 28.0018 33.5213 29.4549C33.5213 31.4255 31.9119 33.0349 29.9413 33.0349H27.4253C27.0594 33.0349 26.7628 32.7383 26.7628 32.3724C26.7628 32.0065 27.0594 31.7099 27.4253 31.7099H29.9413C31.1802 31.7099 32.1963 30.6937 32.1963 29.4549C32.1963 28.5456 31.6479 27.7522 30.8597 27.3972C30.5261 27.2469 30.3775 26.8547 30.5277 26.5211Z" fill="#003C5F"/>
<path fill-rule="evenodd" clip-rule="evenodd" d="M25.8745 20.7025C25.8745 20.3366 26.1711 20.04 26.537 20.04H29.6027C31.0097 20.04 32.2507 20.7717 32.9671 21.8669C33.1674 22.1731 33.0815 22.5837 32.7753 22.784C32.4691 22.9842 32.0585 22.8984 31.8582 22.5922C31.3743 21.8523 30.5405 21.365 29.6027 21.365H26.537C26.1711 21.365 25.8745 21.0684 25.8745 20.7025Z" fill="#003C5F"/>
<path fill-rule="evenodd" clip-rule="evenodd" d="M21.1857 30.2908C21.4919 30.0905 21.9025 30.1764 22.1027 30.4826C22.5867 31.2225 23.4205 31.7097 24.3582 31.7097H27.424C27.7898 31.7097 28.0865 32.0063 28.0865 32.3722C28.0865 32.7381 27.7898 33.0347 27.424 33.0347H24.3582C22.9512 33.0347 21.7102 32.303 20.9939 31.2078C20.7936 30.9016 20.8795 30.491 21.1857 30.2908Z" fill="#003C5F"/>
<path d="M28.6365 18.4294C28.6394 18.063 28.9392 17.7681 29.3061 17.771C29.6729 17.774 29.9683 18.0733 29.9654 18.4396L28.6365 18.4294ZM28.6321 18.9987L28.6365 18.4294L29.9654 18.4396L29.961 19.0089L28.6321 18.9987ZM29.961 19.0089C29.9581 19.3753 29.6582 19.6702 29.2914 19.6673C28.9246 19.6644 28.6291 19.365 28.6321 18.9987L29.961 19.0089ZM28.6311 22.3632C28.6311 21.9969 28.9285 21.6995 29.2953 21.6995C29.6621 21.6995 29.96 21.9964 29.9605 22.3628L28.6316 22.3637L28.6311 22.3632ZM28.635 28.503L28.6311 22.3632L29.96 22.3623L29.9639 28.502V28.5025L28.635 28.503ZM29.9639 28.502C29.9639 28.8684 29.6665 29.1657 29.2997 29.1657C28.9329 29.1657 28.635 28.8688 28.6345 28.5025L29.9634 28.5015L29.9639 28.502ZM28.635 30.7539V28.5025H29.9639V30.7539H28.635ZM29.9639 30.7539C29.9639 31.1202 29.6665 31.4171 29.2992 31.4171C28.9324 31.4171 28.6345 31.1202 28.6345 30.7539H29.9634H29.9639ZM28.635 34.0617C28.635 33.6954 28.9324 33.3985 29.2997 33.3985C29.6665 33.3985 29.9644 33.6954 29.9644 34.0617H28.6355H28.635ZM28.635 34.5166V34.0617H29.9639V34.5166H28.635ZM29.9639 34.5166C29.9639 34.8829 29.6665 35.1798 29.2992 35.1798C28.9324 35.1798 28.6345 34.8829 28.6345 34.5166H29.9634H29.9639Z" fill="#003C5F"/>
<path fill-rule="evenodd" clip-rule="evenodd" d="M26.3732 50.7464C39.8341 50.7464 50.7464 39.8341 50.7464 26.3732C50.7464 12.9122 39.8341 2 26.3732 2C12.9122 2 2 12.9122 2 26.3732C2 39.8341 12.9122 50.7464 26.3732 50.7464ZM26.3732 52.7464C40.9387 52.7464 52.7464 40.9387 52.7464 26.3732C52.7464 11.8077 40.9387 0 26.3732 0C11.8077 0 0 11.8077 0 26.3732C0 40.9387 11.8077 52.7464 26.3732 52.7464Z" fill="#008DD2"/>
</svg>
