<svg width="1865" height="759" viewBox="0 0 1865 759" fill="none" xmlns="http://www.w3.org/2000/svg">
<path d="M1001.81 177.895H1080.4C1080.4 180.598 1082.65 183 1085.36 183H1145.91C1148.62 183 1150.87 180.748 1150.87 178.045V177.895C1150.87 177.895 1181.23 178.946 1200.31 174.141C1211.13 171.288 1214.89 169.937 1226 165.583C1267.18 149.216 1292.57 143.21 1292.57 143.21C1292.57 143.21 1275.74 140.658 1281 128.345C1283.71 121.739 1300.99 83 1300.99 83L1284.91 84.2012C1278.6 84.6516 1272.89 87.6546 1268.08 91.8589C1218.34 135.102 1223 137.054 1195.95 137.054C1161.54 137.054 1082.65 137.354 1044.49 137.354C1027.96 137.354 996.854 135.853 986.636 150.868L978.371 154.021C971.008 156.724 965.599 176.393 1001.81 177.895Z" stroke="#074F79" stroke-width="3" stroke-miterlimit="10" stroke-linejoin="round"/>
<path d="M984.231 151.768H1001.66C1002.56 151.768 1003.31 150.867 1003.31 149.816V147.264C1003.31 146.813 1003.01 146.363 1002.56 146.363H991.144" stroke="#074F79" stroke-width="3" stroke-miterlimit="10" stroke-linejoin="round"/>
<path d="M1117.97 167.084L1127.13 165.433V157.475L1117.97 155.973" stroke="#074F79" stroke-width="3" stroke-miterlimit="10" stroke-linejoin="round"/>
<path d="M1093.92 170.988H1110.9C1116.01 170.988 1120.07 166.934 1120.07 161.829C1120.07 156.724 1116.01 152.67 1110.9 152.67H1093.92C1090.62 152.67 1088.06 155.373 1088.06 158.526V165.132C1087.91 168.285 1090.62 170.988 1093.92 170.988Z" stroke="#074F79" stroke-width="3" stroke-miterlimit="10" stroke-linejoin="round"/>
<path d="M1097.83 152.52H1108.5V170.838H1097.83V152.52Z" stroke="#074F79" stroke-width="3" stroke-miterlimit="10" stroke-linejoin="round"/>
<path d="M1180.33 161.378L1117.82 137.204" stroke="#074F79" stroke-width="3" stroke-miterlimit="10" stroke-linejoin="round"/>
<path d="M1231.87 156.423C1230.66 156.123 1229.46 156.273 1228.41 156.574C1221.2 159.426 1195.35 171.589 1167.4 171.438C1164.1 171.438 1161.69 174.742 1161.84 177.895C1161.84 177.895 1184.98 178.195 1206.47 172.339C1221.2 168.435 1232.92 163.18 1239.68 160.327C1240.58 159.877 1240.58 158.526 1239.53 158.225L1231.87 156.423Z" stroke="#074F79" stroke-width="3" stroke-miterlimit="10"/>
<path d="M1149.22 174.141L1147.42 172.79C1145.61 171.438 1143.81 170.838 1141.56 170.838H1094.22" stroke="#074F79" stroke-width="3" stroke-miterlimit="10" stroke-linecap="round" stroke-linejoin="round"/>
<path d="M1160.94 154.021H1148.62C1148.02 154.021 1147.42 153.871 1146.82 153.721L1114.21 141.108H1127.73" stroke="#074F79" stroke-width="3" stroke-miterlimit="10" stroke-linejoin="round"/>
<path d="M1140.96 164.532C1111.2 156.273 1082.05 150.418 1049.75 145.913C1042.98 145.012 1044.64 136.604 1050.35 137.354H1050.2C1085.81 142.91 1115.71 150.718 1142.61 160.027" stroke="#074F79" stroke-width="3" stroke-miterlimit="10" stroke-linejoin="round"/>
<path d="M1293.32 143.21L1280.4 141.709L1234.27 140.357C1221.65 139.907 1220.15 146.213 1233.52 146.664C1238.93 146.814 1259.81 147.715 1278 147.264C1288.06 146.964 1291.37 145.913 1291.37 145.913L1293.32 143.21Z" stroke="#074F79" stroke-width="3" stroke-miterlimit="10" stroke-linejoin="round"/>
<path d="M1196.4 161.828C1185.43 159.726 1152.68 157.474 1143.06 159.726C1138.55 160.777 1137.95 165.282 1145.61 165.882C1153.43 166.483 1179.42 165.282 1196.4 161.828Z" stroke="#074F79" stroke-width="3" stroke-miterlimit="10" stroke-linejoin="round"/>
<path fill-rule="evenodd" clip-rule="evenodd" d="M1308.05 145.312C1301.74 142.609 1280.1 141.108 1273.94 142.459C1271.08 143.06 1270.48 146.213 1275.44 146.814C1280.25 147.414 1296.93 147.264 1308.05 145.312Z" stroke="#074F79" stroke-width="3" stroke-miterlimit="10" stroke-linejoin="round"/>
<path d="M1032.02 156.574H1027.51C1026.46 156.574 1025.7 157.324 1025.7 158.376V167.535C1025.7 168.586 1026.46 169.336 1027.51 169.336H1032.02C1033.07 169.336 1033.82 168.586 1033.82 167.535V158.376C1033.82 157.324 1033.07 156.574 1032.02 156.574Z" stroke="#074F79" stroke-width="3" stroke-miterlimit="10" stroke-linejoin="round"/>
<path d="M1297.98 89.7568L1279.5 131.048H1261.77C1260.27 131.048 1259.36 129.396 1260.12 128.195L1281.3 93.0601C1282.35 91.4085 1284.01 90.3574 1285.96 90.3574L1297.98 89.7568Z" stroke="#074F79" stroke-width="3" stroke-miterlimit="10" stroke-linejoin="round"/>
<path d="M1265.97 119.636H1268.83" stroke="#074F79" stroke-width="3" stroke-miterlimit="10" stroke-linecap="round" stroke-linejoin="round"/>
<path d="M1276.19 102.069H1279.05" stroke="#074F79" stroke-width="3" stroke-miterlimit="10" stroke-linecap="round" stroke-linejoin="round"/>
<path d="M1499.4 550.686H1661.03" stroke="#074F79" stroke-width="4" stroke-miterlimit="10" stroke-linecap="round" stroke-linejoin="round"/>
<path d="M1718.62 513.39L1685.7 551.966C1684.18 553.727 1683.3 555.808 1682.98 558.129L1681.86 567.173H1327.12C1326.4 567.173 1325.84 566.613 1325.84 565.892V554.127C1325.84 554.047 1325.84 553.887 1325.76 553.887L1310.86 514.83C1309.58 511.389 1312.06 507.787 1315.74 507.787H1328.24C1328.96 507.787 1329.52 507.227 1329.52 506.507V476.094C1329.52 475.373 1330.08 474.813 1330.8 474.813H1341.77C1342.5 474.813 1343.06 474.253 1343.06 473.533V467.53C1343.06 466.81 1343.62 466.25 1344.34 466.25H1350.34C1351.07 466.25 1351.63 466.81 1351.63 467.53V473.533C1351.63 474.253 1352.19 474.813 1352.91 474.813H1393.76C1394.48 474.813 1395.04 475.373 1395.04 476.094V506.507C1395.04 507.227 1395.6 507.787 1396.32 507.787H1405.29C1405.93 507.787 1406.49 508.268 1406.49 508.908C1407.05 514.91 1412.18 519.632 1418.35 519.632H1642.29C1648.46 519.632 1653.58 514.91 1654.14 508.908C1654.22 508.268 1654.7 507.787 1655.34 507.787H1715.9C1718.62 507.707 1720.3 510.989 1718.62 513.39Z" stroke="#074F79" stroke-width="4" stroke-miterlimit="10" stroke-linejoin="round"/>
<path d="M1703.01 517.392C1703.01 518.899 1701.79 520.123 1700.28 520.123C1698.77 520.123 1697.54 518.899 1697.54 517.392C1697.54 515.884 1698.77 514.66 1700.28 514.66C1701.79 514.66 1703.01 515.884 1703.01 517.392Z" stroke="#074F79" stroke-width="3.5"/>
<path d="M1512.62 500.985H1477.13C1476.17 500.985 1475.45 501.785 1475.45 502.665V514.991C1475.45 515.951 1476.25 516.671 1477.13 516.671H1512.62C1513.58 516.671 1514.3 515.871 1514.3 514.991V502.665C1514.38 501.785 1513.58 500.985 1512.62 500.985ZM1470.49 482.657H1435C1434.04 482.657 1433.32 483.457 1433.32 484.337V496.663C1433.32 497.623 1434.12 498.343 1435 498.343H1470.49C1471.45 498.343 1472.17 497.543 1472.17 496.663V484.337C1472.17 483.377 1471.45 482.657 1470.49 482.657ZM1512.62 482.657H1477.13C1476.17 482.657 1475.45 483.457 1475.45 484.337V496.663C1475.45 497.623 1476.25 498.343 1477.13 498.343H1512.62C1513.58 498.343 1514.3 497.543 1514.3 496.663V484.337C1514.38 483.377 1513.58 482.657 1512.62 482.657ZM1470.49 500.985H1435C1434.04 500.985 1433.32 501.785 1433.32 502.665V514.991C1433.32 515.951 1434.12 516.671 1435 516.671H1470.49C1471.45 516.671 1472.17 515.871 1472.17 514.991V502.665C1472.17 501.785 1471.45 500.985 1470.49 500.985ZM1628.99 482.657H1611.77C1610.81 482.657 1610.09 483.457 1610.09 484.337V514.991C1610.09 515.951 1610.89 516.671 1611.77 516.671H1628.99C1629.95 516.671 1630.68 515.871 1630.68 514.991V484.337C1630.68 483.377 1629.95 482.657 1628.99 482.657ZM1604.48 482.657H1587.26C1586.3 482.657 1585.58 483.457 1585.58 484.337V514.991C1585.58 515.951 1586.38 516.671 1587.26 516.671H1604.48C1605.45 516.671 1606.17 515.871 1606.17 514.991V484.337C1606.17 483.377 1605.45 482.657 1604.48 482.657ZM1579.74 482.657H1562.52C1561.55 482.657 1560.83 483.457 1560.83 484.337V514.991C1560.83 515.951 1561.63 516.671 1562.52 516.671H1579.74C1580.7 516.671 1581.42 515.871 1581.42 514.991V484.337C1581.5 483.377 1580.7 482.657 1579.74 482.657ZM1554.99 482.657H1519.5C1518.54 482.657 1517.82 483.457 1517.82 484.337V496.663C1517.82 497.623 1518.62 498.343 1519.5 498.343H1554.99C1555.95 498.343 1556.67 497.543 1556.67 496.663V484.337C1556.67 483.377 1555.87 482.657 1554.99 482.657ZM1554.99 500.985H1519.5C1518.54 500.985 1517.82 501.785 1517.82 502.665V514.991C1517.82 515.951 1518.62 516.671 1519.5 516.671H1554.99C1555.95 516.671 1556.67 515.871 1556.67 514.991V502.665C1556.67 501.785 1555.87 500.985 1554.99 500.985Z" fill="#074F79"/>
<path d="M1389.11 480.496H1382.62V486.979H1389.11V480.496Z" stroke="#074F79" stroke-width="4" stroke-miterlimit="10" stroke-linejoin="round"/>
<path d="M1379.02 480.496H1372.53V486.979H1379.02V480.496Z" stroke="#074F79" stroke-width="4" stroke-miterlimit="10" stroke-linejoin="round"/>
<path d="M1369.01 480.656H1362.52V487.139H1369.01V480.656Z" stroke="#074F79" stroke-width="4" stroke-miterlimit="10" stroke-linejoin="round"/>
<path d="M1358.99 480.656H1352.51V487.139H1358.99V480.656Z" stroke="#074F79" stroke-width="4" stroke-miterlimit="10" stroke-linejoin="round"/>
<path d="M1323.83 507.708H1380.7" stroke="#074F79" stroke-width="4" stroke-miterlimit="10" stroke-linecap="round" stroke-linejoin="round"/>
<path d="M1708.77 590.303L1704.52 587.742C1700.12 585.1 1694.67 585.02 1690.19 587.582L1689.31 588.062C1684.74 590.623 1679.21 590.543 1674.73 587.742C1670.4 585.1 1665.04 584.86 1660.55 587.261L1658.47 588.382C1653.98 590.783 1648.62 590.543 1644.29 587.902L1644.13 587.822C1639.81 585.1 1634.36 584.94 1629.88 587.422" stroke="#074F79" stroke-width="4" stroke-miterlimit="10" stroke-linecap="round" stroke-linejoin="round"/>
<path d="M1862.89 611.105L1858.65 608.544C1854.24 605.903 1848.8 605.823 1844.31 608.384L1843.43 608.864C1838.86 611.425 1833.34 611.345 1828.85 608.544C1824.53 605.903 1819.16 605.663 1814.68 608.064L1812.59 609.184C1808.11 611.585 1802.74 611.345 1798.42 608.704L1798.26 608.624C1793.93 605.903 1788.49 605.743 1784 608.224" stroke="#074F79" stroke-width="4" stroke-miterlimit="10" stroke-linecap="round" stroke-linejoin="round"/>
<path d="M1189.89 568.105L1185.65 565.544C1181.24 562.903 1175.8 562.823 1171.31 565.384L1170.43 565.864C1165.86 568.425 1160.34 568.345 1155.85 565.544C1151.53 562.903 1146.16 562.663 1141.68 565.064L1139.59 566.184C1135.11 568.585 1129.74 568.345 1125.42 565.704L1125.26 565.624C1120.93 562.903 1115.49 562.743 1111 565.224" stroke="#074F79" stroke-width="4" stroke-miterlimit="10" stroke-linecap="round" stroke-linejoin="round"/>
<path d="M1759.78 667.507L1757.32 665.816C1754.76 664.073 1751.6 664.02 1749 665.711L1748.49 666.028C1745.84 667.719 1742.63 667.666 1740.03 665.816C1737.52 664.073 1734.4 663.914 1731.8 665.499L1730.59 666.239C1727.99 667.824 1724.88 667.666 1722.37 665.922L1722.27 665.869C1719.76 664.073 1716.6 663.967 1714 665.605" stroke="#074F79" stroke-width="4" stroke-miterlimit="10" stroke-linecap="round" stroke-linejoin="round"/>
<path d="M1435.16 595.36L1430.91 592.799C1426.51 590.158 1421.06 590.078 1416.58 592.639L1415.7 593.119C1411.13 595.68 1405.6 595.6 1401.12 592.799C1396.79 590.158 1391.43 589.918 1386.94 592.319L1384.86 593.439C1380.37 595.84 1375.01 595.6 1370.68 592.959L1370.52 592.879C1366.2 590.158 1360.75 589.998 1356.27 592.479" stroke="#074F79" stroke-width="4" stroke-miterlimit="10" stroke-linecap="round" stroke-linejoin="round"/>
<path d="M1575.89 756.105L1571.65 753.544C1567.24 750.903 1561.8 750.823 1557.31 753.384L1556.43 753.864C1551.86 756.425 1546.34 756.345 1541.85 753.544C1537.53 750.903 1532.16 750.663 1527.68 753.064L1525.59 754.184C1521.11 756.585 1515.74 756.345 1511.42 753.704L1511.26 753.624C1506.93 750.903 1501.49 750.743 1497 753.224" stroke="#074F79" stroke-width="4" stroke-miterlimit="10" stroke-linecap="round" stroke-linejoin="round"/>
<path d="M1553.88 630.278L1549.64 627.717C1545.23 625.076 1539.79 624.996 1535.3 627.557L1534.42 628.037C1529.85 630.598 1524.33 630.518 1519.84 627.717C1515.52 625.076 1510.15 624.836 1505.67 627.237L1503.58 628.357C1499.1 630.759 1493.73 630.518 1489.41 627.877L1489.25 627.797C1484.92 625.076 1479.47 624.916 1474.99 627.397" stroke="#074F79" stroke-width="4" stroke-miterlimit="10" stroke-linecap="round" stroke-linejoin="round"/>
<path d="M1615.89 642.105L1611.65 639.544C1607.24 636.903 1601.8 636.823 1597.31 639.384L1596.43 639.864C1591.86 642.425 1586.34 642.345 1581.85 639.544C1577.53 636.903 1572.16 636.663 1567.68 639.064L1565.59 640.184C1561.11 642.585 1555.74 642.345 1551.42 639.704L1551.26 639.624C1546.93 636.903 1541.49 636.743 1537 639.224" stroke="#074F79" stroke-width="4" stroke-miterlimit="10" stroke-linecap="round" stroke-linejoin="round"/>
<path d="M1741.78 679.731L1739.32 678.463C1736.76 677.155 1733.6 677.116 1731 678.384L1730.49 678.622C1727.84 679.89 1724.63 679.85 1722.03 678.463C1719.52 677.155 1716.4 677.037 1713.8 678.225L1712.59 678.78C1709.99 679.969 1706.88 679.85 1704.37 678.542L1704.27 678.503C1701.76 677.155 1698.6 677.076 1696 678.305" stroke="#074F79" stroke-width="4" stroke-miterlimit="10" stroke-linecap="round" stroke-linejoin="round"/>
<path d="M1615.62 587.182C1611.21 584.541 1605.77 584.461 1601.28 587.022L1600.4 587.502C1595.83 590.063 1590.31 589.983 1585.82 587.182C1581.5 584.541 1576.13 584.301 1571.65 586.702L1569.56 587.822" stroke="#074F79" stroke-width="4" stroke-miterlimit="10" stroke-linecap="round" stroke-linejoin="round"/>
<path d="M1681.7 567.093C1683.94 567.013 1686.18 566.373 1688.18 565.252L1689.06 564.772C1693.63 562.211 1699.16 562.291 1703.64 565.092C1707.97 567.733 1713.33 567.973 1717.82 565.572L1719.9 564.452" stroke="#074F79" stroke-width="4" stroke-miterlimit="10" stroke-linecap="round" stroke-linejoin="round"/>
<path d="M1362.52 444V474.413" stroke="#074F79" stroke-width="4" stroke-miterlimit="10" stroke-linecap="round" stroke-linejoin="round"/>
<path d="M1777.81 565.252L1738.8 565.092C1736.16 565.092 1733.52 564.532 1730.95 563.651C1727.27 562.371 1723.19 562.691 1719.66 564.532L1717.58 565.652" stroke="#074F79" stroke-width="4" stroke-miterlimit="10" stroke-linecap="round" stroke-linejoin="round"/>
<path d="M1317.28 566.415C1312.87 563.774 1307.43 563.694 1302.94 566.255L1302.06 566.736C1297.5 569.297 1291.97 569.217 1287.48 566.415C1283.16 563.774 1277.79 563.534 1273.31 565.935L1271.23 567.056C1266.74 569.457 1261.37 569.217 1257.05 566.576L1256.89 566.495C1253.28 564.255 1248.88 563.774 1244.95 565.055C1242.71 565.775 1240.39 566.015 1238.07 566.015H1208.83" stroke="#074F79" stroke-width="4" stroke-miterlimit="10" stroke-linecap="round" stroke-linejoin="round"/>
<path d="M1296.22 583.783L1295.33 584.263C1290.77 586.824 1285.24 586.744 1280.76 583.943C1276.43 581.302 1271.07 581.062 1266.58 583.463C1265.22 584.183 1263.7 584.584 1262.17 584.584H1235.26" stroke="#074F79" stroke-width="4" stroke-miterlimit="10" stroke-linecap="round" stroke-linejoin="round"/>
<path d="M1450.28 141.212C1450.28 141.108 1450.28 141.005 1450.28 140.799C1450.28 135.951 1453.59 131.826 1458.02 130.588C1458.75 118.005 1469.17 108 1481.97 108C1490.64 108 1498.28 112.641 1502.51 119.552C1503.44 119.346 1504.47 119.346 1505.51 119.346C1515.21 119.346 1523.05 127.184 1523.05 136.88C1523.05 138.427 1522.85 139.871 1522.54 141.212" stroke="#074F79" stroke-width="4" stroke-miterlimit="10" stroke-linecap="round" stroke-linejoin="round"/>
<path d="M1450.28 141.625H1345" stroke="#074F79" stroke-width="4" stroke-miterlimit="10" stroke-linecap="round" stroke-linejoin="round"/>
<path d="M1522.12 142.656H1644.33" stroke="#074F79" stroke-width="4" stroke-miterlimit="10" stroke-linecap="round" stroke-linejoin="round"/>
<path d="M1384.95 131H1455.65" stroke="#074F79" stroke-width="4" stroke-miterlimit="10" stroke-linecap="round" stroke-linejoin="round"/>
<path d="M431.283 338.212C431.283 338.108 431.283 338.005 431.283 337.799C431.283 332.951 434.586 328.826 439.025 327.588C439.747 315.005 450.172 305 462.971 305C471.642 305 479.28 309.641 483.512 316.552C484.441 316.346 485.473 316.346 486.505 316.346C496.208 316.346 504.053 324.184 504.053 333.88C504.053 335.427 503.846 336.871 503.536 338.212" stroke="#074F79" stroke-width="4" stroke-miterlimit="10" stroke-linecap="round" stroke-linejoin="round"/>
<path d="M431.283 338.625H326" stroke="#074F79" stroke-width="4" stroke-miterlimit="10" stroke-linecap="round" stroke-linejoin="round"/>
<path d="M503.124 339.656H625.335" stroke="#074F79" stroke-width="4" stroke-miterlimit="10" stroke-linecap="round" stroke-linejoin="round"/>
<path d="M365.945 328H436.65" stroke="#074F79" stroke-width="4" stroke-miterlimit="10" stroke-linecap="round" stroke-linejoin="round"/>
<path d="M172.283 485.212C172.283 485.108 172.283 485.005 172.283 484.799C172.283 479.951 175.586 475.826 180.025 474.588C180.747 462.005 191.172 452 203.971 452C212.642 452 220.28 456.641 224.512 463.552C225.441 463.346 226.473 463.346 227.505 463.346C237.208 463.346 245.053 471.184 245.053 480.88C245.053 482.427 244.846 483.871 244.536 485.212" stroke="#074F79" stroke-width="4" stroke-miterlimit="10" stroke-linecap="round" stroke-linejoin="round"/>
<path d="M172.283 485.625H67" stroke="#074F79" stroke-width="4" stroke-miterlimit="10" stroke-linecap="round" stroke-linejoin="round"/>
<path d="M244.124 486.656H366.335" stroke="#074F79" stroke-width="4" stroke-miterlimit="10" stroke-linecap="round" stroke-linejoin="round"/>
<path d="M106.945 475H177.65" stroke="#074F79" stroke-width="4" stroke-miterlimit="10" stroke-linecap="round" stroke-linejoin="round"/>
<path d="M199.283 653.135C199.283 653.032 199.283 652.929 199.283 652.722C199.283 647.875 202.586 643.749 207.025 642.511C207.747 629.928 218.172 619.923 230.971 619.923C239.642 619.923 247.28 624.565 251.512 631.475C252.441 631.269 253.473 631.269 254.505 631.269C264.208 631.269 272.053 639.108 272.053 648.803C272.053 650.35 271.846 651.794 271.536 653.135" stroke="#074F79" stroke-width="4" stroke-miterlimit="10" stroke-linecap="round" stroke-linejoin="round"/>
<path d="M199.283 653.548H94" stroke="#074F79" stroke-width="4" stroke-miterlimit="10" stroke-linecap="round" stroke-linejoin="round"/>
<path d="M271.124 654.579H393.335" stroke="#074F79" stroke-width="4" stroke-miterlimit="10" stroke-linecap="round" stroke-linejoin="round"/>
<path d="M133.945 642.924H204.65" stroke="#074F79" stroke-width="4" stroke-miterlimit="10" stroke-linecap="round" stroke-linejoin="round"/>
<path d="M1679.46 223.144C1679.46 223.041 1679.46 222.937 1679.46 222.834C1679.46 218.709 1682.76 215.408 1686.89 215.408C1687.2 215.408 1687.4 215.408 1687.71 215.511" stroke="#074F79" stroke-width="4" stroke-miterlimit="10" stroke-linecap="round" stroke-linejoin="round"/>
<path d="M1717.85 214.067C1717.96 214.067 1717.96 214.067 1718.06 214.067C1723.12 214.067 1727.14 218.09 1727.14 223.144" stroke="#074F79" stroke-width="4" stroke-miterlimit="10" stroke-linecap="round" stroke-linejoin="round"/>
<path d="M1679.46 223.144H1652" stroke="#074F79" stroke-width="4" stroke-miterlimit="10" stroke-linecap="round" stroke-linejoin="round"/>
<path d="M1761.31 223.144H1727.25" stroke="#074F79" stroke-width="4" stroke-miterlimit="10" stroke-linecap="round" stroke-linejoin="round"/>
<path d="M1687.61 215.512C1688.54 207.879 1695.04 202 1702.89 202C1710.22 202 1716.41 207.157 1717.96 214.068" stroke="#074F79" stroke-width="4" stroke-miterlimit="10" stroke-linecap="round" stroke-linejoin="round"/>
<path d="M264.456 550.067C264.456 549.964 264.456 549.861 264.456 549.758C264.456 545.632 267.759 542.332 271.888 542.332C272.197 542.332 272.404 542.332 272.714 542.435" stroke="#074F79" stroke-width="4" stroke-miterlimit="10" stroke-linecap="round" stroke-linejoin="round"/>
<path d="M302.854 540.991C302.957 540.991 302.957 540.991 303.06 540.991C308.118 540.991 312.143 545.013 312.143 550.067" stroke="#074F79" stroke-width="4" stroke-miterlimit="10" stroke-linecap="round" stroke-linejoin="round"/>
<path d="M264.456 550.067H237" stroke="#074F79" stroke-width="4" stroke-miterlimit="10" stroke-linecap="round" stroke-linejoin="round"/>
<path d="M346.309 550.067H312.247" stroke="#074F79" stroke-width="4" stroke-miterlimit="10" stroke-linecap="round" stroke-linejoin="round"/>
<path d="M272.61 542.435C273.539 534.802 280.042 528.923 287.887 528.923C295.215 528.923 301.409 534.08 302.957 540.991" stroke="#074F79" stroke-width="4" stroke-miterlimit="10" stroke-linecap="round" stroke-linejoin="round"/>
<path d="M29.4561 687.067C29.4561 686.964 29.4561 686.861 29.4561 686.758C29.4561 682.632 32.759 679.332 36.8878 679.332C37.1975 679.332 37.404 679.332 37.7136 679.435" stroke="#074F79" stroke-width="4" stroke-miterlimit="10" stroke-linecap="round" stroke-linejoin="round"/>
<path d="M67.8535 677.991C67.9567 677.991 67.9567 677.991 68.06 677.991C73.1177 677.991 77.1432 682.013 77.1432 687.067" stroke="#074F79" stroke-width="4" stroke-miterlimit="10" stroke-linecap="round" stroke-linejoin="round"/>
<path d="M29.4562 687.067H2" stroke="#074F79" stroke-width="4" stroke-miterlimit="10" stroke-linecap="round" stroke-linejoin="round"/>
<path d="M111.309 687.067H77.2466" stroke="#074F79" stroke-width="4" stroke-miterlimit="10" stroke-linecap="round" stroke-linejoin="round"/>
<path d="M37.6104 679.435C38.5393 671.802 45.0421 665.923 52.8868 665.923C60.2153 665.923 66.4085 671.08 67.9568 677.991" stroke="#074F79" stroke-width="4" stroke-miterlimit="10" stroke-linecap="round" stroke-linejoin="round"/>
<path d="M1656.24 43.0001C1656.24 42.8001 1656.24 42.6001 1656.24 42.4001C1656.24 34.4 1662.65 28 1670.65 28C1671.25 28 1671.65 28 1672.25 28.2" stroke="#074F79" stroke-width="4" stroke-miterlimit="10" stroke-linecap="round" stroke-linejoin="round"/>
<path d="M1730.7 25.3999C1730.9 25.3999 1730.9 25.3999 1731.1 25.3999C1740.9 25.3999 1748.71 33.2 1748.71 43" stroke="#074F79" stroke-width="4" stroke-miterlimit="10" stroke-linecap="round" stroke-linejoin="round"/>
<path d="M1656.24 42.9995H1603" stroke="#074F79" stroke-width="4" stroke-miterlimit="10" stroke-linecap="round" stroke-linejoin="round"/>
<path d="M1814.96 42.9995H1748.91" stroke="#074F79" stroke-width="4" stroke-miterlimit="10" stroke-linecap="round" stroke-linejoin="round"/>
<path d="M1672.05 28.2002C1673.85 13.4001 1686.46 2 1701.67 2C1715.89 2 1727.89 12.0001 1730.9 25.4002" stroke="#074F79" stroke-width="4" stroke-miterlimit="10" stroke-linecap="round" stroke-linejoin="round"/>
<path d="M1221.91 451.494C1221.81 451.081 1221.81 450.669 1221.81 450.256C1221.81 444.893 1226.15 440.458 1231.62 440.458C1232.13 440.458 1232.65 440.458 1233.06 440.561C1234.51 435.61 1239.05 432 1244.42 432C1250.3 432 1255.15 436.332 1256.08 441.902C1258.97 442.933 1261.14 445.718 1261.14 449.018C1261.14 449.74 1261.03 450.462 1260.83 451.184" stroke="#074F79" stroke-width="4" stroke-miterlimit="10" stroke-linecap="round" stroke-linejoin="round"/>
<path d="M1183 451.597H1221.81" stroke="#074F79" stroke-width="4" stroke-miterlimit="10" stroke-linecap="round" stroke-linejoin="round"/>
<path d="M1260.83 451.391H1279.82" stroke="#074F79" stroke-width="4" stroke-miterlimit="10" stroke-linecap="round" stroke-linejoin="round"/>
<path d="M1550.64 387.144C1550.64 386.972 1550.64 386.801 1550.64 386.629C1550.64 379.772 1556.13 374.286 1562.99 374.286C1563.5 374.286 1563.85 374.286 1564.36 374.458" stroke="#074F79" stroke-width="4" stroke-miterlimit="10" stroke-linecap="round" stroke-linejoin="round"/>
<path d="M1614.46 372.058C1614.63 372.058 1614.63 372.058 1614.8 372.058C1623.21 372.058 1629.9 378.744 1629.9 387.144" stroke="#074F79" stroke-width="4" stroke-miterlimit="10" stroke-linecap="round" stroke-linejoin="round"/>
<path d="M1550.64 387.144H1505" stroke="#074F79" stroke-width="4" stroke-miterlimit="10" stroke-linecap="round" stroke-linejoin="round"/>
<path d="M1686.69 387.144H1630.07" stroke="#074F79" stroke-width="4" stroke-miterlimit="10" stroke-linecap="round" stroke-linejoin="round"/>
<path d="M1564.19 374.458C1565.73 361.772 1576.54 352 1589.58 352C1601.76 352 1612.06 360.572 1614.63 372.058" stroke="#074F79" stroke-width="4" stroke-miterlimit="10" stroke-linecap="round" stroke-linejoin="round"/>
<path d="M715.449 616.923C715.449 616.752 715.449 616.582 715.449 616.411C715.449 609.582 720.916 604.118 727.751 604.118C728.263 604.118 728.605 604.118 729.118 604.289" stroke="#074F79" stroke-width="4" stroke-miterlimit="10" stroke-linecap="round" stroke-linejoin="round"/>
<path d="M779.009 601.899C779.18 601.899 779.18 601.899 779.351 601.899C787.723 601.899 794.387 608.558 794.387 616.923" stroke="#074F79" stroke-width="4" stroke-miterlimit="10" stroke-linecap="round" stroke-linejoin="round"/>
<path d="M715.449 616.923H670" stroke="#074F79" stroke-width="4" stroke-miterlimit="10" stroke-linecap="round" stroke-linejoin="round"/>
<path d="M850.942 616.923H794.558" stroke="#074F79" stroke-width="4" stroke-miterlimit="10" stroke-linecap="round" stroke-linejoin="round"/>
<path d="M728.947 604.289C730.485 591.655 741.249 581.923 754.234 581.923C766.365 581.923 776.617 590.46 779.18 601.899" stroke="#074F79" stroke-width="4" stroke-miterlimit="10" stroke-linecap="round" stroke-linejoin="round"/>
</svg>
