<svg width="16" height="16" viewBox="0 0 16 16" fill="none" xmlns="http://www.w3.org/2000/svg">
<path fill-rule="evenodd" clip-rule="evenodd" d="M7.23768 5.55893C7.58308 5.09345 7.70693 4.60289 7.31629 4.16986C6.43966 2.94321 5.8501 2.18465 5.4803 1.81935C4.77726 1.12486 3.62074 1.2188 3.01186 1.81876C2.68482 2.141 2.57411 2.25166 2.23831 2.59273C0.367877 4.46417 1.50856 8.42033 4.54093 11.4557C7.5726 14.4903 11.5284 15.6316 13.4027 13.7562C13.7126 13.4575 13.975 13.195 14.1819 12.9763C14.7786 12.3456 14.8691 11.2401 14.1779 10.5219C13.8236 10.1537 13.1002 9.59263 11.822 8.67828C11.4305 8.32821 10.9663 8.40408 10.5407 8.68329C10.336 8.81759 10.187 8.95345 9.9057 9.23503L9.39487 9.74614C9.32759 9.81346 8.41399 9.35593 7.52714 8.46821C6.63981 7.58001 6.1826 6.66637 6.24956 6.5994L6.76075 6.08794C6.85 5.9986 6.89266 5.95535 6.94739 5.89784C7.06139 5.77802 7.15578 5.66928 7.23768 5.55893ZM10.3372 10.6888L10.8481 10.1776C11.0029 10.0226 11.1032 9.92736 11.1849 9.86166C12.3046 10.6658 12.9532 11.1714 13.218 11.4467C13.3771 11.6119 13.3524 11.9134 13.2141 12.0596C13.0228 12.2618 12.7742 12.5105 12.4692 12.8047C11.2571 14.0173 8.06393 13.096 5.48342 10.5129C2.9021 7.92908 1.98126 4.73539 3.18413 3.53186C3.51858 3.19218 3.62454 3.08628 3.94691 2.76864C4.06778 2.64954 4.39702 2.62279 4.54405 2.76804C4.82876 3.04929 5.3569 3.72553 6.13381 4.80775C6.09359 4.85769 6.04335 4.91411 5.98222 4.97836C5.93736 5.02552 5.89997 5.06341 5.81825 5.14521L5.30758 5.65617C4.43881 6.52486 5.17868 8.00334 6.58465 9.41069C7.98966 10.8171 9.46869 11.5578 10.3372 10.6888Z" fill="#008DD2"/>
</svg>
