<svg width="12" height="12" viewBox="0 0 12 12" fill="none" xmlns="http://www.w3.org/2000/svg">
<path fill-rule="evenodd" clip-rule="evenodd" d="M6.01596 11.0961C3.0999 11.0961 0.735962 8.7322 0.735962 5.81613C0.735962 2.90007 3.0999 0.536133 6.01596 0.536133C8.93203 0.536133 11.296 2.90007 11.296 5.81613C11.296 8.7322 8.93203 11.0961 6.01596 11.0961ZM6.01596 10.1361C8.40183 10.1361 10.336 8.20202 10.336 5.81615C10.336 3.43028 8.40183 1.49615 6.01596 1.49615C3.63009 1.49615 1.69596 3.43028 1.69596 5.81615C1.69596 8.20202 3.63009 10.1361 6.01596 10.1361ZM8.41596 5.33615H6.49596V2.93615H5.53596V6.29615H8.41596V5.33615Z" fill="#008DD2"/>
</svg>
