<svg width="22" height="27" viewBox="0 0 22 27" fill="none" xmlns="http://www.w3.org/2000/svg">
<path d="M18.0365 8.86175C17.6247 8.86175 17.291 8.52591 17.291 8.11208C17.291 7.69801 17.625 7.36241 18.0365 7.36241C18.7657 7.36241 19.4302 7.66368 19.9132 8.14874L19.9146 8.14734C20.396 8.63148 20.6952 9.30034 20.6952 10.0362V11.0755C20.6952 11.8114 20.396 12.48 19.9146 12.9644L19.867 13.0083C19.3884 13.4667 18.7427 13.7493 18.0365 13.7493C17.6247 13.7493 17.291 13.4135 17.291 12.9997C17.291 12.5856 17.625 12.25 18.0365 12.25C18.3437 12.25 18.6234 12.1306 18.831 11.9361L18.8605 11.9046C19.0723 11.6916 19.2042 11.398 19.2042 11.0757V10.0365C19.2042 9.71441 19.0725 9.42085 18.8605 9.20763V9.20482C18.6505 8.99347 18.3586 8.86222 18.0365 8.86222V8.86175Z" fill="#22B0F5" stroke="#F1F1F1" stroke-width="0.6"/>
<path d="M21.1931 25.8323C21.1931 26.2464 20.8592 26.582 20.4476 26.582C20.0359 26.582 19.7021 26.2462 19.7021 25.8323V24.5446C19.7021 23.5719 19.4448 22.6608 18.9959 21.8771C18.5279 21.0604 17.8521 20.3763 17.0423 19.8994C16.6886 19.6909 16.5699 19.2334 16.7773 18.8774C16.9847 18.5218 17.4397 18.4024 17.7936 18.611C18.8245 19.2179 19.6859 20.0905 20.2832 21.1332C20.8617 22.1431 21.1933 23.3089 21.1933 24.5443V25.8321L21.1931 25.8323ZM2.26197 25.8323C2.26197 26.2464 1.92801 26.582 1.51648 26.582C1.10472 26.582 0.770996 26.2462 0.770996 25.8323V24.5446C0.770996 22.6538 1.53994 20.935 2.77847 19.6895C4.01699 18.444 5.72627 17.6707 7.60647 17.6707H12.4384C12.8502 17.6707 13.1839 18.0066 13.1839 18.4204C13.1839 18.8345 12.8499 19.1701 12.4384 19.1701H7.60647C6.13756 19.1701 4.80126 19.7749 3.8326 20.7493C2.8637 21.7236 2.2622 23.0674 2.2622 24.5443V25.8321L2.26197 25.8323Z" fill="#374148" stroke="#F1F1F1" stroke-width="0.6"/>
<path d="M15.8645 10.3467C15.8645 8.97414 15.3181 7.73356 14.4346 6.83746C13.5519 5.94229 12.3313 5.38833 10.9819 5.38833C9.63311 5.38833 8.412 5.94229 7.52926 6.83746C6.64583 7.73333 6.09937 8.9739 6.09937 10.3464C6.09937 11.7187 6.64583 12.9591 7.52926 13.8549C8.412 14.7501 9.63288 15.3041 10.9819 15.3041C12.3313 15.3041 13.5519 14.7501 14.4346 13.8549C15.3181 12.9591 15.8645 11.7187 15.8645 10.3462V10.3467ZM15.4888 5.78325C16.6421 6.95306 17.3555 8.56684 17.3555 10.3467C17.3555 12.1263 16.6418 13.7403 15.4888 14.9096C14.3348 16.0799 12.7414 16.8039 10.9819 16.8039C9.22298 16.8039 7.62935 16.0799 6.47513 14.9096C5.32183 13.74 4.6084 12.1265 4.6084 10.3467C4.6084 8.56661 5.32183 6.95306 6.47513 5.78325C7.62935 4.61297 9.22274 3.88899 10.9819 3.88899C12.7414 3.88899 14.3348 4.61297 15.4888 5.78325Z" fill="#374148" stroke="#F1F1F1" stroke-width="0.6"/>
<path d="M19.2438 5.69374C19.4415 6.05596 19.31 6.51114 18.9496 6.70988C18.5894 6.90863 18.1367 6.77644 17.9391 6.41399C17.2368 5.13277 16.2194 4.09468 15.0169 3.37747C13.8157 2.66096 12.4272 2.26394 10.981 2.26394C9.54392 2.26394 8.16489 2.65419 6.97095 3.36019C5.77608 4.06665 4.76097 5.0919 4.05265 6.3605C3.85153 6.72109 3.39773 6.84954 3.03939 6.64729C2.68081 6.44505 2.55308 5.9887 2.7542 5.62835C3.59165 4.12854 4.7972 2.91319 6.21989 2.07197C7.64375 1.23005 9.28126 0.764597 10.9812 0.764597C12.6961 0.764597 14.3452 1.23659 15.7742 2.08902C17.2022 2.94098 18.4103 4.17315 19.2438 5.69351V5.69374Z" fill="#22B0F5" stroke="#F1F1F1" stroke-width="0.6"/>
<path d="M17.2768 17.4927C16.9714 17.7692 16.5004 17.7442 16.2255 17.4371C15.9505 17.13 15.9753 16.6563 16.2807 16.3798C16.5706 16.1176 16.8414 15.8336 17.0905 15.5311C17.3469 15.2201 17.575 14.8994 17.7722 14.5729C17.9844 14.2205 18.4408 14.1077 18.7912 14.3209C19.1417 14.5344 19.2538 14.9933 19.0418 15.3457C18.7945 15.7551 18.5256 16.1365 18.2378 16.4856C17.9431 16.8434 17.6217 17.1802 17.2768 17.4924V17.4927Z" fill="#22B0F5" stroke="#F1F1F1" stroke-width="0.6"/>
<path d="M15.1827 18.9261C14.8162 19.1104 14.3701 18.9609 14.1869 18.5922C14.0036 18.2236 14.1523 17.775 14.519 17.5907L14.6957 17.4987V17.4959L14.8738 17.4013C15.2308 17.1991 15.6834 17.3264 15.8843 17.6853C16.0854 18.0443 15.9588 18.4994 15.6019 18.7015L15.3945 18.8194L15.3933 18.8171L15.1829 18.9261H15.1827Z" fill="#22B0F5" stroke="#F1F1F1" stroke-width="0.6"/>
<path d="M3.92722 7.36177C4.33898 7.36177 4.6727 7.69761 4.6727 8.11145C4.6727 8.52552 4.33875 8.86112 3.92722 8.86112C3.6051 8.86112 3.31318 8.99237 3.10324 9.20372V9.20652C2.89144 9.41952 2.75952 9.71308 2.75952 10.0354V11.0746C2.75952 11.3967 2.8912 11.6902 3.10324 11.9035L3.13273 11.935C3.34035 12.1295 3.61997 12.2489 3.92722 12.2489C4.33898 12.2489 4.6727 12.5847 4.6727 12.9986C4.6727 13.4126 4.33875 13.7482 3.92722 13.7482C3.22098 13.7482 2.57536 13.4656 2.09672 13.0072L2.04911 12.9633C1.56768 12.4792 1.26855 11.8103 1.26855 11.0744V10.0351C1.26855 9.29924 1.56768 8.63061 2.04911 8.14624L2.0505 8.14764C2.53356 7.66258 3.19799 7.36131 3.92722 7.36131V7.36177Z" fill="#22B0F5" stroke="#F1F1F1" stroke-width="0.6"/>
<path d="M11.9225 25.5597C11.9225 26.1116 11.4773 26.5592 10.9285 26.5592C10.3798 26.5592 9.93457 26.1116 9.93457 25.5597V22.4839C9.93457 21.9321 10.3798 21.4844 10.9285 21.4844C11.4773 21.4844 11.9225 21.9321 11.9225 22.4839V25.5597Z" fill="#374148" stroke="#F1F1F1" stroke-width="0.6"/>
<path d="M10.3805 21.1765C9.96874 21.1765 9.63501 20.8407 9.63501 20.4269C9.63501 20.0128 9.96897 19.6772 10.3805 19.6772H11.5542C11.966 19.6772 12.2997 20.013 12.2997 20.4269C12.2997 20.8409 11.9658 21.1765 11.5542 21.1765H10.3805Z" fill="#374148" stroke="#F1F1F1" stroke-width="0.6"/>
</svg>
