<svg width="20" height="26" viewBox="0 0 20 26" fill="none" xmlns="http://www.w3.org/2000/svg">
<path d="M16.0038 15.7501C15.6115 15.6272 15.3925 15.2075 15.5147 14.8131C15.6368 14.4186 16.0542 14.1984 16.4464 14.3212C17.1311 14.5363 17.6736 14.7881 18.0565 15.0637C18.5821 15.4418 18.8566 15.8909 18.8566 16.3928C18.8566 17.3753 17.6991 18.1623 15.828 18.6406C14.2473 19.0444 12.0761 19.2943 9.69012 19.2943C7.30411 19.2943 5.13291 19.0444 3.55229 18.6406C1.68115 18.1625 0.523682 17.3753 0.523682 16.3928C0.523682 15.9145 0.77403 15.4836 1.25592 15.1155C1.60753 14.8469 2.10337 14.6013 2.72948 14.389C3.11871 14.258 3.53976 14.4691 3.67005 14.8605C3.80033 15.2519 3.59039 15.6753 3.20116 15.8063C2.72646 15.9673 2.37369 16.1356 2.15283 16.3045C2.06203 16.3738 2.01488 16.3813 2.01488 16.3928C2.01488 16.5985 2.74272 16.8874 3.91924 17.1882C5.38629 17.563 7.42603 17.795 9.69012 17.795C11.9544 17.795 13.9942 17.563 15.461 17.1882C16.6375 16.8876 17.3654 16.5985 17.3654 16.3928C17.3654 16.3851 17.3066 16.3624 17.1945 16.2818C16.9397 16.0985 16.5386 15.9182 16.0038 15.7503V15.7501Z" fill="#374148" stroke="#F1F1F1" stroke-width="0.6"/>
<path d="M17.5629 19.374C17.9215 19.1736 18.3739 19.3032 18.5734 19.6638C18.7727 20.0244 18.6438 20.4793 18.2852 20.6799C17.4596 21.1412 16.199 21.5135 14.6881 21.7657C13.2138 22.0116 11.4892 22.1496 9.69539 22.1496C7.88834 22.1496 6.15423 22.01 4.67533 21.7615C3.16183 21.5071 1.90031 21.1302 1.07796 20.6631C0.721007 20.4609 0.594433 20.0059 0.795551 19.647C0.99667 19.288 1.44907 19.1608 1.80602 19.363C2.47115 19.7409 3.56499 20.058 4.91987 20.2857C6.30936 20.519 7.95825 20.6503 9.69539 20.6503C11.4244 20.6503 13.0654 20.5207 14.4495 20.2899C15.7968 20.0653 16.8895 19.7507 17.5632 19.3742L17.5629 19.374Z" fill="#374148" stroke="#F1F1F1" stroke-width="0.6"/>
<path d="M9.54171 1.26776C11.6816 1.26776 13.6198 2.14051 15.0225 3.55087C16.4252 4.96147 17.2929 6.91014 17.2929 9.06247C17.2929 11.2146 16.425 13.1635 15.0225 14.5738C13.6198 15.9844 11.6818 16.8569 9.54194 16.8569C7.40187 16.8569 5.4636 15.9842 4.06088 14.5738C2.65816 13.1632 1.79053 11.2146 1.79053 9.06247C1.79053 6.91038 2.6584 4.96123 4.06088 3.55087C5.4636 2.14051 7.40164 1.26776 9.54194 1.26776H9.54171ZM13.9684 4.61092C12.8358 3.47193 11.2705 2.7671 9.54171 2.7671C7.81269 2.7671 6.2474 3.4717 5.11478 4.61069C3.98215 5.74967 3.28126 7.32375 3.28126 9.06247C3.28126 10.8007 3.98192 12.3748 5.11478 13.5138C6.2474 14.6528 7.81292 15.3574 9.54171 15.3574C11.2705 15.3574 12.8358 14.6528 13.9682 13.5138C15.1008 12.3748 15.8017 10.8007 15.8017 9.06247C15.8017 7.32375 15.101 5.7499 13.9684 4.61092Z" fill="#374148" stroke="#F1F1F1" stroke-width="0.6"/>
<path d="M8.80459 4.68346C8.80621 4.27102 9.13993 3.93822 9.55006 3.93963C9.9602 3.94126 10.2911 4.27686 10.2897 4.6893L10.2879 4.92938C10.2863 5.34181 9.95254 5.67461 9.54241 5.67321C9.13228 5.67157 8.80133 5.33597 8.80273 4.92354L8.80459 4.68346ZM7.02146 11.3476C6.79642 11.0017 6.8928 10.5374 7.23698 10.3109C7.58093 10.0846 8.04261 10.1815 8.26788 10.5276C8.33244 10.6269 8.41907 10.7081 8.51893 10.7628C8.61159 10.8135 8.72191 10.8424 8.84244 10.8424H10.3046C10.4407 10.8424 10.5654 10.7857 10.6558 10.6948C10.7461 10.604 10.8025 10.4786 10.8025 10.3417C10.8025 10.3027 10.8016 10.2773 10.7997 10.2654C10.7958 10.2397 10.79 10.2144 10.7826 10.1913C10.6971 9.92064 10.1056 9.88584 9.51314 9.85128C8.50221 9.79196 7.48873 9.73241 6.99313 8.71043C6.9288 8.58058 6.87864 8.43788 6.84404 8.28631C6.81036 8.13801 6.79224 7.98831 6.79224 7.84048C6.79224 7.28956 7.01588 6.78931 7.37609 6.42732C7.73605 6.06533 8.23375 5.84043 8.78136 5.84043H10.2435C10.6133 5.84043 10.9663 5.93758 11.2777 6.1076C11.5972 6.28205 11.8685 6.53311 12.0643 6.83462C12.2893 7.18049 12.1929 7.64477 11.8488 7.87131C11.5048 8.09761 11.0431 8.00069 10.8179 7.65458C10.7533 7.55533 10.6667 7.47405 10.5668 7.41964C10.4739 7.36896 10.3638 7.34 10.2433 7.34H8.78113C8.6448 7.34 8.52032 7.39652 8.42998 7.4876C8.33964 7.57845 8.28321 7.70386 8.28321 7.84072C8.28321 7.88415 8.28693 7.92175 8.29413 7.95282C8.30156 7.98504 8.31433 8.02008 8.33152 8.05534V8.05838C8.44369 8.29052 9.01987 8.32438 9.59466 8.35801C10.6994 8.42247 11.8023 8.48763 12.1978 9.74035C12.2285 9.8368 12.2517 9.93629 12.2675 10.0372C12.2847 10.1493 12.2937 10.2516 12.2937 10.342C12.2937 10.8924 12.0701 11.3931 11.7099 11.7551C11.3497 12.1173 10.852 12.3422 10.3046 12.3422H8.84244C8.47272 12.3422 8.11948 12.2451 7.80828 12.0751C7.48849 11.9004 7.21747 11.6491 7.0217 11.3481L7.02146 11.3476ZM10.2921 13.3955C10.2921 13.8096 9.95811 14.1452 9.54658 14.1452C9.13482 14.1452 8.8011 13.8094 8.8011 13.3955V13.2346C8.8011 12.8205 9.13506 12.4849 9.54658 12.4849C9.95834 12.4849 10.2921 12.8208 10.2921 13.2346V13.3955Z" fill="#22B0F5" stroke="#F1F1F1" stroke-width="0.6"/>
<path d="M17.5632 22.2305C17.9218 22.0301 18.3742 22.1597 18.5737 22.5203C18.7729 22.8809 18.644 23.3358 18.2854 23.5364C17.4598 23.9979 16.1992 24.3699 14.6881 24.6222C13.2138 24.8681 11.4894 25.0061 9.6954 25.0061C7.88835 25.0061 6.15423 24.8664 4.6751 24.618C3.1616 24.3639 1.90008 23.9867 1.07796 23.5196C0.721007 23.3174 0.594433 22.8624 0.795551 22.5035C0.99667 22.1445 1.44908 22.0172 1.80603 22.2195C2.47093 22.5973 3.56477 22.9147 4.91965 23.1422C6.30913 23.3757 7.95803 23.5068 9.6954 23.5068C11.4244 23.5068 13.0654 23.3771 14.4493 23.1464C15.7968 22.9215 16.8895 22.6072 17.5632 22.2307V22.2305Z" fill="#374148" stroke="#F1F1F1" stroke-width="0.6"/>
</svg>
