<svg width="14" height="14" viewBox="0 0 14 14" fill="none" xmlns="http://www.w3.org/2000/svg">
<path fill-rule="evenodd" clip-rule="evenodd" d="M7.79505 1.4879C8.38541 1.19894 8.9004 1.10376 9.69932 1.10377C11.7438 1.11224 13.2571 2.83654 13.2571 5.033C13.2571 6.70952 12.3223 8.32899 10.5812 9.89498C9.66725 10.717 8.50036 11.5304 7.66467 11.9632L7.18653 12.2108L6.7084 11.9632C5.87271 11.5304 4.70582 10.717 3.79189 9.89498C2.05074 8.32899 1.11597 6.70952 1.11597 5.033C1.11597 2.81305 2.61509 1.10376 4.67803 1.10376C5.4483 1.10376 5.9897 1.20794 6.59151 1.50559C6.80104 1.60923 6.9979 1.73215 7.181 1.87404C7.37143 1.72373 7.57649 1.59489 7.79505 1.4879Z" fill="#DADADA"/>
</svg>
