<svg width="301" height="141" viewBox="0 0 301 141" fill="none" xmlns="http://www.w3.org/2000/svg">
<path d="M181.797 116.149L177.245 122.941C177.029 123.302 176.595 123.519 176.162 123.519H146.177L143.071 127.637C142.782 127.998 142.42 128.143 142.059 128.143H139.53C138.663 128.143 137.868 127.854 137.146 127.42C136.423 126.987 135.918 126.264 135.556 125.47C135.34 125.036 135.123 124.603 134.906 124.241C134.617 123.808 134.328 123.447 134.039 123.085C133.172 122.146 132.161 121.424 131.005 120.918C129.849 120.412 128.62 120.123 127.32 120.123C126.019 120.123 124.791 120.412 123.635 120.918C122.479 121.424 121.395 122.218 120.6 123.085L120.528 123.158C120.239 123.519 119.95 123.88 119.661 124.241C119.372 124.675 119.155 125.108 118.939 125.542C118.577 126.337 118.072 126.987 117.349 127.42C116.699 127.854 115.904 128.143 115.037 128.143H114.965C114.098 128.143 113.303 127.854 112.581 127.42L112.508 127.348C111.858 126.915 111.352 126.192 110.991 125.47C110.774 125.036 110.557 124.603 110.341 124.241C110.124 123.88 109.835 123.447 109.474 123.085C108.607 122.074 107.595 121.279 106.367 120.701C105.211 120.195 103.91 119.906 102.538 119.906C101.165 119.906 99.8643 120.195 98.7083 120.701C97.48 121.279 96.4685 122.074 95.6015 123.085C95.3125 123.447 94.9512 123.88 94.7345 124.314C94.4455 124.747 94.2287 125.181 94.0842 125.686C93.7952 126.409 93.2894 127.059 92.6392 127.493C91.9889 127.926 91.2664 128.215 90.3994 128.215H88.2319C87.7261 128.215 87.2926 127.926 87.0758 127.493L84.6915 123.591H65.0392C64.3167 123.591 63.7387 123.013 63.7387 122.291V115.499C63.7387 114.777 64.3167 114.199 65.0392 114.199H99.7921V111.742C99.7921 111.019 100.37 110.441 101.093 110.441H109.546C110.268 110.441 110.846 111.019 110.846 111.742V114.199H165.757V111.742C165.757 111.019 166.335 110.441 167.058 110.441H175.15C175.873 110.441 176.451 111.019 176.451 111.742V114.199H180.786C181.508 114.199 182.086 114.777 182.086 115.499C182.014 115.716 181.942 115.933 181.797 116.149ZM44.5198 137.897C45.2424 137.897 45.8204 138.475 45.8204 139.197C45.8204 139.92 45.2424 140.498 44.5198 140.498H37.5837C36.8612 140.498 36.2832 139.92 36.2832 139.197C36.2832 138.475 36.8612 137.897 37.5837 137.897H44.5198ZM74.9376 137.897C75.6601 137.897 76.2381 138.475 76.2381 139.197C76.2381 139.92 75.6601 140.498 74.9376 140.498H50.0109C49.2884 140.498 48.7104 139.92 48.7104 139.197C48.7104 138.475 49.2884 137.897 50.0109 137.897H74.9376ZM298.844 137.897C299.567 137.897 300.145 138.475 300.145 139.197C300.145 139.92 299.567 140.498 298.844 140.498H80.6455C79.923 140.498 79.3449 139.92 79.3449 139.197C79.3449 138.475 79.923 137.897 80.6455 137.897H199.427C197.114 137.897 194.947 136.958 193.43 135.44C191.912 133.923 190.973 131.756 190.973 129.444C190.973 127.131 191.912 124.964 193.43 123.447C194.947 121.929 197.114 120.99 199.427 120.99C201.739 120.99 203.906 121.929 205.423 123.447C206.941 124.964 207.88 127.131 207.88 129.444C207.88 131.756 206.941 133.923 205.423 135.44C203.906 136.958 201.739 137.897 199.427 137.897H257.083C254.771 137.897 252.603 136.958 251.086 135.44C249.569 133.923 248.63 131.756 248.63 129.444C248.63 127.131 249.569 124.964 251.086 123.447C252.603 121.929 254.771 120.99 257.083 120.99C259.395 120.99 261.563 121.929 263.08 123.447C264.597 124.964 265.536 127.131 265.536 129.444C265.536 131.756 264.597 133.923 263.08 135.44C261.563 136.958 259.395 137.897 257.083 137.897H298.844ZM107.306 128.938C107.306 130.166 106.8 131.322 105.933 132.189C105.139 132.984 103.983 133.562 102.682 133.562C101.382 133.562 100.298 133.056 99.4308 132.189C98.636 131.394 98.058 130.238 98.058 128.938C98.058 127.637 98.5638 126.553 99.4308 125.686C100.226 124.892 101.382 124.314 102.682 124.314C103.91 124.314 105.066 124.819 105.933 125.686C106.8 126.481 107.306 127.637 107.306 128.938ZM104.127 130.311C104.488 129.949 104.705 129.444 104.705 128.866C104.705 128.287 104.488 127.782 104.127 127.42C103.766 127.059 103.26 126.842 102.682 126.842C102.104 126.842 101.598 127.059 101.237 127.42C100.876 127.782 100.659 128.287 100.659 128.866C100.659 129.444 100.876 129.949 101.237 130.311C101.598 130.672 102.104 130.889 102.682 130.889C103.26 130.889 103.766 130.672 104.127 130.311ZM111.28 128.938C111.28 131.25 110.341 133.417 108.823 134.935C107.306 136.452 105.139 137.391 102.827 137.391C100.515 137.391 98.347 136.452 96.8297 134.935C95.3125 133.417 94.3732 131.25 94.3732 128.938C94.3732 126.626 95.3125 124.458 96.8297 122.941C98.347 121.424 100.515 120.484 102.827 120.484C105.139 120.484 107.306 121.424 108.823 122.941C110.268 124.53 111.28 126.626 111.28 128.938ZM106.945 133.128C108.029 132.045 108.679 130.6 108.679 128.938C108.679 127.348 108.029 125.831 106.945 124.747C105.861 123.663 104.416 123.013 102.754 123.013C101.165 123.013 99.6475 123.663 98.5638 124.747C97.48 125.831 96.8297 127.276 96.8297 128.938C96.8297 130.527 97.48 132.045 98.5638 133.128C99.6475 134.212 101.093 134.862 102.754 134.862C104.416 134.862 105.861 134.212 106.945 133.128ZM131.727 128.938C131.727 130.166 131.221 131.322 130.354 132.189C129.56 132.984 128.404 133.562 127.103 133.562C125.875 133.562 124.719 133.056 123.852 132.189C122.985 131.322 122.479 130.238 122.479 128.938C122.479 127.637 122.985 126.553 123.852 125.686C124.646 124.892 125.803 124.314 127.103 124.314C128.404 124.314 129.487 124.819 130.354 125.686L130.427 125.759C131.221 126.553 131.727 127.709 131.727 128.938ZM128.548 130.311C128.909 129.949 129.126 129.444 129.126 128.866C129.126 128.36 128.909 127.854 128.62 127.493L128.548 127.42C128.187 127.059 127.681 126.842 127.103 126.842C126.525 126.842 126.019 127.059 125.658 127.42C125.297 127.782 125.08 128.287 125.08 128.866C125.08 129.444 125.297 129.949 125.658 130.311C126.019 130.672 126.525 130.889 127.103 130.889C127.681 130.889 128.187 130.672 128.548 130.311ZM135.629 128.938C135.629 131.25 134.689 133.417 133.172 134.935C131.655 136.452 129.487 137.391 127.175 137.391C124.863 137.391 122.696 136.452 121.178 134.935C119.661 133.417 118.722 131.25 118.722 128.938C118.722 126.626 119.661 124.458 121.178 122.941C122.696 121.424 124.863 120.484 127.175 120.484C129.487 120.484 131.655 121.424 133.172 122.941C134.689 124.53 135.629 126.626 135.629 128.938ZM131.366 133.128C132.45 132.045 133.1 130.6 133.1 128.938C133.1 127.348 132.45 125.831 131.366 124.747C130.282 123.663 128.837 123.013 127.175 123.013C125.586 123.013 124.068 123.663 122.985 124.747C121.901 125.831 121.251 127.276 121.251 128.938C121.251 130.527 121.901 132.045 122.985 133.128C124.068 134.212 125.513 134.862 127.175 134.862C128.837 134.862 130.282 134.212 131.366 133.128ZM196.392 114.126V112.826H205.134V114.126H234.685L235.263 76.8446C235.263 75.9776 235.624 75.2551 236.202 74.6771C236.78 74.0991 237.503 73.8101 238.37 73.8101H238.442L257.589 75.3996C263.224 75.8331 268.065 78.3619 271.678 82.119C275.363 85.9483 277.747 91.0781 278.253 96.786C278.253 96.8582 278.253 96.8582 278.253 96.9305L279.625 127.926V128.215C279.625 129.805 278.975 131.25 277.964 132.261C276.952 133.345 275.579 133.995 273.99 134.068H273.701H267.632C266.909 134.068 266.331 133.49 266.331 132.767V128.793C266.331 128.504 266.331 128.721 266.331 128.577C266.259 125.903 265.175 123.447 263.369 121.64C261.635 119.834 259.251 118.75 256.577 118.75C256.361 118.75 256.505 118.75 256.361 118.75C253.687 118.823 251.303 119.906 249.641 121.64C247.907 123.374 246.896 125.759 246.896 128.432V132.695C246.896 133.417 246.318 133.995 245.595 133.995H210.481C209.758 133.995 209.18 133.417 209.18 132.695V130.455C209.18 130.166 209.18 130.383 209.18 130.238C209.108 127.565 208.024 125.108 206.218 123.302C204.484 121.496 202.1 120.412 199.427 120.412C199.21 120.412 199.354 120.412 199.21 120.412C196.536 120.484 194.152 121.568 192.49 123.302C190.756 125.036 189.745 127.42 189.745 130.094V130.816C189.745 131.683 189.384 132.478 188.806 133.056C188.228 133.634 187.433 133.995 186.566 133.995H185.193C184.471 133.995 183.893 133.417 183.893 132.695V120.701C183.893 118.895 184.615 117.233 185.843 116.005C187.072 114.777 188.661 114.054 190.54 114.054L196.392 114.126ZM261.635 129.371C261.635 130.672 261.129 131.756 260.262 132.623L260.19 132.695C259.395 133.49 258.239 133.995 257.011 133.995C255.783 133.995 254.626 133.49 253.759 132.623C252.965 131.828 252.387 130.672 252.387 129.371C252.387 128.071 252.892 126.987 253.759 126.12C254.554 125.325 255.71 124.747 257.011 124.747C258.239 124.747 259.395 125.253 260.262 126.12C261.057 126.987 261.635 128.143 261.635 129.371ZM258.456 130.816C258.817 130.455 259.034 129.949 259.034 129.371C259.034 128.793 258.817 128.287 258.456 127.926C258.095 127.565 257.589 127.348 257.011 127.348C256.433 127.348 255.927 127.565 255.566 127.926C255.204 128.287 254.988 128.793 254.988 129.371C254.988 129.949 255.204 130.455 255.566 130.816C255.927 131.178 256.433 131.394 257.011 131.394C257.517 131.394 258.022 131.178 258.456 130.816ZM261.201 133.634C262.285 132.55 262.935 131.105 262.935 129.444C262.935 127.854 262.285 126.337 261.201 125.253C260.118 124.169 258.673 123.519 257.011 123.519C255.421 123.519 253.904 124.169 252.82 125.253C251.736 126.337 251.086 127.782 251.086 129.444C251.086 131.033 251.736 132.55 252.82 133.634C253.904 134.718 255.349 135.368 257.011 135.368C258.673 135.296 260.19 134.646 261.201 133.634ZM203.978 129.371C203.978 130.6 203.473 131.756 202.606 132.623C201.811 133.417 200.655 133.995 199.354 133.995C198.126 133.995 196.97 133.49 196.103 132.623C195.308 131.828 194.73 130.672 194.73 129.371C194.73 128.071 195.236 126.987 196.103 126.12L196.175 126.048C196.97 125.253 198.126 124.747 199.354 124.747C200.655 124.747 201.739 125.253 202.606 126.12L202.678 126.192C203.473 127.059 203.978 128.143 203.978 129.371ZM200.799 130.816C201.161 130.455 201.377 129.949 201.377 129.371C201.377 128.866 201.161 128.36 200.872 127.998L200.799 127.926C200.438 127.565 199.932 127.348 199.354 127.348C198.849 127.348 198.343 127.565 197.982 127.854L197.909 127.926C197.548 128.287 197.331 128.793 197.331 129.371C197.331 129.949 197.548 130.455 197.909 130.816C198.271 131.178 198.776 131.394 199.354 131.394C199.932 131.394 200.438 131.178 200.799 130.816ZM203.617 133.634C204.701 132.55 205.351 131.105 205.351 129.444C205.351 127.854 204.701 126.337 203.617 125.253C202.533 124.169 201.088 123.519 199.427 123.519C197.837 123.519 196.32 124.169 195.236 125.253C194.152 126.337 193.502 127.782 193.502 129.444C193.502 131.033 194.152 132.55 195.236 133.634C196.32 134.718 197.765 135.368 199.427 135.368C201.088 135.296 202.533 134.646 203.617 133.634ZM259.467 100.615V87.8991C259.467 87.1765 260.045 86.5985 260.768 86.5985H266.114C267.848 86.5985 269.51 87.2488 270.811 88.2603C272.111 89.3441 273.051 90.7891 273.412 92.5231L274.712 98.809C274.785 99.0257 274.785 99.1702 274.785 99.3147C274.785 99.8928 274.568 100.471 274.207 100.904C273.845 101.338 273.34 101.699 272.762 101.771C272.545 101.844 272.4 101.844 272.256 101.844H260.912C260.045 101.916 259.467 101.338 259.467 100.615ZM262.068 89.1996V99.3147H272.111C271.678 97.2195 271.317 95.1242 270.811 93.0289C270.594 91.8729 269.944 90.9336 269.149 90.2833C268.282 89.6331 267.27 89.1996 266.114 89.1996H262.068ZM273.845 131.394H273.99C274.857 131.322 275.652 130.961 276.23 130.383C276.808 129.805 277.169 129.01 277.169 128.143V127.998L275.796 97.0027C275.363 91.8729 273.195 87.321 269.944 83.853C266.765 80.5294 262.43 78.3619 257.517 77.9284L238.298 76.3389C238.153 76.3389 238.081 76.4111 237.936 76.4834C237.864 76.5556 237.792 76.7001 237.792 76.8446L237.142 115.427C237.142 116.149 236.564 116.727 235.841 116.727H190.612C189.528 116.727 188.517 117.161 187.794 117.883C187.072 118.606 186.638 119.617 186.638 120.701V131.394H186.71C186.855 131.394 186.999 131.322 187.072 131.25C187.144 131.178 187.216 131.033 187.216 130.889V130.166C187.216 126.842 188.589 123.808 190.756 121.568C192.924 119.328 195.958 117.956 199.282 117.883C199.571 117.883 199.427 117.883 199.499 117.883C202.895 117.883 205.929 119.328 208.169 121.568C210.409 123.808 211.781 126.915 211.854 130.238C211.854 130.455 211.854 130.383 211.854 130.455V131.394H244.367V128.432C244.367 125.108 245.74 122.074 247.907 119.834C250.075 117.594 253.109 116.222 256.433 116.149C256.722 116.149 256.577 116.149 256.65 116.149C260.045 116.149 263.08 117.594 265.32 119.834C267.559 122.074 268.932 125.181 269.004 128.504C269.004 128.721 269.004 128.649 269.004 128.721V131.394H273.845ZM175.511 120.918L178.329 116.727H175.15C174.428 116.727 173.85 116.149 173.85 115.427V112.97H168.286V115.427C168.286 116.149 167.708 116.727 166.986 116.727H109.474C108.751 116.727 108.173 116.149 108.173 115.427V112.97H102.321V115.427C102.321 116.149 101.743 116.727 101.02 116.727H66.3397V120.918H85.5586C85.9921 120.918 86.4256 121.135 86.6423 121.568L89.0989 125.542H90.5439C90.8329 125.542 91.0496 125.47 91.2664 125.325C91.4832 125.181 91.6999 124.964 91.7722 124.675C91.9889 124.097 92.2779 123.519 92.6392 122.941C93.0004 122.363 93.3617 121.857 93.7952 121.351C94.879 120.051 96.2517 119.039 97.769 118.317C99.2863 117.594 100.948 117.233 102.682 117.233C104.416 117.233 106.078 117.594 107.595 118.317C109.112 119.039 110.485 120.051 111.569 121.351C111.93 121.785 112.292 122.291 112.653 122.796C112.942 123.302 113.231 123.88 113.52 124.386C113.664 124.675 113.881 124.964 114.098 125.181C114.387 125.325 114.676 125.47 114.965 125.47H115.037C115.398 125.47 115.687 125.397 115.904 125.181C116.193 124.964 116.41 124.747 116.554 124.386C116.771 123.808 117.132 123.23 117.421 122.724C117.71 122.218 118.072 121.785 118.505 121.279L118.577 121.207C119.661 119.979 121.034 119.039 122.479 118.389C123.924 117.739 125.513 117.378 127.175 117.378C128.837 117.378 130.427 117.739 131.872 118.389C133.389 119.039 134.689 120.051 135.773 121.207C136.207 121.713 136.568 122.146 136.929 122.652C137.29 123.158 137.579 123.736 137.796 124.241C137.941 124.603 138.157 124.892 138.519 125.036C138.808 125.253 139.097 125.325 139.458 125.325H141.337L144.371 121.279C144.588 120.918 145.021 120.701 145.455 120.701L175.511 120.918Z" fill="#3C464E"/>
<path d="M242.633 70.631V67.9577C242.633 65.3567 240.538 63.1892 237.865 63.1892H233.096C232.662 63.1892 232.373 62.8279 232.373 62.4667C232.373 62.0331 232.012 61.7441 231.651 61.7441H65.3286C64.8951 61.7441 64.6061 62.1054 64.6061 62.4667V112.103C64.6061 112.537 64.9673 112.826 65.3286 112.826H231.579C232.012 112.826 232.301 112.465 232.301 112.103V72.1483C232.301 71.7148 232.662 71.4258 233.024 71.4258H241.766C242.272 71.3536 242.633 71.0646 242.633 70.631ZM148.707 68.1023C148.707 67.3797 149.285 66.8017 150.007 66.8017C150.73 66.8017 151.308 67.3797 151.308 68.1023V83.3473L157.16 77.4949V70.1253C157.16 69.4028 157.738 68.8248 158.46 68.8248C159.183 68.8248 159.761 69.4028 159.761 70.1253V76.4111L159.833 76.4834H166.119C166.842 76.4834 167.42 77.0614 167.42 77.7839C167.42 78.5064 166.842 79.0844 166.119 79.0844H159.183L153.114 85.1535H168.359C169.081 85.1535 169.659 85.7316 169.659 86.4541C169.659 87.1766 169.081 87.7546 168.359 87.7546H153.258L159.038 93.5347H165.975C166.697 93.5347 167.275 94.1127 167.275 94.8352C167.275 95.5577 166.697 96.1357 165.975 96.1357H159.833C159.761 96.208 159.689 96.2802 159.616 96.2802V102.422C159.616 103.144 159.038 103.722 158.316 103.722C157.593 103.722 157.015 103.144 157.015 102.422V95.1965L151.235 89.4164V104.806C151.235 105.528 150.657 106.106 149.935 106.106C149.212 106.106 148.634 105.528 148.634 104.806V89.6331L142.782 95.4855V102.711C142.782 103.433 142.204 104.011 141.481 104.011C140.759 104.011 140.181 103.433 140.181 102.711V96.3525H133.823C133.1 96.3525 132.522 95.7745 132.522 95.052C132.522 94.3295 133.1 93.7514 133.823 93.7514H140.831L146.756 87.8268H131.583C130.86 87.8268 130.282 87.2488 130.282 86.5263C130.282 85.8038 130.86 85.2258 131.583 85.2258H146.9L140.903 79.2289H133.751C133.028 79.2289 132.45 78.6509 132.45 77.9284C132.45 77.2059 133.028 76.6279 133.751 76.6279H140.109V70.2698C140.109 69.5473 140.687 68.9693 141.409 68.9693C142.132 68.9693 142.71 69.5473 142.71 70.2698V77.4227L148.562 83.275L148.707 68.1023Z" fill="url(#paint0_linear)"/>
<path d="M64.7071 20.7908C64.7071 20.7293 64.7071 20.6678 64.7071 20.5449C64.7071 17.6562 66.6754 15.1977 69.3202 14.4602C69.7508 6.96181 75.9631 1 83.5901 1C88.7568 1 93.3084 3.7658 95.8302 7.88375C96.3838 7.76082 96.9989 7.76081 97.614 7.76081C103.396 7.76081 108.07 12.4319 108.07 18.2093C108.07 19.1313 107.947 19.9917 107.763 20.7908" stroke="#909FA8" stroke-width="2" stroke-miterlimit="10" stroke-linecap="round" stroke-linejoin="round"/>
<path d="M64.7071 21.0369H1.96875" stroke="#909FA8" stroke-width="2" stroke-miterlimit="10" stroke-linecap="round" stroke-linejoin="round"/>
<path d="M107.517 21.6514H180.342" stroke="#909FA8" stroke-width="2" stroke-miterlimit="10" stroke-linecap="round" stroke-linejoin="round"/>
<path d="M25.7717 14.7061H67.9048" stroke="#909FA8" stroke-width="2" stroke-miterlimit="10" stroke-linecap="round" stroke-linejoin="round"/>
<defs>
<linearGradient id="paint0_linear" x1="64.602" y1="87.331" x2="242.662" y2="87.331" gradientUnits="userSpaceOnUse">
<stop stop-color="#008DD2"/>
<stop offset="1" stop-color="#003C5F"/>
</linearGradient>
</defs>
</svg>
