<svg width="264" height="79" viewBox="0 0 264 79" fill="none" xmlns="http://www.w3.org/2000/svg">
<path d="M117.986 54.7664L122.538 61.558C122.755 61.9192 123.188 62.136 123.622 62.136H153.606L156.713 66.2543C157.002 66.6156 157.363 66.7601 157.724 66.7601H160.253C161.12 66.7601 161.915 66.4711 162.637 66.0376C163.36 65.6041 163.866 64.8815 164.227 64.0868C164.444 63.6533 164.66 63.2198 164.877 62.8585C165.166 62.425 165.455 62.0637 165.744 61.7025C166.611 60.7632 167.623 60.0407 168.779 59.535C169.935 59.0292 171.163 58.7402 172.464 58.7402C173.764 58.7402 174.992 59.0292 176.148 59.535C177.304 60.0407 178.388 60.8355 179.183 61.7025L179.255 61.7747C179.544 62.136 179.833 62.4973 180.122 62.8585C180.411 63.292 180.628 63.7255 180.845 64.159C181.206 64.9538 181.712 65.6041 182.434 66.0376C183.084 66.4711 183.879 66.7601 184.746 66.7601H184.818C185.685 66.7601 186.48 66.4711 187.203 66.0376L187.275 65.9653C187.925 65.5318 188.431 64.8093 188.792 64.0868C189.009 63.6533 189.226 63.2198 189.443 62.8585C189.659 62.4973 189.948 62.0637 190.31 61.7025C191.177 60.691 192.188 59.8962 193.416 59.3182C194.572 58.8125 195.873 58.5234 197.246 58.5234C198.618 58.5234 199.919 58.8125 201.075 59.3182C202.303 59.8962 203.315 60.691 204.182 61.7025C204.471 62.0637 204.832 62.4973 205.049 62.9308C205.338 63.3643 205.555 63.7978 205.699 64.3035C205.988 65.0261 206.494 65.6763 207.144 66.1098C207.794 66.5433 208.517 66.8323 209.384 66.8323H211.551C212.057 66.8323 212.491 66.5433 212.707 66.1098L215.092 62.2083H234.672C235.394 62.2083 235.972 61.6302 235.972 60.9077V54.1161C235.972 53.3936 235.394 52.8156 234.672 52.8156H199.919V49.7088C199.919 48.9863 199.341 48.4083 198.618 48.4083H190.165C189.443 48.4083 188.865 48.9863 188.865 49.7088V52.8156H133.954V49.7088C133.954 48.9863 133.376 48.4083 132.653 48.4083H124.561C123.838 48.4083 123.26 48.9863 123.26 49.7088V52.8156H118.925C118.203 52.8156 117.625 53.3936 117.625 54.1161C117.769 54.3329 117.842 54.5496 117.986 54.7664ZM255.625 76.1527C254.902 76.1527 254.324 76.7307 254.324 77.4533C254.324 78.1758 254.902 78.7538 255.625 78.7538H262.561C263.283 78.7538 263.861 78.1758 263.861 77.4533C263.861 76.7307 263.283 76.1527 262.561 76.1527H255.625ZM225.207 76.1527C224.484 76.1527 223.906 76.7307 223.906 77.4533C223.906 78.1758 224.484 78.7538 225.207 78.7538H250.134C250.856 78.7538 251.434 78.1758 251.434 77.4533C251.434 76.7307 250.856 76.1527 250.134 76.1527H225.207ZM1.30029 76.1527C0.577789 76.1527 -0.000244141 76.7307 -0.000244141 77.4533C-0.000244141 78.1758 0.577789 78.7538 1.30029 78.7538H219.499C220.222 78.7538 220.8 78.1758 220.8 77.4533C220.8 76.7307 220.222 76.1527 219.499 76.1527H101.224C103.391 76.0805 105.342 75.1412 106.859 73.6962C108.377 72.1789 109.316 70.0114 109.316 67.6993C109.316 65.3873 108.377 63.2198 106.859 61.7025C105.342 60.1852 103.175 59.246 100.863 59.246C98.5505 59.246 96.3829 60.1852 94.8656 61.7025C93.3484 63.2198 92.4091 65.3873 92.4091 67.6993C92.4091 70.0114 93.3484 72.1789 94.8656 73.6962C96.3107 75.1412 98.2615 76.0805 100.501 76.1527H43.6395C45.8071 76.0805 47.7578 75.1412 49.2751 73.6962C50.7924 72.1789 51.7317 70.0114 51.7317 67.6993C51.7317 65.3873 50.7924 63.2198 49.2751 61.7025C47.7578 60.1852 45.5903 59.246 43.2783 59.246C40.9662 59.246 38.7987 60.1852 37.2814 61.7025C35.7641 63.2198 34.8249 65.3873 34.8249 67.6993C34.8249 70.0114 35.7641 72.1789 37.2814 73.6962C38.7264 75.1412 40.6772 76.0805 42.917 76.1527H1.30029ZM192.477 67.5548C192.477 68.7831 192.983 69.9391 193.85 70.8062C194.645 71.6009 195.801 72.1789 197.101 72.1789C198.329 72.1789 199.485 71.6732 200.352 70.8062C201.147 70.0114 201.725 68.8554 201.725 67.5548C201.725 66.3266 201.219 65.1706 200.352 64.3035C199.485 63.4365 198.402 62.9308 197.101 62.9308C195.873 62.9308 194.717 63.4365 193.85 64.3035C192.983 65.0983 192.477 66.2543 192.477 67.5548ZM195.584 68.9276C195.223 68.5664 195.006 68.0606 195.006 67.4826C195.006 66.9046 195.223 66.3988 195.584 66.0376C195.945 65.6763 196.451 65.4596 197.029 65.4596C197.607 65.4596 198.113 65.6763 198.474 66.0376C198.835 66.3988 199.052 66.9046 199.052 67.4826C199.052 68.0606 198.835 68.5664 198.474 68.9276C198.113 69.2889 197.607 69.5056 197.029 69.5056C196.451 69.5056 195.945 69.2889 195.584 68.9276ZM188.503 67.5548C188.503 69.8669 189.443 72.0344 190.96 73.5517C192.477 75.069 194.645 76.0082 196.957 76.0082C199.269 76.0082 201.436 75.069 202.954 73.5517C204.471 72.0344 205.41 69.8669 205.41 67.5548C205.41 65.2428 204.471 63.0753 202.954 61.558C201.436 60.0407 199.269 59.1014 196.957 59.1014C194.645 59.1014 192.477 60.0407 190.96 61.558C189.443 63.1475 188.503 65.2428 188.503 67.5548ZM192.838 71.7454C191.755 70.6616 191.104 69.2166 191.104 67.5548C191.104 65.9653 191.755 64.448 192.838 63.3643C193.922 62.2805 195.367 61.6302 197.029 61.6302C198.618 61.6302 200.136 62.2805 201.219 63.3643C202.303 64.448 202.954 65.8931 202.954 67.5548C202.954 69.1444 202.303 70.6616 201.219 71.7454C200.136 72.8292 198.691 73.4794 197.029 73.4794C195.367 73.4794 193.85 72.8292 192.838 71.7454ZM168.056 67.5548C168.056 68.8554 168.562 69.9391 169.429 70.8062L169.501 70.8784C170.296 71.6732 171.452 72.1789 172.68 72.1789C173.909 72.1789 175.065 71.6732 175.932 70.8062C176.799 69.9391 177.304 68.8554 177.304 67.5548C177.304 66.3266 176.799 65.1706 175.932 64.3035C175.065 63.5088 173.981 62.9308 172.68 62.9308C171.452 62.9308 170.296 63.4365 169.429 64.3035C168.562 65.0983 168.056 66.2543 168.056 67.5548ZM171.235 68.9276C170.874 68.5664 170.657 68.0606 170.657 67.4826C170.657 66.9046 170.874 66.3988 171.235 66.0376C171.596 65.6763 172.102 65.4596 172.68 65.4596C173.258 65.4596 173.764 65.6763 174.125 66.0376C174.487 66.3988 174.703 66.9046 174.703 67.4826C174.703 68.0606 174.487 68.5664 174.125 68.9276C173.764 69.2889 173.258 69.5056 172.68 69.5056C172.102 69.5056 171.596 69.3611 171.235 68.9276ZM164.082 67.5548C164.082 69.8669 165.022 72.0344 166.539 73.5517C168.056 75.069 170.224 76.0082 172.536 76.0082C174.848 76.0082 177.015 75.069 178.533 73.5517C180.05 72.0344 180.989 69.8669 180.989 67.5548C180.989 65.2428 180.05 63.0753 178.533 61.558C177.015 60.0407 174.848 59.1014 172.536 59.1014C170.224 59.1014 168.056 60.0407 166.539 61.558C165.022 63.1475 164.082 65.2428 164.082 67.5548ZM168.417 71.7454C167.334 70.6616 166.683 69.2166 166.683 67.5548C166.683 65.9653 167.334 64.448 168.417 63.3643C169.501 62.2805 170.946 61.6302 172.608 61.6302C174.27 61.6302 175.715 62.2805 176.799 63.3643C177.882 64.448 178.533 65.8931 178.533 67.5548C178.533 69.1444 177.882 70.6616 176.799 71.7454C175.715 72.8292 174.27 73.4794 172.608 73.4794C170.946 73.4794 169.501 72.8292 168.417 71.7454ZM38.6542 67.6271C38.6542 68.8554 39.1599 70.0114 40.0269 70.8784C40.8217 71.6732 41.9777 72.2512 43.2783 72.2512C44.5065 72.2512 45.6626 71.7454 46.5296 70.8784C47.3966 70.0114 47.9023 68.9276 47.9023 67.6271C47.9023 66.3266 47.3966 65.2428 46.5296 64.3758L46.4573 64.3035C45.6626 63.5088 44.5065 63.003 43.2783 63.003C41.9777 63.003 40.894 63.5088 40.0269 64.3758C39.1599 65.2428 38.6542 66.3988 38.6542 67.6271ZM41.8332 69.0721C41.472 68.7109 41.2552 68.2051 41.2552 67.6271C41.2552 67.0491 41.472 66.5433 41.8332 66.1821C42.1945 65.8208 42.7002 65.6041 43.2783 65.6041C43.784 65.6041 44.2898 65.8208 44.651 66.1098L44.7233 66.1821C45.0845 66.5433 45.3013 67.0491 45.3013 67.6271C45.3013 68.2051 45.0845 68.7109 44.7233 69.0721C44.362 69.4334 43.8563 69.6501 43.2783 69.6501C42.7002 69.6501 42.1945 69.4334 41.8332 69.0721ZM39.0154 71.8899C37.9317 70.8062 37.2814 69.3611 37.2814 67.6993C37.2814 66.1098 37.9317 64.5925 39.0154 63.5088C40.0992 62.425 41.5442 61.7747 43.206 61.7747C44.7955 61.7747 46.3128 62.425 47.3966 63.5088C48.4803 64.5925 49.1306 66.0376 49.1306 67.6993C49.1306 69.2889 48.4803 70.8062 47.3966 71.8899C46.3128 72.9737 44.8678 73.6239 43.206 73.6239C41.5442 73.6239 40.0992 72.9014 39.0154 71.8899ZM96.2384 67.6271C96.2384 68.8554 96.7442 70.0114 97.6112 70.8784C98.406 71.6732 99.562 72.2512 100.863 72.2512C102.163 72.2512 103.247 71.7454 104.114 70.8784L104.186 70.8062C104.981 70.0114 105.487 68.8554 105.487 67.6271C105.487 66.3988 104.981 65.2428 104.114 64.3758C103.319 63.581 102.163 63.003 100.863 63.003C99.562 63.003 98.4782 63.5088 97.6112 64.3758C96.7442 65.2428 96.2384 66.3988 96.2384 67.6271ZM99.4175 69.0721C99.0562 68.7109 98.8395 68.2051 98.8395 67.6271C98.8395 67.0491 99.0562 66.5433 99.4175 66.1821C99.7787 65.8208 100.285 65.6041 100.863 65.6041C101.441 65.6041 101.946 65.8208 102.308 66.1821C102.669 66.5433 102.886 67.0491 102.886 67.6271C102.886 68.1329 102.669 68.6386 102.38 68.9999L102.308 69.0721C101.946 69.4334 101.441 69.6501 100.863 69.6501C100.285 69.6501 99.7787 69.4334 99.4175 69.0721ZM96.5997 71.8899C95.5159 70.8062 94.8656 69.3611 94.8656 67.6993C94.8656 66.1098 95.5159 64.5925 96.5997 63.5088C97.6835 62.425 99.1285 61.7747 100.79 61.7747C102.38 61.7747 103.897 62.425 104.981 63.5088C106.065 64.5925 106.715 66.0376 106.715 67.6993C106.715 69.2889 106.065 70.8062 104.981 71.8899C103.897 72.9737 102.452 73.6239 100.79 73.6239C99.2007 73.6239 97.6835 72.9014 96.5997 71.8899ZM40.8217 38.8711V26.1549C40.8217 25.4324 40.2437 24.8544 39.5212 24.8544H34.1746C32.4406 24.8544 30.7788 25.5046 29.4783 26.5161C28.1778 27.5276 27.2385 29.0449 26.8772 30.779L25.5767 37.0648C25.5044 37.2816 25.5045 37.4261 25.5045 37.5706C25.5045 38.1486 25.7212 38.7266 26.0825 39.1601C26.4437 39.5936 26.9495 39.9549 27.5275 40.0271C27.7442 40.0994 27.8887 40.0994 28.0333 40.0994H39.3767C40.2437 40.1716 40.8217 39.5936 40.8217 38.8711ZM38.2207 27.4554V37.5706H28.1777C28.6113 35.4753 28.9725 33.38 29.4783 31.2847C29.695 30.2009 30.3453 29.1894 31.14 28.5392C32.0071 27.8889 33.0186 27.4554 34.1746 27.4554H38.2207ZM26.3715 69.6501H26.227C25.36 69.5779 24.5652 69.2166 23.9872 68.6386C23.4092 68.0606 23.0479 67.2658 23.0479 66.3988V66.2543L24.4207 35.2585C24.8542 30.1287 27.0217 25.5769 30.273 22.1088C33.4521 18.7853 37.7872 16.6177 42.7003 16.1842L61.7746 14.5947C61.9191 14.5947 62.0636 14.6669 62.1358 14.7392C62.2081 14.8114 62.2803 14.9559 62.2803 15.1004L62.9306 53.6826C62.9306 54.4051 63.5086 54.9831 64.2311 54.9831H109.533C110.616 54.9831 111.628 55.4166 112.35 56.1391C113.073 56.8616 113.506 57.8732 113.506 58.957V69.6501H113.434C113.29 69.6501 113.145 69.5779 113.073 69.5056C113.001 69.4334 112.928 69.2889 112.928 69.1444V68.4218C112.928 65.0983 111.556 62.0637 109.388 59.824C107.221 57.5842 104.186 56.2114 100.863 56.1391C100.646 56.1391 100.718 56.1391 100.646 56.1391C97.2499 56.1391 94.2154 57.5842 91.9756 59.824C89.7358 62.0637 88.3631 65.1705 88.2908 68.4941C88.2908 68.7831 88.2908 68.6386 88.2908 68.7109V69.6501H55.7777V66.6878C55.7777 63.3643 54.405 60.3297 52.2374 58.0899C50.0699 55.8501 47.0353 54.4774 43.7118 54.4051C43.495 54.4051 43.5673 54.4051 43.495 54.4051C40.0992 54.4051 37.0647 55.8501 34.8249 58.0899C32.5851 60.3297 31.2123 63.4365 31.14 66.7601C31.14 66.9768 31.14 66.9046 31.14 66.9768V69.6501H26.3715ZM26.0825 72.2512H26.3715H32.4406C33.1631 72.2512 33.7411 71.6732 33.7411 70.9506V66.9768C33.7411 66.6878 33.7411 66.9046 33.7411 66.7601C33.8134 64.0868 34.8971 61.6302 36.7034 59.824C38.4374 58.0177 40.894 56.9339 43.495 56.9339C43.7118 56.9339 43.5673 56.9339 43.6395 56.9339C46.3128 57.0062 48.6971 58.0899 50.3589 59.824C52.0929 61.558 53.1044 63.9423 53.1044 66.6156V70.8784C53.1044 71.6009 53.6824 72.1789 54.405 72.1789H89.5191C90.2416 72.1789 90.8196 71.6009 90.8196 70.8784V68.6386C90.8196 68.3496 90.8196 68.5664 90.8196 68.4218C90.8918 65.7486 91.9756 63.292 93.7819 61.4857C95.5159 59.6795 97.9002 58.5957 100.574 58.5957C100.79 58.5957 100.646 58.5957 100.79 58.5957C103.464 58.6679 105.848 59.7517 107.51 61.4857C109.244 63.2198 110.255 65.6041 110.255 68.2774V68.9999C110.255 69.8669 110.616 70.6617 111.194 71.2397C111.772 71.8177 112.567 72.1789 113.434 72.1789H114.807C115.53 72.1789 116.108 71.6009 116.108 70.8784V58.8847C116.108 57.0784 115.385 55.4166 114.157 54.1884C112.928 52.9601 111.339 52.2376 109.46 52.2376H103.753V50.9371H95.0824V52.2376H65.6039L65.0259 14.9559C65.0259 14.0889 64.6646 13.3664 64.0866 12.7884C63.5086 12.2104 62.7861 11.9214 61.9191 11.9214H61.8468L42.7003 13.5109C37.0647 13.9444 32.2238 16.4732 28.6113 20.2303C24.9265 24.0596 22.5421 29.1894 22.0364 34.8973C22.0364 34.9695 22.0364 34.9695 22.0364 35.0418L20.6636 66.0376V66.3266C20.6636 67.9161 21.3139 69.2889 22.3254 70.3726C23.1202 71.4564 24.5652 72.1789 26.0825 72.2512ZM124.272 59.535L121.454 55.3444H124.633C125.356 55.3444 125.934 54.7664 125.934 54.0439V50.9371H131.497V54.0439C131.497 54.7664 132.075 55.3444 132.798 55.3444H190.31C191.032 55.3444 191.61 54.7664 191.61 54.0439V50.9371H197.462V54.0439C197.462 54.7664 198.04 55.3444 198.763 55.3444H233.371V59.535H214.152C213.719 59.535 213.285 59.7517 213.069 60.1852L210.612 64.159H209.167C208.878 64.159 208.661 64.0868 208.445 63.9423C208.228 63.7978 208.011 63.581 207.939 63.292C207.722 62.714 207.433 62.136 207.072 61.558C206.711 60.98 206.349 60.4742 205.916 59.9685C204.832 58.6679 203.459 57.6564 201.942 56.9339C200.425 56.2114 198.763 55.8501 197.029 55.8501C195.295 55.8501 193.633 56.2114 192.116 56.9339C190.599 57.6564 189.226 58.6679 188.142 59.9685C187.781 60.402 187.42 60.9077 187.058 61.4135C186.769 61.9193 186.48 62.4972 186.191 63.003C186.047 63.292 185.83 63.581 185.613 63.7978C185.324 63.9423 185.035 64.0868 184.746 64.0868H184.674C184.313 64.0868 184.024 64.0145 183.807 63.7978C183.518 63.581 183.301 63.3643 183.157 63.003C182.94 62.425 182.579 61.847 182.29 61.3412C182.001 60.8355 181.639 60.402 181.206 59.8962L181.134 59.824C180.05 58.5957 178.677 57.6564 177.232 57.0062C175.787 56.3559 174.198 55.9946 172.536 55.9946C170.874 55.9946 169.284 56.3559 167.839 57.0062C166.322 57.6564 165.022 58.6679 163.938 59.824C163.504 60.3297 163.143 60.7632 162.782 61.269C162.421 61.7747 162.132 62.3528 161.915 62.8585C161.77 63.2198 161.554 63.5088 161.192 63.6533C160.903 63.87 160.614 63.9423 160.253 63.9423H158.375L155.34 59.8962C155.123 59.535 154.69 59.3182 154.256 59.3182L124.272 59.535Z" fill="#374148"/>
<path d="M233.298 51.0816H70.227C68.9265 51.0816 67.9149 49.9979 67.9149 48.7696V2.31203C67.9149 1.0115 68.9987 0 70.227 0H233.298C234.599 0 235.61 1.0115 235.61 2.31203V48.7696C235.682 50.0701 234.599 51.0816 233.298 51.0816ZM227.301 42.556H229.686C230.191 42.556 230.625 42.1225 230.625 41.6167V5.12984C230.625 4.62408 230.191 4.19056 229.686 4.19056H227.301C226.795 4.19056 226.362 4.62408 226.362 5.12984V41.6167C226.362 42.1225 226.795 42.556 227.301 42.556ZM74.4176 42.6282H76.8019C77.3076 42.6282 77.7411 42.1947 77.7411 41.689V5.20208C77.7411 4.69632 77.3076 4.26282 76.8019 4.26282H74.4176C73.9118 4.26282 73.4783 4.69632 73.4783 5.20208V41.689C73.4061 42.1947 73.8395 42.6282 74.4176 42.6282ZM84.027 42.4837H86.4113C86.917 42.4837 87.3505 42.0502 87.3505 41.5445V5.05759C87.3505 4.55183 86.917 4.11831 86.4113 4.11831H84.027C83.5212 4.11831 83.0877 4.55183 83.0877 5.05759V41.4722C83.0155 42.0502 83.449 42.4837 84.027 42.4837ZM93.6364 42.6282H96.0207C96.5264 42.6282 96.96 42.1947 96.96 41.689V5.20208C96.96 4.69632 96.5264 4.26282 96.0207 4.26282H93.6364C93.1306 4.26282 92.6971 4.69632 92.6971 5.20208V41.689C92.6971 42.1947 93.1306 42.6282 93.6364 42.6282ZM103.101 42.7005H105.486C105.991 42.7005 106.425 42.267 106.425 41.7612V5.27433C106.425 4.76857 105.991 4.33508 105.486 4.33508H103.101C102.596 4.33508 102.162 4.76857 102.162 5.27433V41.7612C102.162 42.267 102.596 42.7005 103.101 42.7005ZM112.711 42.556H115.095C115.601 42.556 116.034 42.1225 116.034 41.6167V5.12984C116.034 4.62408 115.601 4.19056 115.095 4.19056H112.711C112.205 4.19056 111.771 4.62408 111.771 5.12984V41.6167C111.771 42.1225 112.205 42.556 112.711 42.556ZM122.32 42.7005H124.704C125.21 42.7005 125.644 42.267 125.644 41.7612V5.27433C125.644 4.76857 125.21 4.33508 124.704 4.33508H122.32C121.814 4.33508 121.381 4.76857 121.381 5.27433V41.7612C121.381 42.267 121.814 42.7005 122.32 42.7005ZM131.568 42.556H133.953C134.458 42.556 134.892 42.1225 134.892 41.6167V5.12984C134.892 4.62408 134.458 4.19056 133.953 4.19056H131.568C131.063 4.19056 130.629 4.62408 130.629 5.12984V41.6167C130.629 42.1225 131.063 42.556 131.568 42.556ZM140.744 42.7005H143.129C143.634 42.7005 144.068 42.267 144.068 41.7612V5.27433C144.068 4.76857 143.634 4.33508 143.129 4.33508H140.744C140.238 4.33508 139.805 4.76857 139.805 5.27433V41.7612C139.805 42.267 140.238 42.7005 140.744 42.7005ZM150.065 42.556H152.449C152.955 42.556 153.388 42.1225 153.388 41.6167V5.12984C153.388 4.62408 152.955 4.19056 152.449 4.19056H150.065C149.559 4.19056 149.125 4.62408 149.125 5.12984V41.6167C149.053 42.1225 149.487 42.556 150.065 42.556ZM160.108 42.556H162.492C162.998 42.556 163.431 42.1225 163.431 41.6167V5.12984C163.431 4.62408 162.998 4.19056 162.492 4.19056H160.108C159.602 4.19056 159.168 4.62408 159.168 5.12984V41.6167C159.168 42.1225 159.602 42.556 160.108 42.556ZM169.861 42.556H172.246C172.752 42.556 173.185 42.1225 173.185 41.6167V5.12984C173.185 4.62408 172.752 4.19056 172.246 4.19056H169.861C169.356 4.19056 168.922 4.62408 168.922 5.12984V41.6167C168.85 42.1225 169.283 42.556 169.861 42.556ZM179.977 42.556H182.361C182.867 42.556 183.3 42.1225 183.3 41.6167V5.12984C183.3 4.62408 182.867 4.19056 182.361 4.19056H179.977C179.471 4.19056 179.037 4.62408 179.037 5.12984V41.6167C178.965 42.1225 179.399 42.556 179.977 42.556ZM189.658 42.7005H192.043C192.548 42.7005 192.982 42.267 192.982 41.7612V5.27433C192.982 4.76857 192.548 4.33508 192.043 4.33508H189.658C189.153 4.33508 188.719 4.76857 188.719 5.27433V41.7612C188.647 42.267 189.153 42.7005 189.658 42.7005ZM199.34 42.556H201.724C202.23 42.556 202.664 42.1225 202.664 41.6167V5.12984C202.664 4.62408 202.23 4.19056 201.724 4.19056H199.34C198.834 4.19056 198.401 4.62408 198.401 5.12984V41.6167C198.401 42.1225 198.834 42.556 199.34 42.556ZM208.733 42.556H211.117C211.623 42.556 212.056 42.1225 212.056 41.6167V5.12984C212.056 4.62408 211.623 4.19056 211.117 4.19056H208.733C208.227 4.19056 207.793 4.62408 207.793 5.12984V41.6167C207.793 42.1225 208.227 42.556 208.733 42.556ZM217.909 42.556H220.293C220.799 42.556 221.232 42.1225 221.232 41.6167V5.12984C221.232 4.62408 220.799 4.19056 220.293 4.19056H217.909C217.403 4.19056 216.969 4.62408 216.969 5.12984V41.6167C216.897 42.1225 217.331 42.556 217.909 42.556Z" fill="url(#paint0_linear)"/>
<defs>
<linearGradient id="paint0_linear" x1="235.617" y1="25.5868" x2="67.8875" y2="25.5868" gradientUnits="userSpaceOnUse">
<stop stop-color="#008DD2"/>
<stop offset="1" stop-color="#003C5F"/>
</linearGradient>
</defs>
</svg>
