<svg width="954" height="454" viewBox="0 0 954 454" fill="none" xmlns="http://www.w3.org/2000/svg">
<path d="M514.547 310.344H760.235" stroke="#2C373D" stroke-width="4" stroke-miterlimit="10" stroke-linecap="round" stroke-linejoin="round"/>
<path d="M847.771 253.669L797.733 312.29C795.419 314.965 794.08 318.127 793.593 321.654L791.889 335.397H252.665C251.569 335.397 250.717 334.546 250.717 333.451V315.573C250.717 315.452 250.717 315.208 250.595 315.208L227.95 255.858C226.002 250.628 229.776 245.156 235.377 245.156H254.37C255.465 245.156 256.317 244.304 256.317 243.21V196.994C256.317 195.9 257.17 195.048 258.265 195.048H274.945C276.041 195.048 276.893 194.197 276.893 193.103V183.981C276.893 182.886 277.745 182.035 278.841 182.035H287.972C289.068 182.035 289.92 182.886 289.92 183.981V193.103C289.92 194.197 290.772 195.048 291.868 195.048H353.96C355.055 195.048 355.908 195.9 355.908 196.994V243.21C355.908 244.304 356.76 245.156 357.856 245.156H371.492C372.465 245.156 373.318 245.885 373.318 246.858C374.17 255.98 381.962 263.155 391.336 263.155H731.745C741.12 263.155 748.912 255.98 749.764 246.858C749.886 245.885 750.616 245.156 751.59 245.156H843.632C847.771 245.034 850.328 250.02 847.771 253.669Z" stroke="#2C373D" stroke-width="4" stroke-miterlimit="10" stroke-linejoin="round"/>
<path d="M824.959 259.75C824.959 262.543 822.692 264.811 819.891 264.811C817.09 264.811 814.823 262.543 814.823 259.75C814.823 256.957 817.09 254.689 819.891 254.689C822.692 254.689 824.959 256.957 824.959 259.75Z" stroke="#2C373D" stroke-width="3.5"/>
<path d="M534.634 234.818H480.7C479.239 234.818 478.143 236.034 478.143 237.372V256.101C478.143 257.561 479.361 258.655 480.7 258.655H534.634C536.095 258.655 537.191 257.439 537.191 256.101V237.372C537.313 236.034 536.095 234.818 534.634 234.818ZM470.595 206.967H416.66C415.199 206.967 414.104 208.183 414.104 209.521V228.25C414.104 229.71 415.321 230.804 416.66 230.804H470.595C472.056 230.804 473.152 229.588 473.152 228.25V209.521C473.152 208.062 472.056 206.967 470.595 206.967ZM534.634 206.967H480.7C479.239 206.967 478.143 208.183 478.143 209.521V228.25C478.143 229.71 479.361 230.804 480.7 230.804H534.634C536.095 230.804 537.191 229.588 537.191 228.25V209.521C537.313 208.062 536.095 206.967 534.634 206.967ZM470.595 234.818H416.66C415.199 234.818 414.104 236.034 414.104 237.372V256.101C414.104 257.561 415.321 258.655 416.66 258.655H470.595C472.056 258.655 473.152 257.439 473.152 256.101V237.372C473.152 236.034 472.056 234.818 470.595 234.818ZM711.535 206.967H685.359C683.898 206.967 682.802 208.183 682.802 209.521V256.101C682.802 257.561 684.02 258.655 685.359 258.655H711.535C712.996 258.655 714.092 257.439 714.092 256.101V209.521C714.092 208.062 712.996 206.967 711.535 206.967ZM674.28 206.967H648.104C646.643 206.967 645.547 208.183 645.547 209.521V256.101C645.547 257.561 646.765 258.655 648.104 258.655H674.28C675.741 258.655 676.837 257.439 676.837 256.101V209.521C676.837 208.062 675.741 206.967 674.28 206.967ZM636.66 206.967H610.484C609.023 206.967 607.927 208.183 607.927 209.521V256.101C607.927 257.561 609.145 258.655 610.484 258.655H636.66C638.121 258.655 639.216 257.439 639.216 256.101V209.521C639.338 208.062 638.121 206.967 636.66 206.967ZM599.039 206.967H545.105C543.644 206.967 542.548 208.183 542.548 209.521V228.25C542.548 229.71 543.766 230.804 545.105 230.804H599.039C600.5 230.804 601.596 229.588 601.596 228.25V209.521C601.596 208.062 600.379 206.967 599.039 206.967ZM599.039 234.818H545.105C543.644 234.818 542.548 236.034 542.548 237.372V256.101C542.548 257.561 543.766 258.655 545.105 258.655H599.039C600.5 258.655 601.596 257.439 601.596 256.101V237.372C601.596 236.034 600.379 234.818 599.039 234.818Z" fill="url(#paint0_linear)"/>
<path d="M346.899 203.683H337.037V213.535H346.899V203.683Z" stroke="#2C373D" stroke-width="4" stroke-miterlimit="10" stroke-linejoin="round"/>
<path d="M331.559 203.683H321.697V213.535H331.559V203.683Z" stroke="#2C373D" stroke-width="4" stroke-miterlimit="10" stroke-linejoin="round"/>
<path d="M316.34 203.927H306.479V213.778H316.34V203.927Z" stroke="#2C373D" stroke-width="4" stroke-miterlimit="10" stroke-linejoin="round"/>
<path d="M301.121 203.927H291.26V213.778H301.121V203.927Z" stroke="#2C373D" stroke-width="4" stroke-miterlimit="10" stroke-linejoin="round"/>
<path d="M419.704 394.626L411.182 407.396H353.595L347.021 416.031H342.272C339.959 416.031 337.889 414.571 337.037 412.504C336.185 410.68 335.089 408.855 333.628 407.396C330.098 403.504 324.862 400.95 319.14 400.95C313.418 400.95 308.305 403.382 304.652 407.396C303.191 408.977 302.095 410.68 301.243 412.626C300.391 414.693 298.443 416.031 296.13 416.031H296.008C293.695 416.031 291.747 414.571 290.895 412.504C290.164 410.68 289.068 408.855 287.729 407.396C284.198 403.139 278.841 400.585 272.876 400.585C266.91 400.585 261.553 403.261 258.023 407.396C256.683 408.977 255.466 410.923 254.735 412.869C254.005 414.815 252.179 416.031 250.109 416.031H246.091L240.734 407.396H202.262V394.626H269.954V386.356H285.781V394.626H393.772V386.356H408.991V394.626H419.704V394.626Z" stroke="#2C373D" stroke-width="4" stroke-miterlimit="10" stroke-linejoin="round"/>
<path d="M464.751 389.031H448.315V391.829H464.751V389.031Z" fill="#2C373D"/>
<path d="M602.449 417.368C602.692 422.233 598.796 426.368 593.804 426.368H582.36V418.828C582.36 407.274 572.864 397.423 561.298 397.666C550.097 397.909 540.966 407.031 540.966 418.341V426.368H474.856V422.112C474.856 410.558 465.36 400.707 453.794 400.828C442.593 401.071 433.462 410.193 433.462 421.504V422.841C433.462 424.787 431.879 426.247 430.053 426.247H427.496V403.747C427.496 398.274 432.001 393.774 437.479 393.774H450.628H467.064H522.46L523.677 321.289C523.677 319.465 525.26 317.884 527.086 317.884L563.124 320.803C583.334 322.505 598.066 338.681 599.77 358.87L602.449 417.368ZM590.517 366.167C592.1 366.167 593.196 364.707 592.952 363.248L590.517 351.451C589.421 346.099 584.673 342.208 579.316 342.208H569.211V366.167H590.517Z" fill="white"/>
<path d="M592.952 363.248C593.317 364.707 592.1 366.167 590.517 366.167H569.211V342.208H579.316C584.795 342.208 589.421 346.1 590.517 351.451L592.952 363.248Z" fill="white"/>
<path d="M593.927 426.369C598.796 426.369 602.814 422.234 602.571 417.369L599.892 359.114C598.066 339.046 583.334 322.749 563.246 321.047L527.208 318.128C525.382 318.128 523.799 319.587 523.799 321.533L522.582 394.018H467.186H450.75H437.602C432.123 394.018 427.618 398.518 427.618 403.991V426.491H430.175C432.123 426.491 433.584 424.91 433.584 423.085V421.748C433.584 410.437 442.593 401.316 453.916 401.072C465.482 400.829 474.978 410.68 474.978 422.356V426.612H541.088V418.585C541.088 407.275 550.097 398.153 561.42 397.91C572.986 397.667 582.482 407.518 582.482 419.072V426.491H593.927V426.369Z" stroke="#2C373D" stroke-width="4" stroke-miterlimit="10" stroke-linejoin="round"/>
<path d="M569.211 366.167V342.208H579.316C584.795 342.208 589.421 346.1 590.517 351.451L592.952 363.248C593.317 364.707 592.1 366.167 590.517 366.167H569.211Z" stroke="#2C373D" stroke-width="4" stroke-miterlimit="10" stroke-linejoin="round"/>
<path d="M453.915 433.787C461.379 433.787 467.43 427.743 467.43 420.287C467.43 412.832 461.379 406.788 453.915 406.788C446.452 406.788 440.401 412.832 440.401 420.287C440.401 427.743 446.452 433.787 453.915 433.787Z" stroke="#2C373D" stroke-width="4" stroke-miterlimit="10" stroke-linejoin="round"/>
<path d="M453.794 426.369C457.223 426.369 460.003 423.592 460.003 420.166C460.003 416.74 457.223 413.963 453.794 413.963C450.365 413.963 447.585 416.74 447.585 420.166C447.585 423.592 450.365 426.369 453.794 426.369Z" stroke="#2C373D" stroke-width="4" stroke-miterlimit="10" stroke-linejoin="round"/>
<path d="M562.272 433.787C569.735 433.787 575.786 427.743 575.786 420.287C575.786 412.832 569.735 406.788 562.272 406.788C554.808 406.788 548.758 412.832 548.758 420.287C548.758 427.743 554.808 433.787 562.272 433.787Z" stroke="#2C373D" stroke-width="4" stroke-miterlimit="10" stroke-linejoin="round"/>
<path d="M562.151 426.369C565.58 426.369 568.36 423.592 568.36 420.166C568.36 416.74 565.58 413.963 562.151 413.963C558.721 413.963 555.941 416.74 555.941 420.166C555.941 423.592 558.721 426.369 562.151 426.369Z" stroke="#2C373D" stroke-width="4" stroke-miterlimit="10" stroke-linejoin="round"/>
<path d="M511.381 292.952H204.818C202.384 292.952 200.436 294.898 200.436 297.33V384.653C200.436 387.085 202.384 389.031 204.818 389.031H268.128H407.286H448.315H464.751H511.503C513.938 389.031 515.886 387.085 515.886 384.653V297.33C515.886 294.898 513.816 292.952 511.381 292.952ZM283.955 389.031H392.068Z" fill="url(#paint1_linear)"/>
<path d="M216.019 372.978H211.515C210.541 372.978 209.688 372.126 209.688 371.153V302.56C209.688 301.587 210.541 300.736 211.515 300.736H216.019C216.993 300.736 217.846 301.587 217.846 302.56V371.153C217.846 372.126 217.115 372.978 216.019 372.978Z" fill="white"/>
<path d="M233.795 372.978H229.29C228.316 372.978 227.464 372.126 227.464 371.153V302.56C227.464 301.587 228.316 300.736 229.29 300.736H233.795C234.769 300.736 235.621 301.587 235.621 302.56V371.153C235.621 372.126 234.769 372.978 233.795 372.978Z" fill="white"/>
<path d="M250.961 372.978H246.456C245.482 372.978 244.63 372.126 244.63 371.153V302.56C244.63 301.587 245.482 300.736 246.456 300.736H250.961C251.935 300.736 252.787 301.587 252.787 302.56V371.153C252.787 372.126 251.935 372.978 250.961 372.978Z" fill="white"/>
<path d="M268.614 372.978H264.109C263.135 372.978 262.283 372.126 262.283 371.153V302.56C262.283 301.587 263.135 300.736 264.109 300.736H268.614C269.588 300.736 270.44 301.587 270.44 302.56V371.153C270.44 372.126 269.71 372.978 268.614 372.978Z" fill="white"/>
<path d="M286.877 373.221H282.372C281.398 373.221 280.546 372.369 280.546 371.396V302.803C280.546 301.83 281.398 300.979 282.372 300.979H286.877C287.851 300.979 288.703 301.83 288.703 302.803V371.396C288.703 372.491 287.851 373.221 286.877 373.221Z" fill="white"/>
<path d="M305.14 372.978H300.635C299.661 372.978 298.809 372.126 298.809 371.153V302.56C298.809 301.587 299.661 300.736 300.635 300.736H305.14C306.114 300.736 306.966 301.587 306.966 302.56V371.153C306.966 372.126 306.114 372.978 305.14 372.978Z" fill="white"/>
<path d="M324.132 372.978H319.627C318.653 372.978 317.801 372.126 317.801 371.153V302.56C317.801 301.587 318.653 300.736 319.627 300.736H324.132C325.106 300.736 325.958 301.587 325.958 302.56V371.153C325.958 372.126 325.106 372.978 324.132 372.978Z" fill="white"/>
<path d="M342.394 372.978H337.89C336.916 372.978 336.063 372.126 336.063 371.153V302.56C336.063 301.587 336.916 300.736 337.89 300.736H342.394C343.368 300.736 344.221 301.587 344.221 302.56V371.153C344.221 372.126 343.368 372.978 342.394 372.978Z" fill="white"/>
<path d="M361.387 372.978H356.882C355.908 372.978 355.056 372.126 355.056 371.153V302.56C355.056 301.587 355.908 300.736 356.882 300.736H361.387C362.361 300.736 363.213 301.587 363.213 302.56V371.153C363.213 372.126 362.361 372.978 361.387 372.978Z" fill="white"/>
<path d="M378.797 373.221H374.292C373.318 373.221 372.466 372.369 372.466 371.396V302.803C372.466 301.83 373.318 300.979 374.292 300.979H378.797C379.771 300.979 380.623 301.83 380.623 302.803V371.396C380.623 372.491 379.771 373.221 378.797 373.221Z" fill="white"/>
<path d="M396.085 372.978H391.58C390.606 372.978 389.754 372.126 389.754 371.153V302.56C389.754 301.587 390.606 300.736 391.58 300.736H396.085C397.059 300.736 397.911 301.587 397.911 302.56V371.153C397.911 372.126 397.059 372.978 396.085 372.978Z" fill="white"/>
<path d="M413.374 373.221H408.869C407.895 373.221 407.043 372.369 407.043 371.396V302.803C407.043 301.83 407.895 300.979 408.869 300.979H413.374C414.348 300.979 415.2 301.83 415.2 302.803V371.396C415.2 372.491 414.47 373.221 413.374 373.221Z" fill="white"/>
<path d="M431.515 372.978H427.01C426.036 372.978 425.184 372.126 425.184 371.153V302.56C425.184 301.587 426.036 300.736 427.01 300.736H431.515C432.489 300.736 433.341 301.587 433.341 302.56V371.153C433.341 372.126 432.489 372.978 431.515 372.978Z" fill="white"/>
<path d="M449.532 373.221H445.027C444.053 373.221 443.201 372.369 443.201 371.396V302.803C443.201 301.83 444.053 300.979 445.027 300.979H449.532C450.506 300.979 451.358 301.83 451.358 302.803V371.396C451.358 372.491 450.628 373.221 449.532 373.221Z" fill="white"/>
<path d="M467.43 373.099H462.925C461.951 373.099 461.099 372.248 461.099 371.275V302.681C461.099 301.709 461.951 300.857 462.925 300.857H467.43C468.404 300.857 469.256 301.709 469.256 302.681V371.275C469.256 372.369 468.404 373.099 467.43 373.099Z" fill="white"/>
<path d="M485.57 372.856H481.065C480.091 372.856 479.239 372.005 479.239 371.032V302.438C479.239 301.465 480.091 300.614 481.065 300.614H485.57C486.544 300.614 487.396 301.465 487.396 302.438V371.032C487.396 372.005 486.544 372.856 485.57 372.856Z" fill="white"/>
<path d="M503.589 373.099H499.084C498.11 373.099 497.258 372.248 497.258 371.275V302.681C497.258 301.709 498.11 300.857 499.084 300.857H503.589C504.563 300.857 505.415 301.709 505.415 302.681V371.275C505.415 372.369 504.563 373.099 503.589 373.099Z" fill="white"/>
<path d="M319.018 433.544C326.482 433.544 332.532 427.5 332.532 420.044C332.532 412.588 326.482 406.544 319.018 406.544C311.554 406.544 305.504 412.588 305.504 420.044C305.504 427.5 311.554 433.544 319.018 433.544Z" stroke="#2C373D" stroke-width="4" stroke-miterlimit="10" stroke-linejoin="round"/>
<path d="M318.897 426.125C322.326 426.125 325.106 423.348 325.106 419.923C325.106 416.497 322.326 413.72 318.897 413.72C315.467 413.72 312.688 416.497 312.688 419.923C312.688 423.348 315.467 426.125 318.897 426.125Z" stroke="#2C373D" stroke-width="4" stroke-miterlimit="10" stroke-linejoin="round"/>
<path d="M273.12 433.544C280.583 433.544 286.634 427.5 286.634 420.044C286.634 412.588 280.583 406.544 273.12 406.544C265.656 406.544 259.605 412.588 259.605 420.044C259.605 427.5 265.656 433.544 273.12 433.544Z" stroke="#2C373D" stroke-width="4" stroke-miterlimit="10" stroke-linejoin="round"/>
<path d="M272.997 426.125C276.426 426.125 279.206 423.348 279.206 419.923C279.206 416.497 276.426 413.72 272.997 413.72C269.568 413.72 266.788 416.497 266.788 419.923C266.788 423.348 269.568 426.125 272.997 426.125Z" stroke="#2C373D" stroke-width="4" stroke-miterlimit="10" stroke-linejoin="round"/>
<path d="M693.76 152.847H630.086C630.086 155.036 628.26 156.982 626.068 156.982H577.004C574.812 156.982 572.986 155.157 572.986 152.968V152.847C572.986 152.847 548.393 153.698 532.931 149.806C524.165 147.495 521.121 146.401 512.112 142.874C478.753 129.617 458.177 124.752 458.177 124.752C458.177 124.752 471.813 122.685 467.552 112.712C465.36 107.361 451.359 75.9832 451.359 75.9832L464.386 76.9561C469.5 77.321 474.126 79.7533 478.022 83.1587C518.321 118.185 514.547 119.766 536.462 119.766C564.342 119.766 628.26 120.009 659.184 120.009C672.576 120.009 697.778 118.793 706.057 130.955L712.753 133.509C718.719 135.698 723.102 151.63 693.76 152.847Z" fill="white" stroke="#2C373D" stroke-width="3" stroke-miterlimit="10" stroke-linejoin="round"/>
<path d="M708.005 131.685H693.882C693.152 131.685 692.543 130.955 692.543 130.104V128.036C692.543 127.671 692.786 127.306 693.152 127.306H702.405" stroke="#2C373D" stroke-width="3" stroke-miterlimit="10" stroke-linejoin="round"/>
<path d="M599.648 144.09L592.222 142.752V136.306L599.648 135.09" fill="white"/>
<path d="M599.648 144.09L592.222 142.752V136.306L599.648 135.09" stroke="#2C373D" stroke-width="3" stroke-miterlimit="10" stroke-linejoin="round"/>
<path d="M619.128 147.252H605.37C601.231 147.252 597.944 143.968 597.944 139.833C597.944 135.698 601.231 132.415 605.37 132.415H619.128C621.807 132.415 623.876 134.604 623.876 137.158V142.509C623.998 145.063 621.807 147.252 619.128 147.252Z" fill="white" stroke="#2C373D" stroke-width="3" stroke-miterlimit="10" stroke-linejoin="round"/>
<path d="M615.962 132.293H607.318V147.13H615.962V132.293Z" stroke="#2C373D" stroke-width="3" stroke-miterlimit="10" stroke-linejoin="round"/>
<path d="M549.123 139.468L599.77 119.887" stroke="#2C373D" stroke-width="3" stroke-miterlimit="10" stroke-linejoin="round"/>
<path d="M507.363 135.455C508.337 135.212 509.311 135.333 510.164 135.576C516.008 137.887 536.948 147.738 559.594 147.617C562.272 147.617 564.22 150.292 564.098 152.846C564.098 152.846 545.349 153.09 527.939 148.346C516.008 145.184 506.511 140.928 501.033 138.617C500.302 138.252 500.302 137.158 501.154 136.914L507.363 135.455Z" fill="white" stroke="#2C373D" stroke-width="3" stroke-miterlimit="10"/>
<path d="M574.325 149.806L575.786 148.711C577.247 147.617 578.708 147.13 580.534 147.13H618.885" stroke="#2C373D" stroke-width="3" stroke-miterlimit="10" stroke-linecap="round" stroke-linejoin="round"/>
<path d="M564.828 133.509H574.812C575.298 133.509 575.785 133.387 576.272 133.266L602.692 123.05H591.734" stroke="#2C373D" stroke-width="3" stroke-miterlimit="10" stroke-linejoin="round"/>
<path d="M581.021 142.022C605.127 135.333 628.746 130.59 654.922 126.942C660.401 126.212 659.062 119.401 654.435 120.009H654.557C625.703 124.509 601.475 130.833 579.682 138.374" fill="white"/>
<path d="M581.021 142.022C605.127 135.333 628.746 130.59 654.922 126.942C660.401 126.212 659.062 119.401 654.435 120.009H654.557C625.703 124.509 601.475 130.833 579.682 138.374" stroke="#2C373D" stroke-width="3" stroke-miterlimit="10" stroke-linejoin="round"/>
<path d="M457.568 124.752L468.039 123.536L505.415 122.442C515.642 122.077 516.86 127.185 506.024 127.55C501.641 127.671 484.718 128.401 469.987 128.036C461.83 127.793 459.151 126.942 459.151 126.942L457.568 124.752Z" stroke="#2C373D" stroke-width="3" stroke-miterlimit="10" stroke-linejoin="round"/>
<path d="M536.096 139.833C544.983 138.131 571.524 136.306 579.316 138.131C582.969 138.982 583.456 142.63 577.247 143.117C570.916 143.603 549.853 142.63 536.096 139.833Z" fill="white" stroke="#2C373D" stroke-width="3" stroke-miterlimit="10" stroke-linejoin="round"/>
<path fill-rule="evenodd" clip-rule="evenodd" d="M445.637 126.455C450.75 124.266 468.282 123.05 473.274 124.144C475.587 124.631 476.074 127.185 472.056 127.671C468.16 128.158 454.646 128.036 445.637 126.455Z" fill="white" stroke="#2C373D" stroke-width="3" stroke-miterlimit="10" stroke-linejoin="round"/>
<path d="M669.289 135.577H672.942C673.794 135.577 674.403 136.185 674.403 137.036V144.455C674.403 145.306 673.794 145.914 672.942 145.914H669.289C668.437 145.914 667.828 145.306 667.828 144.455V137.036C667.828 136.185 668.437 135.577 669.289 135.577Z" stroke="#2C373D" stroke-width="3" stroke-miterlimit="10" stroke-linejoin="round"/>
<path d="M453.794 81.4561L468.769 114.901H483.135C484.353 114.901 485.083 113.564 484.475 112.591L467.308 84.1317C466.456 82.7939 465.117 81.9425 463.534 81.9425L453.794 81.4561Z" stroke="#2C373D" stroke-width="3" stroke-miterlimit="10" stroke-linejoin="round"/>
<path d="M479.726 105.658H477.413" stroke="#2C373D" stroke-width="3" stroke-miterlimit="10" stroke-linecap="round" stroke-linejoin="round"/>
<path d="M471.448 91.4287H469.135" stroke="#2C373D" stroke-width="3" stroke-miterlimit="10" stroke-linecap="round" stroke-linejoin="round"/>
<path d="M850 437H251" stroke="#2C373D" stroke-width="4" stroke-miterlimit="10" stroke-linecap="round" stroke-linejoin="round"/>
<path d="M238.786 437.071H172.434" stroke="#2C373D" stroke-width="4" stroke-miterlimit="10" stroke-linecap="round" stroke-linejoin="round"/>
<path d="M160.746 437.071H130.309" stroke="#2C373D" stroke-width="4" stroke-miterlimit="10" stroke-linecap="round" stroke-linejoin="round"/>
<path d="M247.674 245.034H334.115" stroke="#2C373D" stroke-width="4" stroke-miterlimit="10" stroke-linecap="round" stroke-linejoin="round"/>
<path d="M832.797 370.545L826.345 366.653C819.648 362.64 811.37 362.518 804.552 366.41L803.212 367.14C796.273 371.032 787.872 370.91 781.054 366.653C774.48 362.64 766.323 362.275 759.505 365.924L756.339 367.626C749.521 371.275 741.364 370.91 734.79 366.897L734.546 366.775C727.972 362.64 719.693 362.397 712.875 366.167" stroke="#008DD2" stroke-width="4" stroke-miterlimit="10" stroke-linecap="round" stroke-linejoin="round"/>
<path d="M691.204 365.802C684.507 361.789 676.229 361.667 669.411 365.559L668.071 366.289C661.132 370.18 652.731 370.059 645.913 365.802C639.339 361.789 631.182 361.424 624.364 365.072L621.198 366.775" stroke="#008DD2" stroke-width="4" stroke-miterlimit="10" stroke-linecap="round" stroke-linejoin="round"/>
<path d="M791.646 335.275C795.054 335.154 798.463 334.181 801.507 332.478L802.846 331.749C809.786 327.857 818.187 327.978 825.005 332.235C831.579 336.248 839.736 336.613 846.554 332.965L849.719 331.262" stroke="#008DD2" stroke-width="4" stroke-miterlimit="10" stroke-linecap="round" stroke-linejoin="round"/>
<path d="M306.479 148.225V194.44" stroke="#2C373D" stroke-width="4" stroke-miterlimit="10" stroke-linecap="round" stroke-linejoin="round"/>
<path d="M178.764 316.668C172.068 312.654 163.789 312.533 156.971 316.425L155.632 317.154C148.693 321.046 140.292 320.924 133.474 316.668C126.9 312.654 118.742 312.289 111.924 315.938L108.759 317.641C101.941 321.289 93.784 320.924 87.2095 316.911L86.9661 316.789C81.4874 313.384 74.7912 312.654 68.8255 314.6C65.4166 315.695 61.8859 316.06 58.3552 316.06H13.917" stroke="#008DD2" stroke-width="4" stroke-miterlimit="10" stroke-linecap="round" stroke-linejoin="round"/>
<path d="M146.744 343.059L145.405 343.789C138.465 347.681 130.065 347.559 123.247 343.303C116.672 339.289 108.515 338.924 101.697 342.573C99.6277 343.667 97.3144 344.276 95.0012 344.276H54.0938" stroke="#008DD2" stroke-width="4" stroke-miterlimit="10" stroke-linecap="round" stroke-linejoin="round"/>
<path d="M937.744 332.478L878.453 332.235C874.435 332.235 870.417 331.384 866.521 330.046C860.921 328.1 854.712 328.586 849.355 331.384L846.189 333.086" stroke="#008DD2" stroke-width="4" stroke-miterlimit="10" stroke-linecap="round" stroke-linejoin="round"/>
<path d="M332.168 47.7673C332.046 47.2808 332.046 46.7943 332.046 46.3079C332.046 39.9837 337.159 34.754 343.612 34.754C344.221 34.754 344.83 34.754 345.317 34.8757C347.021 29.0379 352.378 24.7812 358.709 24.7812C365.649 24.7812 371.371 29.8893 372.466 36.4567C375.875 37.6729 378.432 40.9566 378.432 44.8484C378.432 45.6998 378.31 46.5511 378.067 47.4024" stroke="#909FA8" stroke-width="4" stroke-miterlimit="10" stroke-linecap="round" stroke-linejoin="round"/>
<path d="M162.207 125.847C162.207 125.725 162.207 125.604 162.207 125.361C162.207 119.644 166.103 114.78 171.338 113.32C172.19 98.4826 184.487 86.6855 199.584 86.6855C209.811 86.6855 218.82 92.1584 223.812 100.307C224.907 100.064 226.125 100.064 227.342 100.064C238.787 100.064 248.04 109.307 248.04 120.739C248.04 122.563 247.796 124.266 247.431 125.847" stroke="#909FA8" stroke-width="4" stroke-miterlimit="10" stroke-linecap="round" stroke-linejoin="round"/>
<path d="M162.207 126.333H38.0234" stroke="#909FA8" stroke-width="4" stroke-miterlimit="10" stroke-linecap="round" stroke-linejoin="round"/>
<path d="M246.944 127.55H391.094" stroke="#909FA8" stroke-width="4" stroke-miterlimit="10" stroke-linecap="round" stroke-linejoin="round"/>
<path d="M286.269 47.8889H332.046" stroke="#909FA8" stroke-width="4" stroke-miterlimit="10" stroke-linecap="round" stroke-linejoin="round"/>
<path d="M378.067 47.6458H400.469" stroke="#909FA8" stroke-width="4" stroke-miterlimit="10" stroke-linecap="round" stroke-linejoin="round"/>
<path d="M85.1401 113.807H168.538" stroke="#909FA8" stroke-width="4" stroke-miterlimit="10" stroke-linecap="round" stroke-linejoin="round"/>
<path d="M749.765 83.5235C749.765 83.4019 749.765 83.2803 749.765 83.1587C749.765 78.2939 753.661 74.4021 758.531 74.4021C758.896 74.4021 759.14 74.4021 759.505 74.5237" stroke="#909FA8" stroke-width="4" stroke-miterlimit="10" stroke-linecap="round" stroke-linejoin="round"/>
<path d="M795.055 72.8208C795.177 72.8208 795.177 72.8208 795.299 72.8208C801.264 72.8208 806.013 77.564 806.013 83.5233" stroke="#909FA8" stroke-width="4" stroke-miterlimit="10" stroke-linecap="round" stroke-linejoin="round"/>
<path d="M749.765 83.5234H717.38" stroke="#909FA8" stroke-width="4" stroke-miterlimit="10" stroke-linecap="round" stroke-linejoin="round"/>
<path d="M846.311 83.5234H806.134" stroke="#909FA8" stroke-width="4" stroke-miterlimit="10" stroke-linecap="round" stroke-linejoin="round"/>
<path d="M759.383 74.5237C760.479 65.5239 768.149 58.5916 777.402 58.5916C786.046 58.5916 793.351 64.6725 795.177 72.821" stroke="#909FA8" stroke-width="4" stroke-miterlimit="10" stroke-linecap="round" stroke-linejoin="round"/>
<defs>
<linearGradient id="paint0_linear" x1="414.097" y1="232.858" x2="714.141" y2="232.858" gradientUnits="userSpaceOnUse">
<stop stop-color="#008DD2"/>
<stop offset="1" stop-color="#003C5F"/>
</linearGradient>
<linearGradient id="paint1_linear" x1="200.369" y1="340.984" x2="515.843" y2="340.984" gradientUnits="userSpaceOnUse">
<stop stop-color="#1B75BC"/>
<stop offset="1" stop-color="#003C5F"/>
</linearGradient>
</defs>
</svg>
