<svg width="445" height="97" viewBox="0 0 445 97" fill="none" xmlns="http://www.w3.org/2000/svg">
<path d="M220.514 72.4052L215.962 79.1968C215.745 79.558 215.312 79.7748 214.878 79.7748H184.894L181.787 83.8931C181.498 84.2544 181.137 84.3989 180.776 84.3989H178.247C177.38 84.3989 176.585 84.1098 175.863 83.6763C175.14 83.2428 174.634 82.5203 174.273 81.7256C174.056 81.2921 173.84 80.8585 173.623 80.4973C173.334 80.0638 173.045 79.7025 172.756 79.3413C171.889 78.402 170.877 77.6795 169.721 77.1737C168.565 76.668 167.337 76.379 166.037 76.379C164.736 76.379 163.508 76.668 162.352 77.1737C161.196 77.6795 160.112 78.4743 159.317 79.3413L159.245 79.4135C158.956 79.7748 158.667 80.136 158.378 80.4973C158.089 80.9308 157.872 81.3643 157.655 81.7978C157.294 82.5926 156.788 83.2428 156.066 83.6763C155.416 84.1098 154.621 84.3989 153.754 84.3989H153.682C152.815 84.3989 152.02 84.1098 151.297 83.6763L151.225 83.6041C150.575 83.1706 150.069 82.4481 149.708 81.7256C149.491 81.2921 149.274 80.8585 149.058 80.4973C148.841 80.136 148.552 79.7025 148.191 79.3413C147.323 78.3298 146.312 77.535 145.084 76.957C143.928 76.4512 142.627 76.1622 141.254 76.1622C139.882 76.1622 138.581 76.4512 137.425 76.957C136.197 77.535 135.185 78.3298 134.318 79.3413C134.029 79.7025 133.668 80.136 133.451 80.5695C133.162 81.003 132.945 81.4366 132.801 81.9423C132.512 82.6648 132.006 83.3151 131.356 83.7486C130.706 84.1821 129.983 84.4711 129.116 84.4711H126.949C126.443 84.4711 126.009 84.1821 125.793 83.7486L123.408 79.847H103.756C103.033 79.847 102.455 79.269 102.455 78.5465V71.7549C102.455 71.0324 103.033 70.4544 103.756 70.4544H138.509V67.9978C138.509 67.2753 139.087 66.6973 139.809 66.6973H148.263C148.985 66.6973 149.563 67.2753 149.563 67.9978V70.4544H204.474V67.9978C204.474 67.2753 205.052 66.6973 205.775 66.6973H213.867C214.589 66.6973 215.167 67.2753 215.167 67.9978V70.4544H219.503C220.225 70.4544 220.803 71.0324 220.803 71.7549C220.731 71.9716 220.659 72.1884 220.514 72.4052ZM83.2366 94.1528C83.9592 94.1528 84.5372 94.7308 84.5372 95.4533C84.5372 96.1758 83.9592 96.7538 83.2366 96.7538H76.3005C75.578 96.7538 75 96.1758 75 95.4533C75 94.7308 75.578 94.1528 76.3005 94.1528H83.2366ZM113.654 94.1528C114.377 94.1528 114.955 94.7308 114.955 95.4533C114.955 96.1758 114.377 96.7538 113.654 96.7538H88.7277C88.0052 96.7538 87.4272 96.1758 87.4272 95.4533C87.4272 94.7308 88.0052 94.1528 88.7277 94.1528H113.654ZM337.561 94.1528C338.284 94.1528 338.862 94.7308 338.862 95.4533C338.862 96.1758 338.284 96.7538 337.561 96.7538H119.362C118.64 96.7538 118.062 96.1758 118.062 95.4533C118.062 94.7308 118.64 94.1528 119.362 94.1528H238.143C235.831 94.1528 233.664 93.2135 232.146 91.6962C230.629 90.179 229.69 88.0114 229.69 85.6994C229.69 83.3873 230.629 81.2198 232.146 79.7025C233.664 78.1852 235.831 77.246 238.143 77.246C240.455 77.246 242.623 78.1852 244.14 79.7025C245.657 81.2198 246.597 83.3873 246.597 85.6994C246.597 88.0114 245.657 90.179 244.14 91.6962C242.623 93.2135 240.455 94.1528 238.143 94.1528H295.8C293.488 94.1528 291.32 93.2135 289.803 91.6962C288.286 90.179 287.346 88.0114 287.346 85.6994C287.346 83.3873 288.286 81.2198 289.803 79.7025C291.32 78.1852 293.488 77.246 295.8 77.246C298.112 77.246 300.279 78.1852 301.797 79.7025C303.314 81.2198 304.253 83.3873 304.253 85.6994C304.253 88.0114 303.314 90.179 301.797 91.6962C300.279 93.2135 298.112 94.1528 295.8 94.1528H337.561ZM146.023 85.1936C146.023 86.4219 145.517 87.5779 144.65 88.4449C143.855 89.2397 142.699 89.8177 141.399 89.8177C140.098 89.8177 139.015 89.3119 138.148 88.4449C137.353 87.6502 136.775 86.4941 136.775 85.1936C136.775 83.8931 137.281 82.8093 138.148 81.9423C138.942 81.1476 140.098 80.5695 141.399 80.5695C142.627 80.5695 143.783 81.0753 144.65 81.9423C145.517 82.7371 146.023 83.8931 146.023 85.1936ZM142.844 86.5664C143.205 86.2051 143.422 85.6994 143.422 85.1214C143.422 84.5434 143.205 84.0376 142.844 83.6763C142.483 83.3151 141.977 83.0983 141.399 83.0983C140.821 83.0983 140.315 83.3151 139.954 83.6763C139.593 84.0376 139.376 84.5434 139.376 85.1214C139.376 85.6994 139.593 86.2051 139.954 86.5664C140.315 86.9276 140.821 87.1444 141.399 87.1444C141.977 87.1444 142.483 86.9276 142.844 86.5664ZM149.997 85.1936C149.997 87.5057 149.058 89.6732 147.54 91.1905C146.023 92.7078 143.855 93.647 141.543 93.647C139.231 93.647 137.064 92.7078 135.547 91.1905C134.029 89.6732 133.09 87.5057 133.09 85.1936C133.09 82.8816 134.029 80.714 135.547 79.1968C137.064 77.6795 139.231 76.7402 141.543 76.7402C143.855 76.7402 146.023 77.6795 147.54 79.1968C148.985 80.7863 149.997 82.8816 149.997 85.1936ZM145.662 89.3842C146.745 88.3004 147.396 86.8554 147.396 85.1936C147.396 83.6041 146.745 82.0868 145.662 81.003C144.578 79.9193 143.133 79.269 141.471 79.269C139.882 79.269 138.364 79.9193 137.281 81.003C136.197 82.0868 135.547 83.5318 135.547 85.1936C135.547 86.7831 136.197 88.3004 137.281 89.3842C138.364 90.468 139.809 91.1182 141.471 91.1182C143.133 91.1182 144.578 90.468 145.662 89.3842ZM170.444 85.1936C170.444 86.4219 169.938 87.5779 169.071 88.4449C168.276 89.2397 167.12 89.8177 165.82 89.8177C164.592 89.8177 163.436 89.3119 162.569 88.4449C161.701 87.5779 161.196 86.4941 161.196 85.1936C161.196 83.8931 161.701 82.8093 162.569 81.9423C163.363 81.1476 164.519 80.5695 165.82 80.5695C167.12 80.5695 168.204 81.0753 169.071 81.9423L169.143 82.0146C169.938 82.8093 170.444 83.9654 170.444 85.1936ZM167.265 86.5664C167.626 86.2051 167.843 85.6994 167.843 85.1214C167.843 84.6156 167.626 84.1099 167.337 83.7486L167.265 83.6763C166.904 83.3151 166.398 83.0983 165.82 83.0983C165.242 83.0983 164.736 83.3151 164.375 83.6763C164.014 84.0376 163.797 84.5434 163.797 85.1214C163.797 85.6994 164.014 86.2051 164.375 86.5664C164.736 86.9276 165.242 87.1444 165.82 87.1444C166.398 87.1444 166.904 86.9276 167.265 86.5664ZM174.345 85.1936C174.345 87.5057 173.406 89.6732 171.889 91.1905C170.372 92.7078 168.204 93.647 165.892 93.647C163.58 93.647 161.412 92.7078 159.895 91.1905C158.378 89.6732 157.439 87.5057 157.439 85.1936C157.439 82.8816 158.378 80.714 159.895 79.1968C161.412 77.6795 163.58 76.7402 165.892 76.7402C168.204 76.7402 170.372 77.6795 171.889 79.1968C173.406 80.7863 174.345 82.8816 174.345 85.1936ZM170.083 89.3842C171.166 88.3004 171.817 86.8554 171.817 85.1936C171.817 83.6041 171.166 82.0868 170.083 81.003C168.999 79.9193 167.554 79.269 165.892 79.269C164.303 79.269 162.785 79.9193 161.701 81.003C160.618 82.0868 159.967 83.5318 159.967 85.1936C159.967 86.7831 160.618 88.3004 161.701 89.3842C162.785 90.468 164.23 91.1182 165.892 91.1182C167.554 91.1182 168.999 90.468 170.083 89.3842ZM235.109 70.3821V69.0816H243.851V70.3821H273.402L273.98 33.1005C273.98 32.2335 274.341 31.5109 274.919 30.9329C275.497 30.3549 276.22 30.0659 277.087 30.0659H277.159L296.306 31.6554C301.941 32.089 306.782 34.6177 310.395 38.3748C314.079 42.2041 316.464 47.334 316.969 53.0418C316.969 53.1141 316.969 53.1141 316.969 53.1863L318.342 84.1821V84.4711C318.342 86.0606 317.692 87.5057 316.68 88.5172C315.669 89.6009 314.296 90.2512 312.707 90.3235H312.418H306.349C305.626 90.3235 305.048 89.7455 305.048 89.0229V85.0491C305.048 84.7601 305.048 84.9769 305.048 84.8324C304.976 82.1591 303.892 79.7025 302.086 77.8962C300.352 76.09 297.967 75.0062 295.294 75.0062C295.077 75.0062 295.222 75.0062 295.077 75.0062C292.404 75.0784 290.02 76.1622 288.358 77.8962C286.624 79.6303 285.612 82.0146 285.612 84.6879V88.9507C285.612 89.6732 285.034 90.2512 284.312 90.2512H249.198C248.475 90.2512 247.897 89.6732 247.897 88.9507V86.7109C247.897 86.4219 247.897 86.6386 247.897 86.4941C247.825 83.8209 246.741 81.3643 244.935 79.558C243.201 77.7517 240.817 76.668 238.143 76.668C237.927 76.668 238.071 76.668 237.927 76.668C235.253 76.7402 232.869 77.824 231.207 79.558C229.473 81.2921 228.462 83.6763 228.462 86.3496V87.0721C228.462 87.9392 228.1 88.7339 227.522 89.3119C226.944 89.8899 226.15 90.2512 225.283 90.2512H223.91C223.187 90.2512 222.609 89.6732 222.609 88.9507V76.957C222.609 75.1507 223.332 73.4889 224.56 72.2606C225.788 71.0324 227.378 70.3099 229.256 70.3099L235.109 70.3821ZM300.352 85.6271C300.352 86.9276 299.846 88.0114 298.979 88.8784L298.907 88.9507C298.112 89.7454 296.956 90.2512 295.728 90.2512C294.499 90.2512 293.343 89.7454 292.476 88.8784C291.681 88.0837 291.103 86.9276 291.103 85.6271C291.103 84.3266 291.609 83.2428 292.476 82.3758C293.271 81.5811 294.427 81.003 295.728 81.003C296.956 81.003 298.112 81.5088 298.979 82.3758C299.774 83.2428 300.352 84.3989 300.352 85.6271ZM297.173 87.0721C297.534 86.7109 297.751 86.2051 297.751 85.6271C297.751 85.0491 297.534 84.5434 297.173 84.1821C296.811 83.8208 296.306 83.6041 295.728 83.6041C295.15 83.6041 294.644 83.8208 294.283 84.1821C293.921 84.5434 293.705 85.0491 293.705 85.6271C293.705 86.2051 293.921 86.7109 294.283 87.0721C294.644 87.4334 295.15 87.6502 295.728 87.6502C296.233 87.6502 296.739 87.4334 297.173 87.0721ZM299.918 89.89C301.002 88.8062 301.652 87.3612 301.652 85.6994C301.652 84.1099 301.002 82.5926 299.918 81.5088C298.834 80.425 297.389 79.7748 295.728 79.7748C294.138 79.7748 292.621 80.425 291.537 81.5088C290.453 82.5926 289.803 84.0376 289.803 85.6994C289.803 87.2889 290.453 88.8062 291.537 89.89C292.621 90.9737 294.066 91.624 295.728 91.624C297.389 91.5517 298.907 90.9015 299.918 89.89ZM242.695 85.6271C242.695 86.8554 242.189 88.0114 241.322 88.8784C240.528 89.6732 239.372 90.2512 238.071 90.2512C236.843 90.2512 235.687 89.7454 234.82 88.8784C234.025 88.0837 233.447 86.9276 233.447 85.6271C233.447 84.3266 233.953 83.2428 234.82 82.3758L234.892 82.3036C235.687 81.5088 236.843 81.003 238.071 81.003C239.372 81.003 240.455 81.5088 241.322 82.3758L241.395 82.4481C242.189 83.3151 242.695 84.3989 242.695 85.6271ZM239.516 87.0721C239.877 86.7109 240.094 86.2051 240.094 85.6271C240.094 85.1214 239.877 84.6156 239.588 84.2544L239.516 84.1821C239.155 83.8208 238.649 83.6041 238.071 83.6041C237.565 83.6041 237.06 83.8209 236.698 84.1099L236.626 84.1821C236.265 84.5434 236.048 85.0491 236.048 85.6271C236.048 86.2051 236.265 86.7109 236.626 87.0721C236.987 87.4334 237.493 87.6502 238.071 87.6502C238.649 87.6502 239.155 87.4334 239.516 87.0721ZM242.334 89.89C243.418 88.8062 244.068 87.3612 244.068 85.6994C244.068 84.1099 243.418 82.5926 242.334 81.5088C241.25 80.425 239.805 79.7748 238.143 79.7748C236.554 79.7748 235.037 80.425 233.953 81.5088C232.869 82.5926 232.219 84.0376 232.219 85.6994C232.219 87.2889 232.869 88.8062 233.953 89.89C235.037 90.9737 236.482 91.624 238.143 91.624C239.805 91.5517 241.25 90.9015 242.334 89.89ZM298.184 56.8711V44.1549C298.184 43.4324 298.762 42.8544 299.485 42.8544H304.831C306.565 42.8544 308.227 43.5047 309.528 44.5162C310.828 45.5999 311.767 47.045 312.129 48.779L313.429 55.0649C313.501 55.2816 313.501 55.4261 313.501 55.5706C313.501 56.1486 313.285 56.7266 312.923 57.1601C312.562 57.5936 312.056 57.9549 311.478 58.0272C311.262 58.0994 311.117 58.0994 310.973 58.0994H299.629C298.762 58.1717 298.184 57.5936 298.184 56.8711ZM300.785 45.4554V55.5706H310.828C310.395 53.4753 310.033 51.38 309.528 49.2848C309.311 48.1287 308.661 47.1895 307.866 46.5392C306.999 45.8889 305.987 45.4554 304.831 45.4554H300.785ZM312.562 87.6502H312.707C313.574 87.5779 314.368 87.2167 314.946 86.6386C315.524 86.0606 315.886 85.2659 315.886 84.3989V84.2544L314.513 53.2586C314.079 48.1287 311.912 43.5769 308.661 40.1088C305.481 36.7853 301.146 34.6177 296.233 34.1842L277.014 32.5947C276.87 32.5947 276.798 32.667 276.653 32.7392C276.581 32.8115 276.509 32.956 276.509 33.1005L275.858 71.6826C275.858 72.4052 275.28 72.9832 274.558 72.9832H229.329C228.245 72.9832 227.233 73.4167 226.511 74.1392C225.788 74.8617 225.355 75.8732 225.355 76.957V87.6502H225.427C225.572 87.6502 225.716 87.5779 225.788 87.5057C225.861 87.4334 225.933 87.2889 225.933 87.1444V86.4219C225.933 83.0983 227.306 80.0638 229.473 77.824C231.641 75.5842 234.675 74.2114 237.999 74.1392C238.288 74.1392 238.143 74.1392 238.216 74.1392C241.611 74.1392 244.646 75.5842 246.886 77.824C249.126 80.0638 250.498 83.1706 250.571 86.4941C250.571 86.7109 250.571 86.6386 250.571 86.7109V87.6502H283.084V84.6879C283.084 81.3643 284.456 78.3298 286.624 76.09C288.791 73.8502 291.826 72.4774 295.15 72.4052C295.439 72.4052 295.294 72.4052 295.366 72.4052C298.762 72.4052 301.797 73.8502 304.036 76.09C306.276 78.3298 307.649 81.4366 307.721 84.7601C307.721 84.9769 307.721 84.9046 307.721 84.9769V87.6502H312.562ZM214.228 77.1737L217.046 72.9832H213.867C213.144 72.9832 212.566 72.4052 212.566 71.6826V69.2261H207.003V71.6826C207.003 72.4052 206.425 72.9832 205.703 72.9832H148.191C147.468 72.9832 146.89 72.4052 146.89 71.6826V69.2261H141.038V71.6826C141.038 72.4052 140.46 72.9832 139.737 72.9832H105.057V77.1737H124.275C124.709 77.1737 125.142 77.3905 125.359 77.824L127.816 81.7978H129.261C129.55 81.7978 129.766 81.7256 129.983 81.5811C130.2 81.4366 130.417 81.2198 130.489 80.9308C130.706 80.3528 130.995 79.7748 131.356 79.1968C131.717 78.6188 132.078 78.113 132.512 77.6072C133.596 76.3067 134.969 75.2952 136.486 74.5727C138.003 73.8502 139.665 73.4889 141.399 73.4889C143.133 73.4889 144.795 73.8502 146.312 74.5727C147.829 75.2952 149.202 76.3067 150.286 77.6072C150.647 78.0407 151.008 78.5465 151.37 79.0523C151.659 79.558 151.948 80.136 152.237 80.6418C152.381 80.9308 152.598 81.2198 152.815 81.4366C153.104 81.5811 153.393 81.7256 153.682 81.7256H153.754C154.115 81.7256 154.404 81.6533 154.621 81.4366C154.91 81.2198 155.127 81.003 155.271 80.6418C155.488 80.0638 155.849 79.4858 156.138 78.98C156.427 78.4743 156.788 78.0407 157.222 77.535L157.294 77.4627C158.378 76.2345 159.751 75.2952 161.196 74.6449C162.641 73.9947 164.23 73.6334 165.892 73.6334C167.554 73.6334 169.143 73.9947 170.588 74.6449C172.106 75.2952 173.406 76.3067 174.49 77.4627C174.923 77.9685 175.285 78.402 175.646 78.9078C176.007 79.4135 176.296 79.9915 176.513 80.4973C176.658 80.8585 176.874 81.1475 177.236 81.292C177.525 81.5088 177.814 81.5811 178.175 81.5811H180.053L183.088 77.535C183.305 77.1737 183.738 76.957 184.172 76.957L214.228 77.1737Z" fill="#3C464E"/>
<path d="M281.35 26.8869V24.2136C281.35 21.6126 279.255 19.445 276.581 19.445H271.813C271.379 19.445 271.09 19.0838 271.09 18.7225C271.09 18.289 270.729 18 270.368 18H104.046C103.612 18 103.323 18.3613 103.323 18.7225V68.3591C103.323 68.7926 103.684 69.0816 104.046 69.0816H270.296C270.729 69.0816 271.018 68.7204 271.018 68.3591V28.4042C271.018 27.9707 271.379 27.6817 271.741 27.6817H280.483C280.989 27.6094 281.35 27.3204 281.35 26.8869ZM187.423 24.3581C187.423 23.6356 188.001 23.0576 188.724 23.0576C189.446 23.0576 190.024 23.6356 190.024 24.3581V39.6031L195.877 33.7508V26.3811C195.877 25.6586 196.455 25.0806 197.177 25.0806C197.9 25.0806 198.478 25.6586 198.478 26.3811V32.667L198.55 32.7393H204.836C205.559 32.7393 206.137 33.3173 206.137 34.0398C206.137 34.7623 205.559 35.3403 204.836 35.3403H197.9L191.831 41.4094H207.076C207.798 41.4094 208.376 41.9874 208.376 42.7099C208.376 43.4324 207.798 44.0105 207.076 44.0105H191.975L197.755 49.7906H204.691C205.414 49.7906 205.992 50.3686 205.992 51.0911C205.992 51.8136 205.414 52.3916 204.691 52.3916H198.55C198.478 52.4638 198.406 52.5361 198.333 52.5361V58.6775C198.333 59.4 197.755 59.978 197.033 59.978C196.31 59.978 195.732 59.4 195.732 58.6775V51.4523L189.952 45.6722V61.0617C189.952 61.7843 189.374 62.3623 188.652 62.3623C187.929 62.3623 187.351 61.7843 187.351 61.0617V45.889L181.499 51.7413V58.9665C181.499 59.689 180.921 60.267 180.198 60.267C179.476 60.267 178.898 59.689 178.898 58.9665V52.6084H172.54C171.817 52.6084 171.239 52.0303 171.239 51.3078C171.239 50.5853 171.817 50.0073 172.54 50.0073H179.548L185.473 44.0827H170.3C169.577 44.0827 168.999 43.5047 168.999 42.7822C168.999 42.0597 169.577 41.4817 170.3 41.4817H185.617L179.62 35.4848H172.467C171.745 35.4848 171.167 34.9068 171.167 34.1843C171.167 33.4618 171.745 32.8838 172.467 32.8838H178.826V26.5256C178.826 25.8031 179.404 25.2251 180.126 25.2251C180.849 25.2251 181.427 25.8031 181.427 26.5256V33.6785L187.279 39.5309L187.423 24.3581Z" fill="url(#paint0_linear)"/>
<path d="M17.3618 30.5996C17.3618 30.5382 17.3618 30.4767 17.3618 30.4152C17.3618 27.9568 19.3301 25.99 21.7904 25.99C21.9749 25.99 22.098 25.99 22.2825 26.0514" stroke="#909FA8" stroke-width="2" stroke-miterlimit="10" stroke-linecap="round" stroke-linejoin="round"/>
<path d="M40.2427 25.1909C40.3042 25.1909 40.3042 25.1909 40.3657 25.1909C43.3796 25.1909 45.7784 27.5879 45.7784 30.5996" stroke="#909FA8" stroke-width="2" stroke-miterlimit="10" stroke-linecap="round" stroke-linejoin="round"/>
<path d="M17.3612 30.5996H1" stroke="#909FA8" stroke-width="2" stroke-miterlimit="10" stroke-linecap="round" stroke-linejoin="round"/>
<path d="M66.1376 30.5996H45.8398" stroke="#909FA8" stroke-width="2" stroke-miterlimit="10" stroke-linecap="round" stroke-linejoin="round"/>
<path d="M22.2202 26.0515C22.7738 21.5033 26.6488 18 31.3234 18C35.6905 18 39.381 21.0731 40.3037 25.1911" stroke="#909FA8" stroke-width="2" stroke-miterlimit="10" stroke-linecap="round" stroke-linejoin="round"/>
<path d="M403.738 20.7908C403.738 20.7293 403.738 20.6678 403.738 20.5449C403.738 17.6562 405.707 15.1977 408.351 14.4602C408.782 6.96181 414.994 1 422.621 1C427.788 1 432.34 3.7658 434.861 7.88375C435.415 7.76082 436.03 7.76081 436.645 7.76081C442.427 7.76081 447.102 12.4319 447.102 18.2093C447.102 19.1313 446.979 19.9917 446.794 20.7908" stroke="#909FA8" stroke-width="2" stroke-miterlimit="10" stroke-linecap="round" stroke-linejoin="round"/>
<path d="M403.738 21.0369H341" stroke="#909FA8" stroke-width="2" stroke-miterlimit="10" stroke-linecap="round" stroke-linejoin="round"/>
<path d="M364.803 14.7061H406.936" stroke="#909FA8" stroke-width="2" stroke-miterlimit="10" stroke-linecap="round" stroke-linejoin="round"/>
<defs>
<linearGradient id="paint0_linear" x1="103.319" y1="43.5869" x2="281.379" y2="43.5869" gradientUnits="userSpaceOnUse">
<stop stop-color="#008DD2"/>
<stop offset="1" stop-color="#003C5F"/>
</linearGradient>
</defs>
</svg>
