<svg width="374" height="115" viewBox="0 0 374 115" fill="none" xmlns="http://www.w3.org/2000/svg">
<path d="M37.5612 111.947C36.6219 111.947 35.7549 111.152 35.6827 110.213V109.924C35.6104 108.84 36.4052 107.973 37.4167 107.829L130.26 100.387C128.237 99.9534 126.286 99.5199 124.335 99.0141C113.786 96.4131 104.394 92.4392 97.602 89.6214C93.9172 88.1042 90.9549 86.8759 89.2208 86.4424C88.7151 86.2979 88.3538 86.0089 88.1371 85.6476C87.9203 85.3586 87.8481 84.9974 87.8481 84.6361C87.8481 84.2749 87.9203 83.9859 88.0648 83.6246C88.2816 83.2633 88.6429 82.9021 89.1486 82.7576L92.2554 81.8183C77.2271 76.255 65.0167 72.2812 56.202 69.6079H55.624C54.2513 69.5356 52.9507 69.5356 51.7947 69.4634C48.8324 69.4634 45.2198 69.3911 41.535 69.2466C35.6827 68.9576 29.4691 68.4518 24.3392 67.5848C23.6167 67.4403 23.1832 66.7901 23.2555 66.0676C23.3277 65.634 23.6167 65.2005 24.0502 65.056C27.3738 63.6833 34.3822 62.5272 41.4628 61.9492C42.1131 61.877 42.8356 61.877 43.4858 61.8047C47.8209 60.4319 54.6848 56.8916 51.2889 48.944C50.1329 46.1985 46.5926 38.0341 42.691 29.2917L33.6596 9.06133C33.5874 8.91683 33.5152 8.77232 33.5152 8.55556C31.7089 4.50949 30.5528 1.83621 30.5528 1.83621C30.2638 1.18595 30.5528 0.391187 31.2031 0.102182C31.4199 0.0299309 31.6366 -0.0423247 31.8533 0.0299265L48.5434 1.25818C51.7947 1.47494 54.9015 2.34197 57.7916 3.64249C61.0429 5.08751 64.0052 7.11055 66.6785 9.49484C77.2271 18.6707 85.3193 25.9681 91.8219 31.8205C117.399 54.8686 118.772 56.0969 140.736 56.1691C156.993 56.1691 182.931 56.2414 210.025 56.3136C242.394 56.3859 276.496 56.4582 298.099 56.4582C299.544 56.4582 301.062 56.4582 302.651 56.4582C320.569 56.3137 348.675 56.1691 358.935 70.7639L367.099 73.7985C369.556 74.7377 371.723 77.0497 372.879 80.012C373.602 81.9628 373.891 84.2749 373.385 86.5869C372.879 88.899 371.579 91.211 369.267 93.3063C364.859 97.3524 356.623 100.531 342.534 101.109H342.461H261.974C261.757 102.41 261.107 103.638 260.167 104.505C259.011 105.734 257.35 106.456 255.543 106.456H249.619C249.402 107.829 248.824 108.985 247.885 109.924C246.801 111.008 245.284 111.73 243.622 111.73C241.96 111.73 240.443 111.08 239.359 109.924C238.42 108.985 237.842 107.829 237.625 106.456H236.035C235.819 107.829 235.241 108.985 234.301 109.924C233.218 111.008 231.7 111.73 230.039 111.73C228.377 111.73 226.859 111.08 225.776 109.924C224.836 108.985 224.258 107.829 224.042 106.456H222.452C222.235 107.829 221.657 108.985 220.718 109.924C219.634 111.008 218.117 111.73 216.455 111.73C214.794 111.73 213.276 111.08 212.192 109.924C211.253 108.985 210.675 107.829 210.458 106.456H208.869C208.652 107.829 208.074 108.985 207.135 109.924C206.051 111.008 204.534 111.73 202.872 111.73C201.21 111.73 199.693 111.08 198.609 109.924C197.67 108.985 197.092 107.829 196.875 106.456H192.396C190.589 106.456 189 105.733 187.772 104.577C186.832 103.638 186.182 102.482 185.965 101.109C183.87 101.182 179.318 101.254 173.466 101.109C173.61 101.832 173.683 102.554 173.683 103.277V104.577H172.382C172.31 104.577 161.183 104.505 147.311 102.843L37.4167 111.658C37.6335 111.947 37.5612 111.947 37.5612 111.947ZM8.23664 112.092C8.95915 112.092 9.53715 112.67 9.53715 113.392C9.53715 114.115 8.95915 114.693 8.23664 114.693H1.30051C0.578001 114.693 0 114.115 0 113.392C0 112.67 0.578001 112.092 1.30051 112.092H8.23664ZM49.1256 112.092C49.8481 112.092 50.4262 112.67 50.4262 113.392C50.4262 114.115 49.8481 114.693 49.1256 114.693H13.8C13.0775 114.693 12.4995 114.115 12.4995 113.392C12.4995 112.67 13.0775 112.092 13.8 112.092H49.1256ZM360.994 112.092C361.717 112.092 362.295 112.67 362.295 113.392C362.295 114.115 361.717 114.693 360.994 114.693H55.8335C55.111 114.693 54.533 114.115 54.533 113.392C54.533 112.67 55.111 112.092 55.8335 112.092H311.61C310.382 112.019 309.298 111.441 308.431 110.647C307.492 109.707 306.986 108.479 306.986 107.106C306.986 105.733 307.564 104.433 308.431 103.566C309.37 102.627 310.599 102.121 311.971 102.121C313.344 102.121 314.645 102.699 315.512 103.566L315.584 103.638C316.451 104.577 316.957 105.733 316.957 107.106C316.957 108.479 316.379 109.707 315.512 110.647C314.717 111.441 313.561 112.019 312.333 112.092H360.994ZM57.069 22.6446H54.5403C53.8177 22.6446 53.2397 22.0666 53.2397 21.344C53.2397 20.6215 53.8177 20.0435 54.5403 20.0435H55.5518L51.1444 12.7461C50.7109 12.0959 50.2052 11.5179 49.5549 11.1566C48.9046 10.7954 48.1821 10.5786 47.3874 10.5064L37.0554 10.0006C39.2952 14.9859 42.113 21.4163 44.8586 27.6299L54.9015 50.1723H72.5308C72.6753 50.1723 72.7476 50.1723 72.8921 50.1C72.9643 50.0278 73.1088 49.9555 73.1088 49.8833C73.1811 49.811 73.1811 49.6665 73.1811 49.522C73.1811 49.4498 73.1811 49.3052 73.1088 49.1607L68.1235 40.9241H65.2334C64.5109 40.9241 63.9329 40.3461 63.9329 39.6236C63.9329 38.9011 64.5109 38.3231 65.2334 38.3231H66.5339L57.069 22.6446ZM35.8272 7.39954L47.4596 7.90531C48.6879 7.97756 49.8439 8.33881 50.7832 8.91682C51.7947 9.49483 52.6617 10.3618 53.2397 11.3734L75.2041 47.788C75.4931 48.2938 75.6376 48.8718 75.6376 49.4498C75.6376 50.0278 75.4931 50.6058 75.2041 51.0393C74.9151 51.5451 74.5539 51.9786 74.0481 52.2676C73.5423 52.5566 73.0366 52.7011 72.3863 52.7011H54.8293C55.046 56.8194 52.8062 59.6372 50.0607 61.5157H50.3497L52.8062 61.2267C52.8785 61.2267 52.9507 61.2267 52.9507 61.2267L100.781 59.7817C105.983 59.5649 109.523 60.5042 111.257 61.7325C112.125 62.3827 112.63 63.1775 112.702 64.0445C112.775 64.9115 112.414 65.7785 111.547 66.501C110.101 67.8016 106.85 68.8131 101.648 68.9576C100.998 68.9576 100.131 69.0298 98.9748 69.0298C92.4722 69.2466 78.8889 69.7524 65.1612 69.6801C73.5423 72.3534 83.9465 75.8937 96.0125 80.4456L104.249 77.8445H104.466C105.044 77.8445 105.55 77.9167 106.128 78.0612C106.706 78.2057 107.211 78.4225 107.717 78.6393C110.39 80.0121 117.399 83.4801 127.586 86.6592C137.774 89.8382 151.14 92.8005 166.53 93.1618C168.553 93.234 170.359 94.6068 171.732 96.4853C172.165 97.1356 172.599 97.8581 172.888 98.6529C180.619 98.7974 186.399 98.6529 187.266 98.6529C187.338 98.6529 187.338 98.6529 187.41 98.6529C188.133 98.6529 188.711 99.2309 188.711 99.9534V100.098C188.711 101.182 189.144 102.193 189.867 102.843C190.589 103.566 191.529 103.999 192.612 103.999H255.543C256.627 103.999 257.566 103.566 258.289 102.843C259.011 102.121 259.445 101.109 259.445 99.9534V100.026C259.445 99.3031 260.023 98.7251 260.745 98.7251H342.389C355.756 98.2194 363.487 95.257 367.46 91.5722C369.339 89.8382 370.35 88.0319 370.784 86.1534C371.217 84.3471 371.001 82.6131 370.423 81.0236C369.556 78.7838 367.966 76.9775 366.16 76.3272L360.452 74.1597H342.534C341.667 74.1597 340.872 73.7262 340.366 73.0759C339.86 72.4979 339.571 71.7031 339.571 70.8361V68.1629C339.571 67.5849 339.788 67.0791 340.077 66.7178C340.438 66.2843 340.944 65.9953 341.594 65.9953H349.759C337.404 58.7702 316.74 58.9147 302.651 58.9869C301.062 58.9869 299.544 58.9869 298.099 58.9869H297.666L297.738 59.0592C298.171 59.7817 298.46 60.5042 298.605 61.299C298.749 62.0938 298.677 62.9607 298.46 63.7555C297.882 65.7785 296.076 67.5126 292.969 67.9461C279.169 69.8969 265.875 72.0644 252.942 74.521C253.809 75.6047 254.387 76.9775 254.387 78.4225V87.7429C254.387 89.477 253.665 90.9942 252.581 92.078C251.497 93.1618 249.908 93.8843 248.246 93.8843H246.801C246.729 93.8843 246.656 93.8843 246.584 93.8843H197.453C196.442 93.8843 195.502 94.0288 194.635 94.3178C193.768 94.6068 192.901 95.0403 192.107 95.6183L190.228 96.9911C189.65 97.4246 188.855 97.2801 188.422 96.7021C187.988 96.1241 188.133 95.3293 188.711 94.8958L190.589 93.523C191.601 92.8005 192.685 92.2225 193.841 91.8613C194.997 91.5 196.153 91.2833 197.453 91.2833H221.079C220.501 90.7052 220.068 90.1272 219.634 89.4047L212.12 88.1042C211.47 88.0319 211.036 87.4539 211.036 86.8037V83.7691C206.846 84.8529 202.728 85.9366 198.537 87.0927C197.381 87.8874 195.575 88.4654 193.046 88.6099C188.494 88.9712 178.018 88.6822 166.53 87.7429C157.498 87.0204 147.889 85.8644 140.013 84.3471C139.291 84.2026 138.857 83.5524 139.002 82.8299C139.074 82.2518 139.58 81.8906 140.086 81.8183C144.71 80.9513 152.946 80.012 161.833 79.434L215.444 58.6979H210.097C183.003 58.6257 157.137 58.5534 140.808 58.5534C117.905 58.5534 116.46 57.1807 90.2324 33.5545C83.6575 27.6299 75.4931 20.2603 65.1612 11.2289C62.6324 8.98908 59.8146 7.11054 56.8523 5.73777C54.2513 4.5095 51.4334 3.78699 48.4711 3.57023L33.8764 2.48646L35.8272 7.39954ZM141.964 61.7325H146.01C146.805 61.7325 147.528 62.0937 148.106 62.5995C148.611 63.1053 148.973 63.8277 148.973 64.6948V72.8592C148.973 73.654 148.611 74.3764 148.106 74.9545L148.033 75.0267C147.528 75.5325 146.805 75.8215 146.083 75.8215H142.036C141.242 75.8215 140.519 75.4602 139.941 74.9545C139.435 74.4487 139.074 73.7262 139.074 72.9314V64.767C139.074 63.9723 139.435 63.2498 139.941 62.6717C140.447 62.0937 141.169 61.7325 141.964 61.7325ZM146.01 64.3335H141.964C141.892 64.3335 141.82 64.3335 141.748 64.4058C141.675 64.478 141.675 64.5503 141.675 64.6225V72.7869C141.675 72.8592 141.675 72.9314 141.748 73.0037C141.82 73.0759 141.892 73.0759 141.964 73.0759H146.01C146.083 73.0759 146.155 73.0759 146.227 73.0037C146.299 72.9314 146.299 72.8592 146.299 72.7869V64.6225C146.299 64.5503 146.227 64.478 146.227 64.4058C146.227 64.4058 146.155 64.3335 146.01 64.3335ZM311.104 76.6162H315.873C316.74 76.6162 317.535 76.9775 318.113 77.5555C318.691 78.1335 319.052 78.9283 319.052 79.7953V89.2602C319.052 90.1272 318.691 90.922 318.113 91.5C317.535 92.078 316.74 92.4393 315.873 92.4393H311.104C310.237 92.4393 309.443 92.078 308.865 91.5L308.792 91.4277C308.287 90.8497 307.925 90.1272 307.925 89.2602V79.7953C307.925 78.9283 308.287 78.1335 308.865 77.5555C309.443 76.9775 310.237 76.6162 311.104 76.6162ZM315.873 79.2173H311.104C310.96 79.2173 310.815 79.2896 310.671 79.3618C310.526 79.4341 310.526 79.6508 310.526 79.7953V89.2602C310.526 89.4047 310.599 89.5492 310.671 89.6214L310.743 89.6937C310.888 89.8382 311.032 89.8382 311.177 89.8382H315.945C316.09 89.8382 316.234 89.766 316.379 89.6937C316.523 89.6215 316.523 89.4047 316.523 89.2602V79.7953C316.523 79.6508 316.451 79.5063 316.379 79.3618C316.162 79.2896 316.018 79.2173 315.873 79.2173ZM62.7769 63.611C62.8492 63.7555 62.9936 63.8278 63.0659 63.9723C63.4271 64.478 63.5717 65.1283 63.4994 65.7063C63.4272 66.2121 63.2826 66.79 62.9214 67.2236C77.3716 67.3681 92.1109 66.8623 98.9748 66.5733C100.059 66.5011 100.926 66.501 101.648 66.501C106.2 66.3565 108.873 65.5618 109.957 64.6225C110.101 64.478 110.246 64.3335 110.246 64.3335C110.246 64.2613 110.101 64.1168 109.885 63.9C108.584 62.9608 105.622 62.2382 101.07 62.455L62.7769 63.611ZM41.6795 64.6225C37.9947 64.9115 34.3099 65.345 31.2031 65.923C34.5989 66.2843 38.1392 66.5011 41.535 66.6456C48.8324 67.0068 55.4073 66.8623 58.2251 66.5733C59.6701 66.4288 60.4649 66.0676 60.8261 65.6341C60.8984 65.5618 60.8984 65.4896 60.8984 65.4896C60.8984 65.4173 60.8984 65.4173 60.8261 65.345C60.6094 65.056 60.2481 64.8393 59.5978 64.6948C56.491 63.9723 49.0492 63.9723 41.6795 64.6225ZM200.416 84.2749C214.938 80.3011 229.388 76.833 244.2 73.8707C259.878 70.6916 275.846 68.0184 292.68 65.6341C294.631 65.3451 295.715 64.4058 296.076 63.2497C296.221 62.8162 296.221 62.3827 296.148 61.9492C296.076 61.5157 295.932 61.0822 295.715 60.7209C295.137 59.7817 294.053 59.2037 292.536 59.4204C274.112 62.2382 257.133 65.7785 241.31 69.6801C226.426 73.4372 212.554 77.5555 199.476 82.0351C199.621 82.2518 199.838 82.4686 199.91 82.6131C200.199 83.1911 200.343 83.6969 200.416 84.2749ZM196.514 80.3011C210.314 75.5325 224.909 71.1251 240.587 67.1513C252.22 64.2613 264.502 61.588 277.508 59.2037C261.179 59.2037 241.888 59.1314 222.524 59.0592L218.478 60.6487H225.703C226.209 60.6487 226.715 60.9377 226.932 61.4435C227.221 62.0937 226.859 62.8885 226.209 63.1053L192.396 76.1827C192.034 76.3272 191.673 76.4718 191.24 76.4718C190.878 76.544 190.445 76.544 190.084 76.544H177.295L170.359 79.2173C171.009 79.2173 171.732 79.145 172.382 79.145C182.28 78.7838 191.529 78.9283 196.008 80.012C196.153 80.1565 196.297 80.2288 196.514 80.3011ZM172.454 81.8183C164.218 82.1073 155.475 82.8298 148.756 83.6246C154.536 84.4916 160.822 85.1419 166.819 85.5754C178.162 86.5147 188.494 86.7314 192.974 86.4424C195.43 86.2979 196.875 85.7199 197.526 85.0696C197.742 84.8529 197.814 84.7084 197.814 84.5639C197.814 84.4194 197.814 84.2026 197.67 84.0581C197.309 83.4801 196.514 82.9743 195.358 82.6853C191.095 81.6016 182.136 81.4571 172.454 81.8183ZM249.546 75.4602C247.885 75.7492 246.295 76.1105 244.633 76.4718L244.055 76.6162V91.7167H248.101C249.113 91.7167 249.98 91.2832 250.63 90.7052C251.28 90.055 251.642 89.1879 251.642 88.1764V78.856C251.642 77.8445 251.208 76.9775 250.63 76.3272C250.341 75.8937 249.98 75.6047 249.546 75.4602ZM241.454 77.0498C238.636 77.6278 235.819 78.2058 233.001 78.856V91.6445H241.454V77.0498ZM230.472 79.434C227.365 80.1565 224.186 80.8791 221.079 81.6016V85.2864C221.079 87.0204 221.802 88.6099 222.886 89.6937C224.042 90.8497 225.559 91.5 227.293 91.5H230.4L230.472 79.434ZM218.478 82.2519C216.889 82.6131 215.299 83.0466 213.638 83.4801V86.1534L218.623 87.0204C218.551 86.5147 218.478 85.9366 218.478 85.4309V82.2519ZM211.759 63.2497L183.87 74.0152H190.011C190.228 74.0152 190.517 74.0152 190.734 73.943C190.951 73.8707 191.167 73.8707 191.384 73.7262L218.767 63.1775L211.759 63.2497ZM206.485 106.745H199.765C199.91 107.395 200.271 107.901 200.705 108.335C201.355 108.985 202.222 109.346 203.161 109.346C204.1 109.346 204.967 108.985 205.618 108.335C205.979 107.901 206.34 107.395 206.485 106.745ZM247.09 106.745H240.37C240.515 107.395 240.876 107.901 241.31 108.335C241.96 108.985 242.827 109.346 243.766 109.346C244.706 109.346 245.573 108.985 246.223 108.335C246.584 107.901 246.945 107.395 247.09 106.745ZM233.507 106.745H226.859C227.004 107.395 227.365 107.901 227.799 108.335C228.449 108.985 229.316 109.346 230.255 109.346C231.195 109.346 232.062 108.985 232.712 108.335C233.073 107.901 233.362 107.395 233.507 106.745ZM219.996 106.745H213.276C213.421 107.395 213.782 107.901 214.216 108.335C214.866 108.985 215.733 109.346 216.672 109.346C217.611 109.346 218.478 108.985 219.129 108.335C219.562 107.901 219.851 107.395 219.996 106.745ZM104.755 80.59L91.9664 84.6361C93.7727 85.2864 95.9402 86.2257 98.5413 87.3094C105.261 90.1272 114.581 93.9566 124.913 96.5576C143.771 101.254 165.663 102.121 171.371 102.265C171.154 100.893 170.504 99.4476 169.709 98.2194C168.842 96.9188 167.758 96.0518 166.602 95.9796C150.996 95.6183 137.34 92.656 126.936 89.4047C116.532 86.1534 109.379 82.6131 106.633 81.1681C106.272 81.0236 105.983 80.8791 105.622 80.8068C105.333 80.6623 105.044 80.59 104.755 80.59ZM219.418 89.477C219.418 89.4047 219.345 89.4047 219.345 89.3325C219.418 89.3325 219.418 89.4047 219.418 89.477ZM353.516 68.8131H342.245V71.0529C342.245 71.2697 342.317 71.4864 342.461 71.6309C342.534 71.7032 342.606 71.7754 342.678 71.7754H356.406C355.539 70.6917 354.6 69.6801 353.516 68.8131ZM313.706 108.768C314.139 108.335 314.428 107.757 314.428 107.034C314.428 106.384 314.211 105.806 313.778 105.372L313.706 105.3C313.272 104.866 312.694 104.577 311.971 104.577C311.321 104.577 310.671 104.866 310.237 105.3C309.804 105.733 309.515 106.312 309.515 107.034C309.515 107.684 309.804 108.335 310.237 108.768C310.671 109.202 311.249 109.491 311.971 109.491C312.694 109.491 313.272 109.202 313.706 108.768Z" fill="#374148"/>
<path d="M95.7223 82.1077L78.3098 83.3359C77.6595 83.4082 77.1537 83.9862 77.226 84.6365L78.5987 103.928C78.671 104.578 79.249 105.084 79.8993 105.011L99.1903 103.639C99.8406 103.566 100.346 102.988 100.274 102.338L99.3349 88.9715C98.2511 88.538 97.2396 88.1045 96.3003 87.671L97.2396 101.038H97.1673L83.5118 102.049L82.6448 102.121H82.5726C81.9223 102.121 81.4165 101.615 81.3443 100.965L80.405 87.8878L80.3328 87.0207C80.2605 86.3705 80.7663 85.7925 81.4166 85.7202L82.2836 85.648L89.5809 85.1422H89.5087C88.9307 84.9977 88.9307 84.2029 89.5087 83.9862L95.7223 82.1077ZM91.9652 87.093L82.9338 87.7433C82.6448 87.7433 82.5003 87.96 82.5003 88.249L83.2228 98.0029C83.2228 98.4364 83.8009 98.6532 84.0899 98.2919L92.471 87.8878C92.6155 87.5988 92.3987 87.093 91.9652 87.093ZM93.338 90.4166L86.4019 99.0144C86.0406 99.4479 86.4019 100.026 86.9076 100.026L94.4218 99.5202C94.783 99.5202 94.9998 99.2312 94.9998 98.87L94.4218 90.7778C94.4218 90.4166 94.1328 90.1998 93.7715 90.1998C93.6992 90.1998 93.4825 90.2721 93.338 90.4166ZM68.9171 91.7893L60.7527 92.4396C59.2354 92.5841 58.0794 93.8846 58.2239 95.4019L58.8742 103.566C59.0187 105.084 60.3192 106.24 61.8364 106.095L70.0009 105.445C71.5181 105.3 72.6742 104 72.5297 102.483L71.8794 94.3181C71.7349 92.8731 70.5789 91.7893 69.1338 91.7893C69.0616 91.7171 68.9893 91.7171 68.9171 91.7893ZM83.2951 100.315H83.3673H83.2951Z" fill="url(#paint0_linear)"/>
<defs>
<linearGradient id="paint0_linear" x1="58.2107" y1="94.1291" x2="100.288" y2="94.1291" gradientUnits="userSpaceOnUse">
<stop stop-color="#008DD2"/>
<stop offset="1" stop-color="#003C5F"/>
</linearGradient>
</defs>
</svg>
