<svg width="248" height="79" viewBox="0 0 248 79" fill="none" xmlns="http://www.w3.org/2000/svg">
<path d="M155.918 54.9832H147.176H140.167C139.084 54.9832 138.072 55.4167 137.35 56.1392C136.627 56.8617 136.194 57.8732 136.194 58.957V69.6502H136.266C136.41 69.6502 136.555 69.5779 136.627 69.5057C136.699 69.4334 136.772 69.2889 136.772 69.1444V68.4219C136.772 65.0983 138.144 62.0638 140.312 59.824C142.479 57.5842 145.514 56.2114 148.838 56.1392C149.054 56.1392 148.982 56.1392 149.054 56.1392C152.45 56.1392 155.485 57.5842 157.724 59.824C159.964 62.0638 161.337 65.1706 161.409 68.4942C161.409 68.7109 161.409 68.6386 161.409 68.7109V69.6502H193.922V66.6879C193.922 63.3643 195.295 60.3298 197.463 58.09C199.63 55.8502 202.665 54.4774 205.988 54.4052C206.205 54.4052 206.133 54.4052 206.205 54.4052C209.601 54.4052 212.635 55.8502 214.875 58.09C217.115 60.3298 218.488 63.4366 218.56 66.7601C218.56 66.9769 218.56 66.9046 218.56 66.9769V69.6502H223.329H223.473C224.34 69.5779 225.135 69.2167 225.713 68.6386C226.291 68.0606 226.652 67.2659 226.652 66.3989V66.2544L225.279 35.2586C224.846 30.1287 222.678 25.5769 219.427 22.1088C216.248 18.7853 211.913 16.6177 207 16.1842L187.926 14.5947C187.781 14.5947 187.709 14.667 187.564 14.7392C187.492 14.8115 187.42 14.956 187.42 15.1005L186.77 53.6826C186.77 54.4052 186.191 54.9832 185.469 54.9832H155.918ZM8.23664 76.1528C8.95915 76.1528 9.53717 76.7308 9.53717 77.4533C9.53717 78.1758 8.95915 78.7538 8.23664 78.7538H1.30054C0.578023 78.7538 0 78.1758 0 77.4533C0 76.7308 0.578023 76.1528 1.30054 76.1528H8.23664ZM36.0534 76.1528C36.7759 76.1528 37.3539 76.7308 37.3539 77.4533C37.3539 78.1758 36.7759 78.7538 36.0534 78.7538H13.7278C13.0052 78.7538 12.4272 78.1758 12.4272 77.4533C12.4272 76.7308 13.0052 76.1528 13.7278 76.1528H36.0534ZM245.727 76.1528C246.449 76.1528 247.027 76.7308 247.027 77.4533C247.027 78.1758 246.449 78.7538 245.727 78.7538H41.8335C41.111 78.7538 40.533 78.1758 40.533 77.4533C40.533 76.7308 41.111 76.1528 41.8335 76.1528H52.8157C50.5759 76.0805 48.5528 75.1413 47.1078 73.6962C45.5905 72.179 44.6513 70.0114 44.6513 67.6994C44.6513 65.3873 45.5905 63.2198 47.1078 61.7025C48.6251 60.1853 50.7926 59.246 53.1047 59.246C55.4167 59.246 57.5843 60.1853 59.1015 61.7025C60.6188 63.2198 61.5581 65.3873 61.5581 67.6994C61.5581 70.0114 60.6188 72.179 59.1015 73.6962C57.6565 75.1413 55.6335 76.0805 53.3937 76.1528H77.2366C74.9968 76.0805 72.9738 75.1413 71.5288 73.6962C70.0115 72.179 69.0722 70.0114 69.0722 67.6994C69.0722 65.3873 70.0115 63.2198 71.5288 61.7025C73.046 60.1853 75.2136 59.246 77.5256 59.246C79.8376 59.246 82.0052 60.1853 83.5224 61.7025C85.0397 63.2198 85.979 65.3873 85.979 67.6994C85.979 70.0114 85.0397 72.179 83.5224 73.6962C82.0774 75.1413 80.0544 76.0805 77.8146 76.1528H148.91C146.598 76.1528 144.43 75.2135 142.913 73.6962C141.396 72.179 140.456 70.0114 140.456 67.6994C140.456 65.3873 141.396 63.2198 142.913 61.7025C144.43 60.1853 146.598 59.246 148.91 59.246C151.222 59.246 153.389 60.1853 154.907 61.7025C156.424 63.2198 157.363 65.3873 157.363 67.6994C157.363 70.0114 156.424 72.179 154.907 73.6962C153.389 75.2135 151.222 76.1528 148.91 76.1528H206.566C204.254 76.1528 202.087 75.2135 200.569 73.6962C199.052 72.179 198.113 70.0114 198.113 67.6994C198.113 65.3873 199.052 63.2198 200.569 61.7025C202.087 60.1853 204.254 59.246 206.566 59.246C208.878 59.246 211.046 60.1853 212.563 61.7025C214.08 63.2198 215.02 65.3873 215.02 67.6994C215.02 70.0114 214.08 72.179 212.563 73.6962C211.046 75.2135 208.878 76.1528 206.566 76.1528H245.727ZM61.1246 51.0816V52.8879H116.036V51.0816H118.637V54.1884C118.637 54.9109 118.059 55.4889 117.336 55.4889H59.824C59.1015 55.4889 58.5235 54.9109 58.5235 54.1884V51.0816H61.1246ZM126.729 51.0816V52.8879H131.064C131.786 52.8879 132.364 53.4659 132.364 54.1884C132.364 54.4774 132.292 54.6941 132.148 54.9109L127.596 61.7025C127.379 62.0638 126.945 62.2805 126.512 62.2805H96.5277L93.4209 66.3989C93.1319 66.7601 92.7706 66.9046 92.4093 66.9046H89.8805C89.0135 66.9046 88.2188 66.6156 87.4963 66.1821C86.7738 65.7486 86.268 65.0261 85.9067 64.2313C85.69 63.7978 85.4732 63.3643 85.1842 63.0031C84.8952 62.5695 84.6062 62.2083 84.3172 61.847C83.4502 60.9078 82.4387 60.1852 81.2827 59.6795C80.1267 59.1737 78.8984 58.8847 77.5978 58.8847C76.2973 58.8847 75.0691 59.1737 73.913 59.6795C72.757 60.1852 71.6732 60.98 70.8785 61.847L70.8062 61.9193C70.5172 62.2805 70.2282 62.6418 69.9392 63.0031C69.6502 63.4366 69.4335 63.8701 69.2167 64.3036C68.8555 65.0983 68.3497 65.7486 67.6272 66.1821C66.9769 66.6156 66.1821 66.9046 65.3151 66.9046H65.2429C64.3759 66.9046 63.5811 66.6156 62.8586 66.1821C62.2083 65.7486 61.6303 65.0261 61.2691 64.2313C61.0523 63.7978 60.8355 63.3643 60.6188 63.0031C60.402 62.6418 60.113 62.2083 59.7518 61.847C58.8848 60.8355 57.8732 60.0408 56.645 59.4627C55.489 58.957 54.1884 58.668 52.8157 58.668C51.4429 58.668 50.1424 58.957 48.9864 59.4627C47.7581 60.0408 46.7466 60.8355 45.8796 61.847C45.5906 62.2083 45.2293 62.6418 45.0125 63.0753C44.7235 63.5088 44.5068 63.9423 44.3623 64.3758C44.0733 65.0983 43.5675 65.7486 42.9172 66.1821C42.267 66.6156 41.5445 66.9046 40.6775 66.9046H38.5099C38.0042 66.9046 37.5706 66.6156 37.3539 66.1821L34.9696 62.2805H24.9267C24.2042 62.2805 23.6261 61.7025 23.6261 60.98V54.1884C23.6261 53.4659 24.2042 52.8879 24.9267 52.8879H49.9256V51.0816H52.5266V54.1884C52.5266 54.9109 51.9486 55.4889 51.2261 55.4889H26.2272V59.6795H35.6921C36.1256 59.6795 36.5591 59.8962 36.7759 60.3297L39.2324 64.3036H40.6775C40.9665 64.3036 41.1832 64.2313 41.4 64.0868C41.6167 63.9423 41.8335 63.7256 41.9057 63.4366C42.1225 62.7863 42.4115 62.2805 42.7727 61.7025C43.134 61.1245 43.4953 60.6188 43.9288 60.113C45.0125 58.8125 46.3853 57.801 47.9026 57.0784C49.4199 56.3559 51.0816 55.9947 52.8157 55.9947C54.5497 55.9947 56.2115 56.3559 57.7287 57.0784C59.246 57.801 60.6188 58.8125 61.7026 60.113C62.0638 60.5465 62.4251 61.0523 62.7863 61.558C63.0753 62.0638 63.3643 62.6418 63.6534 63.1476C63.7979 63.5088 64.0146 63.7256 64.3036 63.9423C64.5926 64.0868 64.8816 64.2313 65.1706 64.2313H65.2429C65.6041 64.2313 65.8932 64.1591 66.1099 63.9423C66.3989 63.7256 66.6156 63.5088 66.7601 63.1476C66.9769 62.5696 67.3382 61.9915 67.6272 61.4858C67.9162 60.98 68.2774 60.5465 68.7109 60.0407L68.7832 59.9685C69.8669 58.7402 71.2397 57.801 72.6848 57.1507C74.1298 56.5004 75.7193 56.1392 77.3811 56.1392C79.0429 56.1392 80.6324 56.5004 82.0774 57.1507C83.5947 57.801 84.8952 58.8125 85.979 59.9685C86.4125 60.4743 86.7738 60.9078 87.135 61.4135C87.4963 61.9193 87.7853 62.425 88.002 63.0031C88.1465 63.3643 88.3633 63.6533 88.7245 63.7978C89.0135 64.0146 89.3025 64.0868 89.6638 64.0868H91.5423L94.5769 60.113C94.7936 59.7517 95.2271 59.535 95.6607 59.535H125.573L128.39 55.3444H125.211C124.489 55.3444 123.911 54.7664 123.911 54.0439V50.9371L126.729 51.0816ZM57.6565 67.6994C57.6565 68.9277 57.1507 70.0837 56.2837 70.9507C55.4167 71.8177 54.3329 72.3235 53.0324 72.3235C51.8041 72.3235 50.6481 71.8177 49.7811 70.9507C48.9863 70.1559 48.4084 68.9999 48.4084 67.6994C48.4084 66.3989 48.9141 65.3151 49.7811 64.4481L49.8534 64.3758C50.6481 63.5811 51.8041 63.0753 53.0324 63.0753C54.3329 63.0753 55.4167 63.5811 56.2837 64.4481C57.1507 65.2428 57.6565 66.3989 57.6565 67.6994ZM54.4774 69.0722C54.8387 68.7109 55.0554 68.2051 55.0554 67.6271C55.0554 67.0491 54.8387 66.5434 54.4774 66.1821C54.1162 65.8208 53.6104 65.6041 53.0324 65.6041C52.5267 65.6041 52.0209 65.8208 51.6597 66.1098L51.5874 66.1821C51.2261 66.5434 51.0094 67.0491 51.0094 67.6271C51.0094 68.2051 51.2261 68.7109 51.5874 69.0722C51.9486 69.4334 52.4544 69.6502 53.0324 69.6502C53.6104 69.6502 54.1162 69.4334 54.4774 69.0722ZM57.2953 71.8899C58.379 70.8062 59.0293 69.3612 59.0293 67.6994C59.0293 66.0376 58.379 64.5926 57.2953 63.5088C56.2115 62.4251 54.7665 61.7748 53.1047 61.7748C51.4429 61.7748 49.9979 62.4251 48.9141 63.5088C47.8303 64.5926 47.1801 66.0376 47.1801 67.6994C47.1801 69.2889 47.8303 70.8062 48.9141 71.8899C49.9979 72.9737 51.4429 73.624 53.1047 73.624C54.7665 73.624 56.2115 72.9737 57.2953 71.8899ZM82.0774 67.6994C82.0774 68.9277 81.5716 70.0837 80.7046 70.9507C79.9099 71.7455 78.7538 72.3235 77.4533 72.3235C76.2251 72.3235 75.069 71.8177 74.202 70.9507C73.4073 70.1559 72.8293 68.9999 72.8293 67.6994C72.8293 66.3989 73.335 65.3151 74.202 64.4481C74.9968 63.6533 76.1528 63.0753 77.4533 63.0753C78.7538 63.0753 79.8376 63.5811 80.7046 64.4481L80.7769 64.5203C81.5717 65.3151 82.0774 66.4711 82.0774 67.6994ZM78.8984 69.0722C79.2596 68.7109 79.4764 68.2051 79.4764 67.6271C79.4764 67.1214 79.2596 66.6156 78.9706 66.2544L78.8984 66.1821C78.5371 65.8208 78.0313 65.6041 77.4533 65.6041C76.8753 65.6041 76.3696 65.8208 76.0083 66.1821C75.647 66.5434 75.4303 67.0491 75.4303 67.6271C75.4303 68.2051 75.647 68.7109 76.0083 69.0722C76.3696 69.4334 76.8753 69.6502 77.4533 69.6502C78.0313 69.6502 78.5371 69.4334 78.8984 69.0722ZM81.7162 71.8899C82.7999 70.8062 83.4502 69.3612 83.4502 67.6994C83.4502 66.0376 82.7999 64.5926 81.7162 63.5088C80.6324 62.4251 79.1874 61.7748 77.5256 61.7748C75.9361 61.7748 74.4188 62.4251 73.335 63.5088C72.2513 64.5926 71.601 66.0376 71.601 67.6994C71.601 69.2889 72.2513 70.8062 73.335 71.8899C74.4188 72.9737 75.8638 73.624 77.5256 73.624C79.1874 73.624 80.6324 72.9737 81.7162 71.8899ZM147.176 52.3821V51.0816H155.918V52.3821H184.096L184.674 15.1005C184.674 14.2335 185.035 13.5109 185.613 12.9329C186.191 12.3549 186.914 12.0659 187.781 12.0659H187.853L207 13.6554C212.635 14.089 217.476 16.6177 221.089 20.3748C224.774 24.2041 227.158 29.334 227.664 35.0418C227.664 35.1141 227.664 35.1141 227.664 35.1863L229.036 66.1821V66.4711C229.036 68.0606 228.386 69.4334 227.375 70.5172C226.363 71.6009 224.99 72.2512 223.401 72.3235H223.112H217.043C216.32 72.3235 215.742 71.7455 215.742 71.0229V67.0491C215.742 66.7601 215.742 66.9769 215.742 66.8324C215.67 64.1591 214.586 61.7025 212.78 59.8963C211.046 58.09 208.589 57.0062 205.988 57.0062C205.772 57.0062 205.916 57.0062 205.844 57.0062C203.171 57.0785 200.786 58.1622 199.124 59.8963C197.39 61.6303 196.379 64.0146 196.379 66.6879V70.9507C196.379 71.6732 195.801 72.2512 195.078 72.2512H159.964C159.242 72.2512 158.664 71.6732 158.664 70.9507V68.7109C158.664 68.4219 158.664 68.6387 158.664 68.4942C158.591 65.8209 157.508 63.3643 155.701 61.558C153.967 59.7517 151.511 58.668 148.91 58.668C148.693 58.668 148.838 58.668 148.765 58.668C146.092 58.7402 143.708 59.824 142.046 61.558C140.312 63.2921 139.3 65.6763 139.3 68.3496V69.0722C139.3 69.9392 138.939 70.7339 138.361 71.3119C137.783 71.89 136.988 72.2512 136.121 72.2512H134.749C134.026 72.2512 133.448 71.6732 133.448 70.9507V58.957C133.448 57.1507 134.171 55.4889 135.399 54.2606C136.627 53.0324 138.217 52.3099 140.095 52.3099H147.176V52.3821ZM211.046 67.6271C211.046 68.8554 210.54 70.0114 209.673 70.8784C208.878 71.6732 207.722 72.2512 206.422 72.2512C205.194 72.2512 204.038 71.7454 203.171 70.8784C202.303 70.0114 201.798 68.9277 201.798 67.6271C201.798 66.3989 202.303 65.2428 203.171 64.3758C204.038 63.5811 205.121 63.0031 206.422 63.0031C207.65 63.0031 208.806 63.5088 209.673 64.3758C210.54 65.2428 211.046 66.3989 211.046 67.6271ZM207.867 69.0722C208.228 68.7109 208.445 68.2051 208.445 67.6271C208.445 67.0491 208.228 66.5434 207.867 66.1821C207.506 65.8208 207 65.6041 206.422 65.6041C205.844 65.6041 205.338 65.8208 204.977 66.1821C204.616 66.5434 204.399 67.0491 204.399 67.6271C204.399 68.2051 204.616 68.7109 204.977 69.0722C205.338 69.4334 205.844 69.6502 206.422 69.6502C207 69.6502 207.506 69.4334 207.867 69.0722ZM210.685 71.8899C211.768 70.8062 212.419 69.3612 212.419 67.6994C212.419 66.1099 211.768 64.5926 210.685 63.5088C209.601 62.4251 208.156 61.7748 206.494 61.7748C204.905 61.7748 203.387 62.4251 202.304 63.5088C201.22 64.5926 200.569 66.0376 200.569 67.6994C200.569 69.2889 201.22 70.8062 202.304 71.8899C203.387 72.9737 204.832 73.624 206.494 73.624C208.156 73.624 209.601 72.9015 210.685 71.8899ZM153.462 67.6271C153.462 68.8554 152.956 70.0114 152.089 70.8784C151.294 71.6732 150.138 72.2512 148.838 72.2512C147.537 72.2512 146.453 71.7454 145.586 70.8784L145.514 70.8062C144.719 70.0114 144.214 68.8554 144.214 67.6271C144.214 66.3989 144.719 65.2428 145.586 64.3758C146.381 63.5811 147.537 63.0031 148.838 63.0031C150.066 63.0031 151.222 63.5088 152.089 64.3758C152.884 65.2428 153.462 66.3989 153.462 67.6271ZM150.283 69.0722C150.644 68.7109 150.861 68.2051 150.861 67.6271C150.861 67.0491 150.644 66.5434 150.283 66.1821C149.921 65.8208 149.416 65.6041 148.838 65.6041C148.26 65.6041 147.754 65.8208 147.393 66.1821C147.031 66.5434 146.815 67.0491 146.815 67.6271C146.815 68.1329 147.031 68.6386 147.32 68.9999L147.393 69.0722C147.754 69.4334 148.26 69.6502 148.838 69.6502C149.416 69.6502 149.921 69.4334 150.283 69.0722ZM153.028 71.8899C154.112 70.8062 154.762 69.3612 154.762 67.6994C154.762 66.1099 154.112 64.5926 153.028 63.5088C151.944 62.4251 150.499 61.7748 148.838 61.7748C147.248 61.7748 145.731 62.4251 144.647 63.5088C143.563 64.5926 142.913 66.0376 142.913 67.6994C142.913 69.2889 143.563 70.8062 144.647 71.8899C145.731 72.9737 147.176 73.624 148.838 73.624C150.499 73.624 152.017 72.9015 153.028 71.8899ZM208.878 38.8711V26.1549C208.878 25.4324 209.456 24.8544 210.179 24.8544H215.525C217.26 24.8544 218.921 25.5047 220.222 26.5162C221.522 27.5999 222.462 29.045 222.823 30.779L224.123 37.0649C224.196 37.2816 224.196 37.4261 224.196 37.5706C224.196 38.1486 223.979 38.7266 223.618 39.1601C223.256 39.5936 222.751 39.9549 222.173 40.0272C221.956 40.0994 221.811 40.0994 221.667 40.0994H210.323C209.456 40.1716 208.878 39.5937 208.878 38.8711ZM211.479 27.4554V37.5706H221.522C221.089 35.4753 220.728 33.38 220.222 31.2848C220.005 30.1287 219.355 29.1895 218.56 28.5392C217.693 27.8889 216.682 27.4554 215.525 27.4554H211.479Z" fill="#374148"/>
<path d="M183.084 49.0586V2.02304C183.084 0.867017 182.145 0 180.989 0C179.833 0 178.894 0.939268 178.894 2.02304V39.0879C178.894 40.2439 177.954 41.111 176.871 41.111H25.7933C24.6373 41.111 23.7703 42.0502 23.7703 43.134V48.9863C23.7703 50.1424 24.7095 51.0816 25.7933 51.0816H51.3703H59.8237H117.336H125.428H147.248H155.99H181.133C182.217 51.0816 183.084 50.1424 183.084 49.0586ZM26.8048 43.712C26.8048 43.2062 27.1661 42.845 27.6718 42.845H178.532C179.038 42.845 179.399 43.2062 179.399 43.712C179.399 44.2178 179.038 44.579 178.532 44.579H27.6718C27.1661 44.579 26.8048 44.2178 26.8048 43.712ZM154.762 1.08377C152.955 1.08377 151.51 2.52879 151.51 4.33507V36.7036C151.51 38.5099 152.955 39.9549 154.762 39.9549H173.475C175.281 39.9549 176.726 38.5099 176.726 36.7036V4.33507C176.726 2.52879 175.281 1.08377 173.475 1.08377H154.762ZM153.461 13.3665V10.8377H174.703V13.3665H153.461ZM153.461 29.1895V26.6607H174.703V29.1895H153.461ZM51.5148 1.30052C50.2142 1.30052 49.1305 2.38428 49.1305 3.68481V37.4984C49.1305 38.7989 50.2142 39.8827 51.5148 39.8827H85.3283C86.6289 39.8827 87.7126 38.7989 87.7126 37.4984V3.68481C87.7126 2.38428 86.6289 1.30052 85.3283 1.30052H51.5148ZM52.0928 35.2586V7.94764V6.14136C52.0928 4.84083 53.1765 3.75706 54.477 3.75706H56.2111H82.0048C83.3053 3.75706 84.3168 4.76858 84.3168 6.0691V7.94764V35.2586C84.3168 36.2701 83.4498 37.1371 82.4383 37.1371H80.2708H56.2833H53.9713C52.9598 37.1371 52.0928 36.3424 52.0928 35.2586ZM57.2226 7.94764C56.7168 7.94764 56.2833 8.38115 56.2833 8.88691V26.8052C56.2833 27.6 57.2226 28.0335 57.8006 27.5277L77.6697 9.60942C78.32 9.03141 77.8865 8.01988 77.0194 8.01988L57.2226 7.94764ZM138.722 10.4764C137.06 10.4764 135.543 11.7047 135.398 13.3665C135.254 15.245 136.699 16.8345 138.578 16.8345H143.924C145.586 16.8345 147.103 15.6063 147.248 13.9445C147.392 12.066 145.947 10.4764 144.069 10.4764H138.722ZM108.738 10.4764C107.076 10.4764 105.559 11.7047 105.414 13.3665C105.27 15.245 106.715 16.8345 108.593 16.8345H130.124C131.786 16.8345 133.303 15.6063 133.448 13.9445C133.592 12.066 132.147 10.4764 130.269 10.4764H108.738ZM95.1545 10.4764C93.4927 10.4764 91.9755 11.7047 91.831 13.3665C91.6865 15.245 93.1315 16.8345 95.01 16.8345H100.357C102.018 16.8345 103.536 15.6063 103.68 13.9445C103.825 12.066 102.38 10.4764 100.501 10.4764H95.1545ZM78.8257 14.5225L59.3179 32.0796C58.7399 32.5853 59.1011 33.5968 59.8959 33.5968H79.4037C79.9095 33.5968 80.2708 33.2356 80.2708 32.7298V15.1728C80.2708 14.667 79.8372 14.3057 79.4037 14.3057C79.187 14.2335 78.9702 14.3057 78.8257 14.5225ZM123.405 18.7131C121.743 18.7131 120.226 19.9413 120.081 21.6031C119.937 23.4817 121.382 25.0712 123.26 25.0712H143.996C145.658 25.0712 147.175 23.8429 147.32 22.1811C147.464 20.3026 146.019 18.7131 144.141 18.7131H123.405ZM95.2268 18.7131C93.565 18.7131 92.0477 19.9413 91.9032 21.6031C91.7587 23.4817 93.2037 25.0712 95.0823 25.0712H115.818C117.48 25.0712 118.997 23.8429 119.142 22.1811C119.286 20.3026 117.841 18.7131 115.963 18.7131H95.2268ZM95.2268 27.0942C93.565 27.0942 92.0477 28.3225 91.9032 29.9843C91.7587 31.8628 93.2037 33.4523 95.0823 33.4523H144.213C145.875 33.4523 147.392 32.2241 147.537 30.5623C147.681 28.6837 146.236 27.0942 144.358 27.0942H95.2268ZM91.0362 35.3309V39.5937H148.042V35.4031H91.0362V35.3309Z" fill="url(#paint0_linear)"/>
<defs>
<linearGradient id="paint0_linear" x1="23.7666" y1="25.5868" x2="183.11" y2="25.5868" gradientUnits="userSpaceOnUse">
<stop stop-color="#008DD2"/>
<stop offset="1" stop-color="#003C5F"/>
</linearGradient>
</defs>
</svg>
