<svg width="264" height="79" viewBox="0 0 264 79" fill="none" xmlns="http://www.w3.org/2000/svg">
<path d="M145.514 54.4052L140.962 61.1968C140.745 61.558 140.312 61.7748 139.878 61.7748H109.894L106.787 65.8931C106.498 66.2544 106.137 66.3989 105.776 66.3989H103.247C102.38 66.3989 101.585 66.1098 100.863 65.6763C100.14 65.2428 99.6345 64.5203 99.2732 63.7256C99.0565 63.2921 98.8397 62.8585 98.623 62.4973C98.3339 62.0638 98.0449 61.7025 97.7559 61.3413C96.8889 60.402 95.8774 59.6795 94.7214 59.1737C93.5654 58.668 92.3371 58.379 91.0366 58.379C89.736 58.379 88.5078 58.668 87.3518 59.1737C86.1957 59.6795 85.112 60.4743 84.3172 61.3413L84.245 61.4135C83.9559 61.7748 83.6669 62.136 83.3779 62.4973C83.0889 62.9308 82.8722 63.3643 82.6554 63.7978C82.2942 64.5926 81.7884 65.2428 81.0659 65.6763C80.4156 66.1098 79.6209 66.3989 78.7539 66.3989H78.6816C77.8146 66.3989 77.0198 66.1098 76.2973 65.6763L76.2251 65.6041C75.5748 65.1706 75.069 64.4481 74.7078 63.7256C74.491 63.2921 74.2743 62.8585 74.0575 62.4973C73.8408 62.136 73.5518 61.7025 73.1905 61.3413C72.3235 60.3298 71.312 59.535 70.0837 58.957C68.9277 58.4512 67.6272 58.1622 66.2544 58.1622C64.8816 58.1622 63.5811 58.4512 62.4251 58.957C61.1968 59.535 60.1853 60.3298 59.3183 61.3413C59.0293 61.7025 58.668 62.136 58.4513 62.5695C58.1623 63.003 57.9455 63.4366 57.801 63.9423C57.512 64.6648 57.0062 65.3151 56.356 65.7486C55.7057 66.1821 54.9832 66.4711 54.1162 66.4711H51.9487C51.4429 66.4711 51.0094 66.1821 50.7926 65.7486L48.4083 61.847H28.756C28.0335 61.847 27.4555 61.269 27.4555 60.5465V53.7549C27.4555 53.0324 28.0335 52.4544 28.756 52.4544H63.5089V49.9978C63.5089 49.2753 64.0869 48.6973 64.8094 48.6973H73.2628C73.9853 48.6973 74.5633 49.2753 74.5633 49.9978V52.4544H129.474V49.9978C129.474 49.2753 130.052 48.6973 130.775 48.6973H138.867C139.589 48.6973 140.167 49.2753 140.167 49.9978V52.4544H144.503C145.225 52.4544 145.803 53.0324 145.803 53.7549C145.731 53.9716 145.659 54.1884 145.514 54.4052ZM8.23664 76.1528C8.95915 76.1528 9.53717 76.7308 9.53717 77.4533C9.53717 78.1758 8.95915 78.7538 8.23664 78.7538H1.30052C0.57801 78.7538 0 78.1758 0 77.4533C0 76.7308 0.57801 76.1528 1.30052 76.1528H8.23664ZM38.6544 76.1528C39.3769 76.1528 39.9549 76.7308 39.9549 77.4533C39.9549 78.1758 39.3769 78.7538 38.6544 78.7538H13.7277C13.0052 78.7538 12.4272 78.1758 12.4272 77.4533C12.4272 76.7308 13.0052 76.1528 13.7277 76.1528H38.6544ZM262.561 76.1528C263.284 76.1528 263.862 76.7308 263.862 77.4533C263.862 78.1758 263.284 78.7538 262.561 78.7538H44.3623C43.6398 78.7538 43.0617 78.1758 43.0617 77.4533C43.0617 76.7308 43.6398 76.1528 44.3623 76.1528H163.143C160.831 76.1528 158.664 75.2135 157.146 73.6962C155.629 72.179 154.69 70.0114 154.69 67.6994C154.69 65.3873 155.629 63.2198 157.146 61.7025C158.664 60.1852 160.831 59.246 163.143 59.246C165.455 59.246 167.623 60.1852 169.14 61.7025C170.657 63.2198 171.597 65.3873 171.597 67.6994C171.597 70.0114 170.657 72.179 169.14 73.6962C167.623 75.2135 165.455 76.1528 163.143 76.1528H220.8C218.488 76.1528 216.32 75.2135 214.803 73.6962C213.286 72.179 212.346 70.0114 212.346 67.6994C212.346 65.3873 213.286 63.2198 214.803 61.7025C216.32 60.1852 218.488 59.246 220.8 59.246C223.112 59.246 225.279 60.1852 226.797 61.7025C228.314 63.2198 229.253 65.3873 229.253 67.6994C229.253 70.0114 228.314 72.179 226.797 73.6962C225.279 75.2135 223.112 76.1528 220.8 76.1528H262.561ZM71.023 67.1936C71.023 68.4219 70.5172 69.5779 69.6502 70.4449C68.8554 71.2397 67.6994 71.8177 66.3989 71.8177C65.0984 71.8177 64.0146 71.3119 63.1476 70.4449C62.3528 69.6502 61.7748 68.4941 61.7748 67.1936C61.7748 65.8931 62.2806 64.8093 63.1476 63.9423C63.9424 63.1476 65.0984 62.5695 66.3989 62.5695C67.6272 62.5695 68.7832 63.0753 69.6502 63.9423C70.5172 64.7371 71.023 65.8931 71.023 67.1936ZM67.8439 68.5664C68.2052 68.2051 68.4219 67.6994 68.4219 67.1214C68.4219 66.5434 68.2052 66.0376 67.8439 65.6763C67.4827 65.3151 66.9769 65.0983 66.3989 65.0983C65.8209 65.0983 65.3151 65.3151 64.9539 65.6763C64.5926 66.0376 64.3759 66.5434 64.3759 67.1214C64.3759 67.6994 64.5926 68.2051 64.9539 68.5664C65.3151 68.9276 65.8209 69.1444 66.3989 69.1444C66.9769 69.1444 67.4827 68.9276 67.8439 68.5664ZM74.9968 67.1936C74.9968 69.5057 74.0575 71.6732 72.5403 73.1905C71.023 74.7078 68.8554 75.647 66.5434 75.647C64.2314 75.647 62.0638 74.7078 60.5465 73.1905C59.0293 71.6732 58.09 69.5057 58.09 67.1936C58.09 64.8816 59.0293 62.714 60.5465 61.1968C62.0638 59.6795 64.2314 58.7402 66.5434 58.7402C68.8554 58.7402 71.023 59.6795 72.5403 61.1968C73.9853 62.7863 74.9968 64.8816 74.9968 67.1936ZM70.6617 71.3842C71.7455 70.3004 72.3958 68.8554 72.3958 67.1936C72.3958 65.6041 71.7455 64.0868 70.6617 63.003C69.5779 61.9193 68.1329 61.269 66.4711 61.269C64.8816 61.269 63.3643 61.9193 62.2806 63.003C61.1968 64.0868 60.5465 65.5318 60.5465 67.1936C60.5465 68.7831 61.1968 70.3004 62.2806 71.3842C63.3643 72.468 64.8094 73.1182 66.4711 73.1182C68.1329 73.1182 69.5779 72.468 70.6617 71.3842ZM95.4439 67.1936C95.4439 68.4219 94.9381 69.5779 94.0711 70.4449C93.2764 71.2397 92.1203 71.8177 90.8198 71.8177C89.5916 71.8177 88.4355 71.3119 87.5685 70.4449C86.7015 69.5779 86.1957 68.4941 86.1957 67.1936C86.1957 65.8931 86.7015 64.8093 87.5685 63.9423C88.3633 63.1476 89.5193 62.5695 90.8198 62.5695C92.1203 62.5695 93.2041 63.0753 94.0711 63.9423L94.1434 64.0146C94.9381 64.8093 95.4439 65.9654 95.4439 67.1936ZM92.2648 68.5664C92.6261 68.2051 92.8429 67.6994 92.8429 67.1214C92.8429 66.6156 92.6261 66.1099 92.3371 65.7486L92.2648 65.6763C91.9036 65.3151 91.3978 65.0983 90.8198 65.0983C90.2418 65.0983 89.7361 65.3151 89.3748 65.6763C89.0135 66.0376 88.7968 66.5434 88.7968 67.1214C88.7968 67.6994 89.0135 68.2051 89.3748 68.5664C89.7361 68.9276 90.2418 69.1444 90.8198 69.1444C91.3978 69.1444 91.9036 68.9276 92.2648 68.5664ZM99.3455 67.1936C99.3455 69.5057 98.4062 71.6732 96.8889 73.1905C95.3717 74.7078 93.2041 75.647 90.8921 75.647C88.58 75.647 86.4125 74.7078 84.8952 73.1905C83.3779 71.6732 82.4387 69.5057 82.4387 67.1936C82.4387 64.8816 83.3779 62.714 84.8952 61.1968C86.4125 59.6795 88.58 58.7402 90.8921 58.7402C93.2041 58.7402 95.3717 59.6795 96.8889 61.1968C98.4062 62.7863 99.3455 64.8816 99.3455 67.1936ZM95.0826 71.3842C96.1664 70.3004 96.8167 68.8554 96.8167 67.1936C96.8167 65.6041 96.1664 64.0868 95.0826 63.003C93.9989 61.9193 92.5538 61.269 90.8921 61.269C89.3025 61.269 87.7853 61.9193 86.7015 63.003C85.6177 64.0868 84.9675 65.5318 84.9675 67.1936C84.9675 68.7831 85.6177 70.3004 86.7015 71.3842C87.7853 72.468 89.2303 73.1182 90.8921 73.1182C92.5538 73.1182 93.9989 72.468 95.0826 71.3842ZM160.109 52.3821V51.0816H168.851V52.3821H198.402L198.98 15.1005C198.98 14.2335 199.341 13.5109 199.919 12.9329C200.497 12.3549 201.22 12.0659 202.087 12.0659H202.159L221.306 13.6554C226.941 14.089 231.782 16.6177 235.395 20.3748C239.079 24.2041 241.464 29.334 241.969 35.0418C241.969 35.1141 241.969 35.1141 241.969 35.1863L243.342 66.1821V66.4711C243.342 68.0606 242.692 69.5057 241.68 70.5172C240.669 71.6009 239.296 72.2512 237.707 72.3235H237.418H231.349C230.626 72.3235 230.048 71.7455 230.048 71.0229V67.0491C230.048 66.7601 230.048 66.9769 230.048 66.8324C229.976 64.1591 228.892 61.7025 227.086 59.8962C225.352 58.09 222.967 57.0062 220.294 57.0062C220.077 57.0062 220.222 57.0062 220.077 57.0062C217.404 57.0784 215.02 58.1622 213.358 59.8962C211.624 61.6303 210.612 64.0146 210.612 66.6879V70.9507C210.612 71.6732 210.034 72.2512 209.312 72.2512H174.198C173.475 72.2512 172.897 71.6732 172.897 70.9507V68.7109C172.897 68.4219 172.897 68.6386 172.897 68.4941C172.825 65.8209 171.741 63.3643 169.935 61.558C168.201 59.7517 165.817 58.668 163.143 58.668C162.927 58.668 163.071 58.668 162.927 58.668C160.253 58.7402 157.869 59.824 156.207 61.558C154.473 63.2921 153.462 65.6763 153.462 68.3496V69.0721C153.462 69.9392 153.1 70.7339 152.522 71.3119C151.944 71.8899 151.15 72.2512 150.283 72.2512H148.91C148.187 72.2512 147.609 71.6732 147.609 70.9507V58.957C147.609 57.1507 148.332 55.4889 149.56 54.2606C150.788 53.0324 152.378 52.3099 154.256 52.3099L160.109 52.3821ZM225.352 67.6271C225.352 68.9276 224.846 70.0114 223.979 70.8784L223.907 70.9507C223.112 71.7454 221.956 72.2512 220.728 72.2512C219.499 72.2512 218.343 71.7454 217.476 70.8784C216.681 70.0837 216.103 68.9276 216.103 67.6271C216.103 66.3266 216.609 65.2428 217.476 64.3758C218.271 63.5811 219.427 63.003 220.728 63.003C221.956 63.003 223.112 63.5088 223.979 64.3758C224.774 65.2428 225.352 66.3989 225.352 67.6271ZM222.173 69.0721C222.534 68.7109 222.751 68.2051 222.751 67.6271C222.751 67.0491 222.534 66.5434 222.173 66.1821C221.811 65.8208 221.306 65.6041 220.728 65.6041C220.15 65.6041 219.644 65.8208 219.283 66.1821C218.921 66.5434 218.705 67.0491 218.705 67.6271C218.705 68.2051 218.921 68.7109 219.283 69.0721C219.644 69.4334 220.15 69.6502 220.728 69.6502C221.233 69.6502 221.739 69.4334 222.173 69.0721ZM224.918 71.89C226.002 70.8062 226.652 69.3612 226.652 67.6994C226.652 66.1099 226.002 64.5926 224.918 63.5088C223.834 62.425 222.389 61.7748 220.728 61.7748C219.138 61.7748 217.621 62.425 216.537 63.5088C215.453 64.5926 214.803 66.0376 214.803 67.6994C214.803 69.2889 215.453 70.8062 216.537 71.89C217.621 72.9737 219.066 73.624 220.728 73.624C222.389 73.5517 223.907 72.9015 224.918 71.89ZM167.695 67.6271C167.695 68.8554 167.189 70.0114 166.322 70.8784C165.528 71.6732 164.372 72.2512 163.071 72.2512C161.843 72.2512 160.687 71.7454 159.82 70.8784C159.025 70.0837 158.447 68.9276 158.447 67.6271C158.447 66.3266 158.953 65.2428 159.82 64.3758L159.892 64.3036C160.687 63.5088 161.843 63.003 163.071 63.003C164.372 63.003 165.455 63.5088 166.322 64.3758L166.395 64.4481C167.189 65.3151 167.695 66.3989 167.695 67.6271ZM164.516 69.0721C164.877 68.7109 165.094 68.2051 165.094 67.6271C165.094 67.1214 164.877 66.6156 164.588 66.2544L164.516 66.1821C164.155 65.8208 163.649 65.6041 163.071 65.6041C162.565 65.6041 162.06 65.8209 161.698 66.1099L161.626 66.1821C161.265 66.5434 161.048 67.0491 161.048 67.6271C161.048 68.2051 161.265 68.7109 161.626 69.0721C161.987 69.4334 162.493 69.6502 163.071 69.6502C163.649 69.6502 164.155 69.4334 164.516 69.0721ZM167.334 71.89C168.418 70.8062 169.068 69.3612 169.068 67.6994C169.068 66.1099 168.418 64.5926 167.334 63.5088C166.25 62.425 164.805 61.7748 163.143 61.7748C161.554 61.7748 160.037 62.425 158.953 63.5088C157.869 64.5926 157.219 66.0376 157.219 67.6994C157.219 69.2889 157.869 70.8062 158.953 71.89C160.037 72.9737 161.482 73.624 163.143 73.624C164.805 73.5517 166.25 72.9015 167.334 71.89ZM223.184 38.8711V26.1549C223.184 25.4324 223.762 24.8544 224.485 24.8544H229.831C231.565 24.8544 233.227 25.5047 234.528 26.5162C235.828 27.5999 236.767 29.045 237.129 30.779L238.429 37.0649C238.501 37.2816 238.501 37.4261 238.501 37.5706C238.501 38.1486 238.285 38.7266 237.923 39.1601C237.562 39.5936 237.056 39.9549 236.478 40.0272C236.262 40.0994 236.117 40.0994 235.973 40.0994H224.629C223.762 40.1717 223.184 39.5936 223.184 38.8711ZM225.785 27.4554V37.5706H235.828C235.395 35.4753 235.033 33.38 234.528 31.2848C234.311 30.1287 233.661 29.1895 232.866 28.5392C231.999 27.8889 230.987 27.4554 229.831 27.4554H225.785ZM237.562 69.6502H237.707C238.574 69.5779 239.368 69.2167 239.946 68.6386C240.524 68.0606 240.886 67.2659 240.886 66.3989V66.2544L239.513 35.2586C239.079 30.1287 236.912 25.5769 233.661 22.1088C230.481 18.7853 226.146 16.6177 221.233 16.1842L202.014 14.5947C201.87 14.5947 201.798 14.667 201.653 14.7392C201.581 14.8115 201.509 14.956 201.509 15.1005L200.858 53.6826C200.858 54.4052 200.28 54.9832 199.558 54.9832H154.329C153.245 54.9832 152.233 55.4167 151.511 56.1392C150.788 56.8617 150.355 57.8732 150.355 58.957V69.6502H150.427C150.572 69.6502 150.716 69.5779 150.788 69.5057C150.861 69.4334 150.933 69.2889 150.933 69.1444V68.4219C150.933 65.0983 152.306 62.0638 154.473 59.824C156.641 57.5842 159.675 56.2114 162.999 56.1392C163.288 56.1392 163.143 56.1392 163.216 56.1392C166.611 56.1392 169.646 57.5842 171.886 59.824C174.126 62.0638 175.498 65.1706 175.571 68.4941C175.571 68.7109 175.571 68.6386 175.571 68.7109V69.6502H208.084V66.6879C208.084 63.3643 209.456 60.3298 211.624 58.09C213.791 55.8502 216.826 54.4774 220.15 54.4052C220.439 54.4052 220.294 54.4052 220.366 54.4052C223.762 54.4052 226.797 55.8502 229.036 58.09C231.276 60.3298 232.649 63.4366 232.721 66.7601C232.721 66.9769 232.721 66.9046 232.721 66.9769V69.6502H237.562ZM139.228 59.1737L142.046 54.9832H138.867C138.144 54.9832 137.566 54.4052 137.566 53.6826V51.2261H132.003V53.6826C132.003 54.4052 131.425 54.9832 130.703 54.9832H73.1905C72.468 54.9832 71.89 54.4052 71.89 53.6826V51.2261H66.0376V53.6826C66.0376 54.4052 65.4596 54.9832 64.7371 54.9832H30.0565V59.1737H49.2753C49.7089 59.1737 50.1424 59.3905 50.3591 59.824L52.8157 63.7978H54.2607C54.5497 63.7978 54.7664 63.7256 54.9832 63.5811C55.2 63.4366 55.4167 63.2198 55.489 62.9308C55.7057 62.3528 55.9947 61.7748 56.356 61.1968C56.7172 60.6188 57.0785 60.113 57.512 59.6072C58.5958 58.3067 59.9685 57.2952 61.4858 56.5727C63.0031 55.8502 64.6649 55.4889 66.3989 55.4889C68.1329 55.4889 69.7947 55.8502 71.312 56.5727C72.8293 57.2952 74.202 58.3067 75.2858 59.6072C75.6471 60.0407 76.0083 60.5465 76.3696 61.0523C76.6586 61.558 76.9476 62.136 77.2366 62.6418C77.3811 62.9308 77.5978 63.2198 77.8146 63.4366C78.1036 63.5811 78.3926 63.7256 78.6816 63.7256H78.7539C79.1151 63.7256 79.4041 63.6533 79.6209 63.4366C79.9099 63.2198 80.1266 63.003 80.2711 62.6418C80.4879 62.0638 80.8491 61.4858 81.1381 60.98C81.4272 60.4743 81.7884 60.0407 82.2219 59.535L82.2942 59.4627C83.3779 58.2345 84.7507 57.2952 86.1957 56.6449C87.6408 55.9947 89.2303 55.6334 90.8921 55.6334C92.5538 55.6334 94.1434 55.9947 95.5884 56.6449C97.1057 57.2952 98.4062 58.3067 99.49 59.4627C99.9235 59.9685 100.285 60.402 100.646 60.9078C101.007 61.4135 101.296 61.9915 101.513 62.4973C101.658 62.8585 101.874 63.1475 102.236 63.292C102.525 63.5088 102.814 63.5811 103.175 63.5811H105.053L108.088 59.535C108.305 59.1737 108.738 58.957 109.172 58.957L139.228 59.1737Z" fill="#3C464E"/>
<path d="M206.35 8.8869V6.21361C206.35 3.61256 204.255 1.44502 201.581 1.44502H196.813C196.379 1.44502 196.09 1.08377 196.09 0.722513C196.09 0.289005 195.729 0 195.368 0H29.0455C28.612 0 28.323 0.361256 28.323 0.722513V50.3591C28.323 50.7926 28.6843 51.0816 29.0455 51.0816H195.296C195.729 51.0816 196.018 50.7204 196.018 50.3591V10.4042C196.018 9.97067 196.379 9.68167 196.741 9.68167H205.483C205.989 9.60942 206.35 9.32041 206.35 8.8869ZM112.423 6.35811C112.423 5.6356 113.001 5.05759 113.724 5.05759C114.446 5.05759 115.024 5.6356 115.024 6.35811V21.6031L120.877 15.7508V8.38115C120.877 7.65863 121.455 7.08062 122.177 7.08062C122.9 7.08062 123.478 7.65863 123.478 8.38115V14.667L123.55 14.7393H129.836C130.559 14.7393 131.137 15.3173 131.137 16.0398C131.137 16.7623 130.559 17.3403 129.836 17.3403H122.9L116.831 23.4094H132.076C132.798 23.4094 133.376 23.9874 133.376 24.7099C133.376 25.4324 132.798 26.0105 132.076 26.0105H116.975L122.755 31.7906H129.691C130.414 31.7906 130.992 32.3686 130.992 33.0911C130.992 33.8136 130.414 34.3916 129.691 34.3916H123.55C123.478 34.4638 123.406 34.5361 123.333 34.5361V40.6775C123.333 41.4 122.755 41.978 122.033 41.978C121.31 41.978 120.732 41.4 120.732 40.6775V33.4523L114.952 27.6722V43.0617C114.952 43.7843 114.374 44.3623 113.652 44.3623C112.929 44.3623 112.351 43.7843 112.351 43.0617V27.889L106.499 33.7413V40.9665C106.499 41.689 105.921 42.267 105.198 42.267C104.476 42.267 103.898 41.689 103.898 40.9665V34.6084H97.5397C96.8172 34.6084 96.2392 34.0303 96.2392 33.3078C96.2392 32.5853 96.8172 32.0073 97.5397 32.0073H104.548L110.473 26.0827H95.2999C94.5774 26.0827 93.9994 25.5047 93.9994 24.7822C93.9994 24.0597 94.5774 23.4817 95.2999 23.4817H110.617L104.62 17.4848H97.4674C96.7449 17.4848 96.1669 16.9068 96.1669 16.1843C96.1669 15.4618 96.7449 14.8838 97.4674 14.8838H103.826V8.52565C103.826 7.80313 104.404 7.22513 105.126 7.22513C105.849 7.22513 106.427 7.80313 106.427 8.52565V15.6785L112.279 21.5309L112.423 6.35811Z" fill="url(#paint0_linear)"/>
<defs>
<linearGradient id="paint0_linear" x1="28.3189" y1="25.5869" x2="206.379" y2="25.5869" gradientUnits="userSpaceOnUse">
<stop stop-color="#008DD2"/>
<stop offset="1" stop-color="#003C5F"/>
</linearGradient>
</defs>
</svg>
