<svg width="13" height="13" viewBox="0 0 13 13" fill="none" xmlns="http://www.w3.org/2000/svg">
<path fill-rule="evenodd" clip-rule="evenodd" d="M6.14401 12.232L6.48077 11.938C9.31262 9.46524 10.752 7.30615 10.752 5.40829C10.752 2.72063 8.65432 0.800293 6.14401 0.800293C3.6337 0.800293 1.53601 2.72063 1.53601 5.40829C1.53601 7.30615 2.9754 9.46524 5.80725 11.938L6.14401 12.232ZM6.14401 10.8679C3.741 8.70223 2.56001 6.86706 2.56001 5.40826C2.56001 3.30732 4.18004 1.82426 6.14401 1.82426C8.10799 1.82426 9.72801 3.30732 9.72801 5.40826C9.72801 6.86706 8.54703 8.70223 6.14401 10.8679ZM6.14401 2.84833C7.55786 2.84833 8.70401 3.99448 8.70401 5.40833C8.70401 6.82218 7.55786 7.96833 6.14401 7.96833C4.73016 7.96833 3.58401 6.82218 3.58401 5.40833C3.58401 3.99448 4.73016 2.84833 6.14401 2.84833ZM4.60801 5.40829C4.60801 4.55998 5.2957 3.87229 6.14401 3.87229C6.99232 3.87229 7.68001 4.55998 7.68001 5.40829C7.68001 6.2566 6.99232 6.94429 6.14401 6.94429C5.2957 6.94429 4.60801 6.2566 4.60801 5.40829Z" fill="#008DD2"/>
</svg>
