<svg width="12" height="16" viewBox="0 0 12 16" fill="none" xmlns="http://www.w3.org/2000/svg">
<path fill-rule="evenodd" clip-rule="evenodd" d="M6 15.5516L6.43849 15.1687C10.1258 11.949 12 9.13768 12 6.6665C12 3.16695 9.26863 0.666504 6 0.666504C2.73137 0.666504 0 3.16695 0 6.6665C0 9.13768 1.87421 11.949 5.56151 15.1687L6 15.5516ZM6 13.7754C2.87107 10.9555 1.33333 8.56599 1.33333 6.6665C1.33333 3.93091 3.44274 1.99984 6 1.99984C8.55726 1.99984 10.6667 3.93091 10.6667 6.6665C10.6667 8.56599 9.12893 10.9555 6 13.7754ZM6 3.33317C7.84095 3.33317 9.33333 4.82555 9.33333 6.6665C9.33333 8.50745 7.84095 9.99984 6 9.99984C4.15905 9.99984 2.66667 8.50745 2.66667 6.6665C2.66667 4.82555 4.15905 3.33317 6 3.33317ZM4 6.6665C4 5.56193 4.89543 4.6665 6 4.6665C7.10457 4.6665 8 5.56193 8 6.6665C8 7.77107 7.10457 8.6665 6 8.6665C4.89543 8.6665 4 7.77107 4 6.6665Z" fill="#008DD2"/>
</svg>
