<svg width="14" height="14" viewBox="0 0 14 14" fill="none" xmlns="http://www.w3.org/2000/svg">
<path fill-rule="evenodd" clip-rule="evenodd" d="M6.23768 4.55893C6.58308 4.09345 6.70693 3.60289 6.31629 3.16986C5.43966 1.94321 4.8501 1.18465 4.4803 0.81935C3.77726 0.124861 2.62074 0.218802 2.01186 0.818757C1.68482 1.141 1.57411 1.25166 1.23831 1.59273C-0.632123 3.46417 0.508564 7.42033 3.54093 10.4557C6.5726 13.4903 10.5284 14.6316 12.4027 12.7562C12.7126 12.4575 12.975 12.195 13.1819 11.9763C13.7786 11.3456 13.8691 10.2401 13.1779 9.52194C12.8236 9.15373 12.1002 8.59263 10.822 7.67828C10.4305 7.32821 9.96627 7.40408 9.54069 7.68329C9.33598 7.81759 9.18701 7.95345 8.9057 8.23503L8.39487 8.74614C8.32759 8.81346 7.41399 8.35593 6.52714 7.46821C5.63981 6.58001 5.1826 5.66637 5.24956 5.5994L5.76075 5.08794C5.85 4.9986 5.89266 4.95535 5.94739 4.89784C6.06139 4.77802 6.15578 4.66928 6.23768 4.55893ZM9.33716 9.68883L9.84809 9.17761C10.0029 9.02264 10.1032 8.92736 10.1849 8.86166C11.3046 9.66579 11.9532 10.1714 12.218 10.4467C12.3771 10.6119 12.3524 10.9134 12.2141 11.0596C12.0228 11.2618 11.7742 11.5105 11.4692 11.8047C10.2571 13.0173 7.06393 12.096 4.48342 9.51294C1.9021 6.92908 0.981258 3.73539 2.18413 2.53186C2.51858 2.19218 2.62454 2.08628 2.94691 1.76864C3.06778 1.64954 3.39702 1.62279 3.54405 1.76804C3.82876 2.04929 4.3569 2.72553 5.13381 3.80775C5.09359 3.85769 5.04335 3.91411 4.98222 3.97836C4.93736 4.02552 4.89997 4.06341 4.81825 4.14521L4.30758 4.65617C3.43881 5.52486 4.17868 7.00334 5.58465 8.41069C6.98966 9.81708 8.46869 10.5578 9.33716 9.68883Z" fill="#008DD2"/>
</svg>
