<svg width="19" height="20" viewBox="0 0 19 20" fill="none" xmlns="http://www.w3.org/2000/svg">
<path fill-rule="evenodd" clip-rule="evenodd" d="M10.5817 6.69283C10.0895 6.02953 9.91298 5.33048 10.4696 4.71342C11.7188 2.96544 12.559 1.88449 13.0859 1.36394C14.0878 0.37429 15.7358 0.508155 16.6035 1.36309C17.0695 1.82229 17.2273 1.97997 17.7058 2.466C20.3711 5.1328 18.7457 10.7703 14.4245 15.0957C10.1044 19.4201 4.46742 21.0464 1.79646 18.374C1.3549 17.9483 0.981047 17.5742 0.686197 17.2626C-0.164087 16.3639 -0.293173 14.7886 0.691792 13.7651C1.19677 13.2404 2.22755 12.4409 4.04908 11.1379C4.60696 10.6391 5.26843 10.7472 5.87487 11.145C6.16659 11.3364 6.37888 11.53 6.77974 11.9313L7.50767 12.6596C7.60355 12.7555 8.90543 12.1036 10.1692 10.8386C11.4336 9.57288 12.0852 8.27093 11.9897 8.17551L11.2613 7.44668C11.1341 7.31937 11.0733 7.25774 10.9953 7.17578C10.8329 7.00504 10.6984 6.85009 10.5817 6.69283ZM6.16517 14.0029L5.4371 13.2745C5.21648 13.0536 5.0735 12.9178 4.95719 12.8242C3.36151 13.9701 2.43738 14.6907 2.05992 15.0829C1.83329 15.3183 1.8685 15.748 2.06551 15.9562C2.33816 16.2444 2.69238 16.5988 3.12706 17.0181C4.85421 18.746 9.40452 17.4331 13.0817 13.7523C16.7601 10.0703 18.0723 5.5193 16.3582 3.80426C15.8817 3.32023 15.7307 3.16931 15.2713 2.71667C15.099 2.54695 14.6299 2.50885 14.4204 2.71582C14.0146 3.1166 13.262 4.08024 12.1549 5.62241C12.2123 5.69357 12.2838 5.77398 12.371 5.86553C12.4349 5.93273 12.4882 5.98672 12.6046 6.10329L13.3323 6.83141C14.5703 8.0693 13.516 10.1761 11.5125 12.1816C9.51037 14.1857 7.40275 15.2412 6.16517 14.0029Z" fill="white"/>
</svg>
