<svg width="1400" height="120" viewBox="0 0 1400 120" fill="none" xmlns="http://www.w3.org/2000/svg">
<path d="M1175.05 35.2115C1175.05 35.1084 1175.05 35.0052 1175.05 34.7989C1175.05 29.9513 1171.75 25.8257 1167.31 24.588C1166.59 12.0047 1156.16 2 1143.36 2C1134.69 2 1127.05 6.64137 1122.82 13.5518C1121.89 13.3456 1120.86 13.3455 1119.83 13.3455C1110.13 13.3455 1102.28 21.1843 1102.28 30.8796C1102.28 32.4267 1102.49 33.8707 1102.8 35.2115" stroke="#909FA8" stroke-width="4" stroke-miterlimit="10" stroke-linecap="round" stroke-linejoin="round"/>
<path d="M1175.05 35.6245H1280.33" stroke="#909FA8" stroke-width="4" stroke-miterlimit="10" stroke-linecap="round" stroke-linejoin="round"/>
<path d="M1103.21 36.6558H981" stroke="#909FA8" stroke-width="4" stroke-miterlimit="10" stroke-linecap="round" stroke-linejoin="round"/>
<path d="M1240.39 25.0005H1169.68" stroke="#909FA8" stroke-width="4" stroke-miterlimit="10" stroke-linecap="round" stroke-linejoin="round"/>
<path d="M315.052 44.2115C315.052 44.1084 315.052 44.0052 315.052 43.7989C315.052 38.9513 311.749 34.8257 307.31 33.588C306.588 21.0047 296.163 11 283.364 11C274.693 11 267.055 15.6414 262.823 22.5518C261.894 22.3456 260.862 22.3455 259.83 22.3455C250.127 22.3455 242.282 30.1843 242.282 39.8796C242.282 41.4267 242.489 42.8707 242.799 44.2115" stroke="#909FA8" stroke-width="4" stroke-miterlimit="10" stroke-linecap="round" stroke-linejoin="round"/>
<path d="M315.052 44.6245H420.335" stroke="#909FA8" stroke-width="4" stroke-miterlimit="10" stroke-linecap="round" stroke-linejoin="round"/>
<path d="M243.211 45.6558H121" stroke="#909FA8" stroke-width="4" stroke-miterlimit="10" stroke-linecap="round" stroke-linejoin="round"/>
<path d="M380.39 34.0005H309.685" stroke="#909FA8" stroke-width="4" stroke-miterlimit="10" stroke-linecap="round" stroke-linejoin="round"/>
<path d="M1315.46 117.144C1315.46 117.041 1315.46 116.937 1315.46 116.834C1315.46 112.709 1318.76 109.408 1322.89 109.408C1323.2 109.408 1323.4 109.408 1323.71 109.511" stroke="#909FA8" stroke-width="4" stroke-miterlimit="10" stroke-linecap="round" stroke-linejoin="round"/>
<path d="M1353.85 108.067C1353.96 108.067 1353.96 108.067 1354.06 108.067C1359.12 108.067 1363.14 112.09 1363.14 117.144" stroke="#909FA8" stroke-width="4" stroke-miterlimit="10" stroke-linecap="round" stroke-linejoin="round"/>
<path d="M1315.46 117.144H1288" stroke="#909FA8" stroke-width="4" stroke-miterlimit="10" stroke-linecap="round" stroke-linejoin="round"/>
<path d="M1397.31 117.144H1363.25" stroke="#909FA8" stroke-width="4" stroke-miterlimit="10" stroke-linecap="round" stroke-linejoin="round"/>
<path d="M1323.61 109.512C1324.54 101.879 1331.04 96 1338.89 96C1346.22 96 1352.41 101.157 1353.96 108.068" stroke="#909FA8" stroke-width="4" stroke-miterlimit="10" stroke-linecap="round" stroke-linejoin="round"/>
<path d="M29.4561 117.144C29.4561 117.041 29.4561 116.937 29.4561 116.834C29.4561 112.709 32.759 109.408 36.8878 109.408C37.1975 109.408 37.404 109.408 37.7136 109.511" stroke="#909FA8" stroke-width="4" stroke-miterlimit="10" stroke-linecap="round" stroke-linejoin="round"/>
<path d="M67.8535 108.067C67.9567 108.067 67.9567 108.067 68.06 108.067C73.1177 108.067 77.1432 112.09 77.1432 117.144" stroke="#909FA8" stroke-width="4" stroke-miterlimit="10" stroke-linecap="round" stroke-linejoin="round"/>
<path d="M29.4562 117.144H2" stroke="#909FA8" stroke-width="4" stroke-miterlimit="10" stroke-linecap="round" stroke-linejoin="round"/>
<path d="M111.309 117.144H77.2466" stroke="#909FA8" stroke-width="4" stroke-miterlimit="10" stroke-linecap="round" stroke-linejoin="round"/>
<path d="M37.6104 109.512C38.5393 101.879 45.0421 96 52.8868 96C60.2153 96 66.4085 101.157 67.9568 108.068" stroke="#909FA8" stroke-width="4" stroke-miterlimit="10" stroke-linecap="round" stroke-linejoin="round"/>
<path d="M617.456 61.1438C617.456 61.0406 617.456 60.9375 617.456 60.8344C617.456 56.7087 620.759 53.4082 624.888 53.4082C625.197 53.4082 625.404 53.4082 625.714 53.5113" stroke="#909FA8" stroke-width="4" stroke-miterlimit="10" stroke-linecap="round" stroke-linejoin="round"/>
<path d="M655.854 52.0674C655.957 52.0674 655.957 52.0674 656.06 52.0674C661.118 52.0674 665.143 56.0899 665.143 61.1438" stroke="#909FA8" stroke-width="4" stroke-miterlimit="10" stroke-linecap="round" stroke-linejoin="round"/>
<path d="M617.456 61.1436H590" stroke="#909FA8" stroke-width="4" stroke-miterlimit="10" stroke-linecap="round" stroke-linejoin="round"/>
<path d="M699.309 61.1436H665.247" stroke="#909FA8" stroke-width="4" stroke-miterlimit="10" stroke-linecap="round" stroke-linejoin="round"/>
<path d="M625.61 53.5115C626.539 45.8791 633.042 40 640.887 40C648.215 40 654.409 45.1571 655.957 52.0675" stroke="#909FA8" stroke-width="4" stroke-miterlimit="10" stroke-linecap="round" stroke-linejoin="round"/>
</svg>
