<svg width="22" height="26" viewBox="0 0 22 26" fill="none" xmlns="http://www.w3.org/2000/svg">
<path d="M7.27438 20.7618C7.47039 20.3995 7.92163 20.266 8.28206 20.4631C8.64227 20.6602 8.77511 21.114 8.5791 21.4764C8.42512 21.7592 6.73721 24.8583 6.73954 24.8595C6.62319 25.073 6.45249 25.242 6.24719 25.3541L6.24789 25.3553C6.04375 25.4667 5.80989 25.5179 5.56696 25.4994L5.56417 25.4992C5.32195 25.4803 5.09947 25.3934 4.91507 25.253C4.88859 25.2329 4.86398 25.2115 4.84099 25.1888C4.6905 25.0543 4.57368 24.884 4.50261 24.6862L3.9255 23.0893L2.27545 23.4632C2.0374 23.5166 1.79936 23.4998 1.58314 23.4204L1.58059 23.4195C1.36205 23.3396 1.16813 23.1974 1.02159 23.0019C1.00534 22.9804 0.990701 22.9582 0.977231 22.9356C0.85786 22.7544 0.78935 22.5516 0.774487 22.3443C0.75823 22.114 0.807929 21.8793 0.924977 21.6632L2.75595 18.2993C2.95196 17.9371 3.40319 17.8035 3.76363 18.0006C4.12383 18.1977 4.25667 18.6515 4.06066 19.0139L2.50072 21.88L3.8189 21.5813C4.12128 21.5131 4.42482 21.5624 4.67888 21.702C4.93481 21.8428 5.14081 22.0738 5.24624 22.3667L5.70701 23.642L7.27462 20.7618H7.27438Z" fill="#374148" stroke="#F1F1F1" stroke-width="0.6"/>
<path d="M8.34325 10.9434C8.05225 10.6507 8.05225 10.1759 8.34325 9.88331C8.63424 9.59068 9.10638 9.59068 9.39737 9.88331L10.3384 10.8301L12.6766 8.47879C12.9676 8.18616 13.4397 8.18616 13.7307 8.47879C14.0217 8.77142 14.0217 9.24621 13.7307 9.53884L10.8654 12.42C10.5744 12.7127 10.1022 12.7127 9.81122 12.42L8.34301 10.9434H8.34325Z" fill="#22B0F5" stroke="#F1F1F1" stroke-width="0.6"/>
<path d="M10.8533 4.45228C12.4815 4.45228 13.956 5.11624 15.0231 6.1896C16.0902 7.26273 16.7507 8.74549 16.7507 10.3829C16.7507 12.0202 16.0905 13.503 15.0231 14.5761C13.956 15.6492 12.4815 16.3134 10.8533 16.3134C9.22481 16.3134 7.75033 15.6495 6.68319 14.5761C5.61606 13.503 4.95557 12.0202 4.95557 10.3829C4.95557 8.74549 5.61582 7.26273 6.68319 6.1896C7.75033 5.11647 9.22481 4.45228 10.8533 4.45228ZM13.969 7.24941C13.1719 6.44766 12.0702 5.95162 10.8533 5.95162C9.63633 5.95162 8.53436 6.44766 7.73732 7.24941C6.94004 8.05093 6.44677 9.15886 6.44677 10.3826C6.44677 11.6064 6.94004 12.7143 7.73732 13.5158C8.53459 14.3176 9.63633 14.8136 10.8533 14.8136C12.0702 14.8136 13.1719 14.3176 13.969 13.5158C14.7663 12.7143 15.2595 11.6064 15.2595 10.3826C15.2595 9.15886 14.7663 8.05093 13.969 7.24941Z" fill="#22B0F5" stroke="#F1F1F1" stroke-width="0.6"/>
<path d="M12.5287 1.23129L12.7721 1.48328C12.8857 1.60099 13.019 1.68063 13.1606 1.71869C13.3021 1.75676 13.4579 1.75443 13.6165 1.70935L13.9523 1.61337C14.2645 1.52439 14.5731 1.49893 14.8755 1.53676C15.1769 1.57437 15.4712 1.67572 15.755 1.8406H15.758C16.039 2.00385 16.2729 2.2096 16.4577 2.45552C16.643 2.70214 16.7763 2.98519 16.8558 3.30188L16.9412 3.64238C16.9812 3.80236 17.056 3.93758 17.1575 4.0394L17.1602 4.04221C17.2615 4.14426 17.396 4.21947 17.555 4.25963L17.8937 4.34558C18.2086 4.42545 18.49 4.5595 18.7353 4.74587C18.9798 4.93177 19.1847 5.16695 19.3468 5.44953L19.3732 5.49974C19.5214 5.77042 19.6136 6.0502 19.6489 6.33676C19.6863 6.64083 19.661 6.95168 19.5725 7.26532L19.4771 7.60326C19.432 7.76277 19.4299 7.91948 19.4678 8.0617C19.5056 8.20416 19.5848 8.33822 19.7019 8.45219L19.9524 8.69694C20.1833 8.92231 20.3598 9.17967 20.4806 9.46669C20.602 9.75582 20.6633 10.0618 20.6633 10.3826C20.6633 10.7033 20.602 11.0095 20.4806 11.2984C20.3598 11.5852 20.1835 11.8428 19.9524 12.0681L19.7019 12.3129C19.5848 12.4271 19.5056 12.5611 19.4678 12.7036C19.4299 12.8458 19.4322 13.0025 19.4771 13.162L19.5725 13.4997C19.661 13.8136 19.6863 14.124 19.6487 14.4281C19.6113 14.7312 19.5103 15.0271 19.3465 15.3125V15.3155C19.1842 15.5981 18.9796 15.8333 18.7351 16.0192C18.4898 16.2056 18.2083 16.3396 17.8934 16.4195L17.5548 16.5054C17.3957 16.5456 17.2613 16.6208 17.16 16.7229L17.1572 16.7257C17.0557 16.8275 16.981 16.9627 16.941 17.1227L16.8555 17.4632C16.7761 17.7799 16.6428 18.0629 16.4575 18.3095C16.2726 18.5555 16.0388 18.7614 15.7578 18.9245L15.7078 18.9511C15.4387 19.1001 15.1604 19.1928 14.8755 19.2283C14.5731 19.2659 14.264 19.2404 13.9521 19.1515L13.616 19.0555C13.4574 19.0102 13.3016 19.0081 13.1602 19.0461C13.0185 19.0842 12.8852 19.1638 12.7719 19.2815L12.5285 19.5335C12.3044 19.7657 12.0484 19.9432 11.763 20.0646C11.4755 20.1868 11.1713 20.2484 10.8522 20.2484C10.5333 20.2484 10.2289 20.1868 9.94157 20.0646C9.65639 19.9432 9.40023 19.7659 9.17612 19.5335L8.93273 19.2815C8.81917 19.1638 8.68586 19.0842 8.5442 19.0461C8.40276 19.0081 8.24693 19.0104 8.08831 19.0555L7.7525 19.1515C7.44037 19.2404 7.13172 19.2659 6.82935 19.2281C6.5279 19.1905 6.23366 19.0889 5.94986 18.9242H5.94684C5.66583 18.761 5.43197 18.5552 5.24711 18.3093C5.06178 18.0627 4.92848 17.7796 4.84905 17.4629L4.76359 17.1224C4.72364 16.9625 4.64886 16.8272 4.54737 16.7254L4.54459 16.7226C4.44333 16.6206 4.30887 16.5454 4.14978 16.5052L3.81118 16.4192C3.49626 16.3394 3.21479 16.2053 2.96955 16.019C2.725 15.8331 2.52016 15.5979 2.35806 15.3153L2.33159 15.2651C2.18342 14.9944 2.09122 14.7144 2.05592 14.4278C2.01853 14.1238 2.04384 13.8129 2.13233 13.4993L2.22778 13.1613C2.27283 13.0018 2.27492 12.8451 2.23707 12.7029C2.19921 12.5604 2.12002 12.4264 2.00297 12.3124L1.75239 12.0677C1.52154 11.8423 1.34504 11.5849 1.22428 11.2979C1.10282 11.0088 1.0415 10.7028 1.0415 10.3819C1.0415 10.0613 1.10282 9.75512 1.22428 9.46623C1.34481 9.17944 1.52131 8.92184 1.75239 8.69647L2.00297 8.45172C2.12002 8.33752 2.19921 8.20346 2.23707 8.061C2.27492 7.91877 2.2726 7.76207 2.22778 7.60256L2.13233 7.26486C2.04384 6.95098 2.01853 6.6406 2.05615 6.33653C2.09354 6.03339 2.19433 5.73749 2.35829 5.4521V5.44906C2.52063 5.16648 2.72523 4.9313 2.96978 4.7454C3.21502 4.55904 3.4965 4.42498 3.81141 4.34511L4.15002 4.25917C4.3091 4.219 4.44357 4.1438 4.54482 4.04174L4.54761 4.03894C4.64909 3.93711 4.72388 3.80189 4.76382 3.64191L4.84928 3.30141C4.92871 2.98473 5.06202 2.70167 5.24734 2.45505C5.4322 2.20913 5.66607 2.00315 5.94707 1.84014L5.99701 1.81351C6.26617 1.66451 6.54462 1.5718 6.82958 1.5363C7.13195 1.4987 7.44106 1.52415 7.75296 1.61313L8.08901 1.70912C8.24763 1.75443 8.40346 1.75653 8.5449 1.71846C8.68656 1.68039 8.81986 1.60076 8.9332 1.48305L9.17658 1.23106C9.40069 0.998917 9.65662 0.821425 9.94204 0.699983C10.2249 0.579942 10.5291 0.519221 10.8529 0.519454V0.516418C11.1717 0.516418 11.4762 0.578074 11.7635 0.700216C12.0484 0.821425 12.3048 0.998917 12.5289 1.23106L12.5287 1.23129ZM11.7061 2.52558L11.4627 2.27359C11.3759 2.18368 11.2835 2.11758 11.1868 2.07648C11.0923 2.03631 10.9806 2.01599 10.8526 2.01599V2.01296C10.7293 2.01296 10.6174 2.03421 10.5182 2.07625C10.4216 2.11735 10.3292 2.18344 10.2423 2.27336L9.99894 2.52535C9.69354 2.8418 9.32684 3.05759 8.92902 3.16479C8.53119 3.27198 8.10689 3.26941 7.68701 3.14984L7.35095 3.05386C7.23321 3.02023 7.11895 3.01042 7.01003 3.02373C6.91133 3.03611 6.81425 3.0674 6.72066 3.11715L6.69256 3.13419C6.58643 3.19585 6.5005 3.27035 6.4357 3.35676C6.37114 3.4427 6.32354 3.5457 6.29381 3.66457L6.20834 4.00507C6.10198 4.42965 5.8918 4.80075 5.59988 5.09501L5.59617 5.09875C5.30308 5.39278 4.93359 5.60437 4.51115 5.71157L4.17254 5.79751C4.05457 5.8274 3.95192 5.87528 3.86645 5.9402C3.78076 6.00536 3.70644 6.09201 3.64513 6.1985L3.64397 6.1978C3.58521 6.30056 3.54875 6.40799 3.53528 6.51775C3.52181 6.62752 3.53157 6.74219 3.56501 6.86036L3.66046 7.19806C3.77959 7.62031 3.78192 8.04699 3.67532 8.44705C3.56873 8.84734 3.3539 9.21634 3.03945 9.52321L2.78887 9.76796C2.69922 9.85531 2.6335 9.94849 2.59286 10.0456C2.55291 10.1405 2.53271 10.253 2.53271 10.3815C2.53271 10.5099 2.55291 10.6225 2.59286 10.7178C2.63373 10.8149 2.69945 10.9079 2.78887 10.9952L3.03945 11.24C3.35413 11.5471 3.56873 11.9159 3.67532 12.3159C3.78192 12.716 3.77936 13.1426 3.66046 13.5649L3.56501 13.9028C3.53157 14.0212 3.52181 14.1361 3.53505 14.2457C3.54736 14.3449 3.57848 14.4425 3.62795 14.5367L3.6449 14.5649C3.70621 14.6717 3.78029 14.7581 3.86622 14.8232C3.95169 14.8881 4.0541 14.936 4.17231 14.9659L4.51092 15.0519C4.93289 15.1588 5.30215 15.3702 5.59477 15.6637L5.59848 15.6675C5.89087 15.9622 6.10128 16.3338 6.20788 16.7586L6.29335 17.0991C6.32307 17.2177 6.37068 17.321 6.43524 17.4069C6.50027 17.4933 6.5862 17.5678 6.6921 17.6295L6.6914 17.6306C6.79382 17.6897 6.90041 17.7264 7.00956 17.7399C7.11872 17.7535 7.23275 17.7437 7.35026 17.71L7.68608 17.614C8.10597 17.4942 8.53026 17.4919 8.92809 17.5991C9.32615 17.7063 9.69308 17.9223 9.99824 18.2385L10.2416 18.4905C10.3285 18.5807 10.4211 18.6468 10.5178 18.6876C10.612 18.7278 10.724 18.7481 10.8517 18.7481C10.9794 18.7481 11.0914 18.7278 11.1861 18.6876C11.2828 18.6465 11.3752 18.5804 11.462 18.4905L11.7054 18.2385C12.0106 17.9223 12.3775 17.7063 12.7753 17.5991C13.1732 17.4919 13.5975 17.4942 14.0174 17.614L14.3534 17.71C14.4712 17.7437 14.5854 17.7535 14.6943 17.7402C14.7933 17.7278 14.8901 17.6965 14.9837 17.6467L15.0118 17.6297C15.1179 17.568 15.2039 17.4933 15.2687 17.4071C15.3332 17.3212 15.3808 17.2182 15.4106 17.0993L15.496 16.7588C15.6024 16.3345 15.8126 15.9631 16.1045 15.6689L16.1082 15.6651C16.4013 15.3711 16.7705 15.1595 17.1932 15.0523L17.5318 14.9664C17.6498 14.9365 17.7524 14.8886 17.8379 14.8237C17.9238 14.7583 17.9979 14.6719 18.0592 14.5654L18.0604 14.5661C18.1192 14.4631 18.1556 14.3559 18.1691 14.2461C18.1826 14.1364 18.1728 14.0217 18.1394 13.9035L18.0439 13.5658C17.9248 13.1436 17.9224 12.7169 18.029 12.3168C18.1356 11.9166 18.3505 11.5476 18.6649 11.2407L18.9155 10.9959C19.0051 10.9086 19.0709 10.8154 19.1115 10.7182C19.1515 10.6234 19.1717 10.5109 19.1717 10.3824C19.1717 10.254 19.1515 10.1414 19.1115 10.0461C19.0706 9.94896 19.0049 9.85601 18.9155 9.76866L18.6649 9.52391C18.3502 9.2168 18.1356 8.84804 18.029 8.44798C17.9224 8.04792 17.9248 7.62124 18.0439 7.199L18.1394 6.86106C18.1728 6.74266 18.1826 6.62775 18.1693 6.51822C18.157 6.41873 18.1259 6.32135 18.0764 6.22723L18.0595 6.19897C17.9982 6.09224 17.9241 6.00583 17.8381 5.94067C17.7527 5.87575 17.6503 5.82787 17.5321 5.79798L17.1934 5.71203C16.7712 5.60507 16.4022 5.39372 16.1096 5.10015L16.1059 5.09642C15.8135 4.80169 15.6031 4.43035 15.4965 4.00531L15.411 3.6648C15.3813 3.54616 15.3337 3.44294 15.2691 3.35699C15.2041 3.27058 15.1182 3.19608 15.0123 3.13443L15.013 3.13326C14.9105 3.07417 14.804 3.03751 14.6948 3.02396C14.5856 3.01042 14.4716 3.02023 14.3541 3.05386L14.0183 3.14984C13.5984 3.26965 13.1741 3.27198 12.7763 3.16479C12.3782 3.05759 12.0113 2.84157 11.7061 2.52535V2.52558Z" fill="#374148" stroke="#F1F1F1" stroke-width="0.6"/>
<path d="M13.1262 21.4766C12.9301 21.1144 13.063 20.6606 13.4232 20.4633C13.7834 20.2662 14.2346 20.3998 14.4309 20.762L15.9985 23.642L16.4592 22.3667C16.5647 22.0738 16.7707 21.8428 17.0268 21.702C17.2809 21.5624 17.5844 21.5128 17.8866 21.5813L19.2048 21.88L17.6448 19.0139C17.4488 18.6517 17.5816 18.1979 17.9419 18.0006C18.3021 17.8035 18.7533 17.9371 18.9495 18.2993L20.7803 21.6632C20.898 21.8795 20.9477 22.1142 20.9308 22.3443C20.9138 22.5785 20.8307 22.8057 20.6837 23.0019C20.5369 23.1976 20.3432 23.3398 20.1251 23.4206C19.9082 23.5008 19.6692 23.5178 19.43 23.4634L17.78 23.0895L17.2029 24.6864C17.1195 24.9184 16.9757 25.112 16.7902 25.2533L16.7888 25.2514C16.6021 25.3934 16.3784 25.4807 16.1383 25.4996C15.8975 25.5186 15.6645 25.4667 15.4604 25.3558L15.4574 25.3527C15.2537 25.2416 15.083 25.0725 14.9657 24.8569L13.1259 21.4766H13.1262Z" fill="#374148" stroke="#F1F1F1" stroke-width="0.6"/>
</svg>
