<svg width="22" height="25" viewBox="0 0 22 25" fill="none" xmlns="http://www.w3.org/2000/svg">
<path d="M1.37021 2.84822L11.0478 0.53662C11.1679 0.507894 11.2884 0.510463 11.4004 0.538722L21.094 2.85406C21.4368 2.93557 21.6676 3.24361 21.6674 3.58318L21.6676 13.828C21.6676 16.0431 20.446 18.1457 18.7458 19.9195C16.5774 22.1818 13.5943 23.9345 11.4554 24.6594C11.2963 24.7129 11.1314 24.7094 10.9837 24.6594C8.8448 23.9345 5.8617 22.1818 3.69329 19.9195C1.99307 18.1455 0.771729 16.0429 0.771729 13.828V3.58318C0.771729 3.22002 1.02882 2.91688 1.36997 2.84822H1.37021ZM11.2197 2.0362L2.26293 4.17544V13.8282C2.26293 15.6073 3.30917 17.3638 4.76507 18.883C6.68522 20.8863 9.28442 22.4513 11.2197 23.1592C13.1549 22.4513 15.7544 20.8863 17.6743 18.883C19.1304 17.3638 20.1764 15.6073 20.1764 13.8282V4.17544L11.2194 2.0362H11.2197Z" fill="#374148" stroke="#F1F1F1" stroke-width="0.6"/>
<path d="M4.49301 5.48925L11.0477 3.92358C11.1678 3.89486 11.2883 3.89743 11.4002 3.92568L17.9707 5.49509C18.3135 5.5766 18.5444 5.88464 18.5441 6.22421L18.5444 13.4302C18.5444 15.0024 17.6879 16.484 16.4956 17.7278C14.9979 19.2907 12.9351 20.5018 11.4553 21.0035C11.2962 21.0569 11.1313 21.0534 10.9836 21.0035C9.50379 20.502 7.44105 19.2907 5.94334 17.7278C4.75126 16.484 3.89453 15.0026 3.89453 13.4302V6.22421C3.89453 5.86105 4.15162 5.55791 4.49278 5.48925H4.49301ZM11.2196 5.42316L5.38574 6.81647V13.4302C5.38574 14.5666 6.06689 15.7018 7.01489 16.6909C8.26456 17.9947 9.94504 19.0186 11.2196 19.5013C12.4941 19.0186 14.1746 17.9947 15.4242 16.6909C16.3722 15.7018 17.0534 14.5666 17.0534 13.4302V6.81647L11.2196 5.42316Z" fill="#22B0F5" stroke="#F1F1F1" stroke-width="0.6"/>
</svg>
