<svg width="30" height="34" viewBox="0 0 30 34" fill="none" xmlns="http://www.w3.org/2000/svg">
<path d="M1.79623 4.10247L14.6715 1.02708C14.8312 0.988862 14.9916 0.99228 15.1405 1.02988L28.037 4.11024C28.4931 4.21868 28.8002 4.6285 28.7999 5.08027L28.8002 18.7101C28.8002 21.6572 27.175 24.4545 24.913 26.8143C22.0281 29.8242 18.0594 32.156 15.2137 33.1205C15.0021 33.1916 14.7827 33.1869 14.5862 33.1205C11.7405 32.156 7.77177 29.8242 4.88689 26.8143C2.62489 24.4542 1 21.6569 1 18.7101V5.08027C1 4.59712 1.34203 4.19382 1.79592 4.10247H1.79623ZM14.9001 3.02214L2.98392 5.86823V18.7104C2.98392 21.0774 4.37585 23.4142 6.31281 25.4354C8.8674 28.1007 12.3254 30.1827 14.9001 31.1245C17.4748 30.1827 20.9331 28.1007 23.4874 25.4354C25.4247 23.4142 26.8163 21.0774 26.8163 18.7104V5.86823L14.8998 3.02214H14.9001Z" fill="#374148" stroke="#F1F1F1" stroke-width="0.6"/>
</svg>
