<svg width="31" height="36" viewBox="0 0 31 36" fill="none" xmlns="http://www.w3.org/2000/svg">
<path d="M15.6864 5.81055C19.7414 5.81055 23.4133 7.46383 26.0707 10.1365C28.7282 12.8093 30.3723 16.5014 30.3723 20.5794C30.3723 24.6575 28.7282 28.35 26.0707 31.0224C23.4133 33.6948 19.7414 35.3483 15.6864 35.3483C11.6309 35.3483 7.95901 33.6951 5.30184 31.0227C2.64436 28.3503 1 24.6578 1 20.5798C1 16.5017 2.64405 12.8093 5.30184 10.1369C7.95963 7.46445 11.6312 5.81117 15.6864 5.81117V5.81055ZM24.6683 11.5468C22.3699 9.23549 19.1939 7.8056 15.6864 7.8056C12.1784 7.8056 9.00273 9.23549 6.70396 11.5465C4.40551 13.8579 2.98361 17.0517 2.98361 20.5794C2.98361 24.1072 4.40551 27.3007 6.70396 29.6124C9.00242 31.9237 12.1784 33.3533 15.6864 33.3533C19.1939 33.3533 22.3699 31.9234 24.6683 29.612C26.9668 27.3007 28.3884 24.1072 28.3884 20.5794C28.3884 17.052 26.9665 13.8582 24.6683 11.5468Z" fill="white" stroke="#0A6397" stroke-width="0.6"/>
<path d="M13.1105 2.99524C12.5626 2.99524 12.1187 2.54844 12.1187 1.99786C12.1187 1.44698 12.563 1.00049 13.1105 1.00049H18.262C18.8098 1.00049 19.2538 1.44729 19.2538 1.99786C19.2538 2.54875 18.8095 2.99524 18.262 2.99524H13.1105Z" fill="white" stroke="#0A6397" stroke-width="0.6"/>
<path d="M16.6782 4.16891C16.6782 4.7198 16.2339 5.16629 15.6864 5.16629C15.1386 5.16629 14.6946 4.71949 14.6946 4.16891V1.99737C14.6946 1.44649 15.1389 1 15.6864 1C16.2342 1 16.6782 1.4468 16.6782 1.99737V4.16891Z" fill="white" stroke="#0A6397" stroke-width="0.6"/>
<path d="M14.6944 13.7928C14.6944 13.2419 15.1387 12.7954 15.6862 12.7954C16.234 12.7954 16.678 13.2422 16.678 13.7928V19.5816H20.5581C21.1059 19.5816 21.5499 20.0284 21.5499 20.579C21.5499 21.1299 21.1056 21.5763 20.5581 21.5763H15.6859C15.1381 21.5763 14.6941 21.1295 14.6941 20.579V13.7925L14.6944 13.7928Z" fill="white" stroke="#0A6397" stroke-width="0.6"/>
<path d="M24.7332 23.1892C24.8893 22.6622 25.4411 22.3621 25.9651 22.519C26.4891 22.6759 26.7876 23.2308 26.6316 23.7578C25.9274 26.1036 24.4996 28.08 22.6387 29.4698C20.7771 30.8603 18.4848 31.6638 16.0517 31.6638C13.0003 31.6638 10.2371 30.4197 8.23712 28.4085C6.23713 26.3973 5 23.6186 5 20.55C5 18.1871 5.74648 15.95 7.0488 14.109C8.34835 12.2721 10.2062 10.8308 12.4314 10.0543C12.9468 9.87596 13.5091 10.1512 13.6868 10.6698C13.8641 11.1881 13.5904 11.7536 13.0747 11.9322C11.253 12.5679 9.72915 13.7517 8.66041 15.2627C7.59476 16.7693 6.98392 18.6053 6.98392 20.5507C6.98392 23.0689 7.99921 25.3492 9.63955 26.9988C11.2802 28.6486 13.5474 29.6693 16.0517 29.6693C18.0544 29.6693 19.9367 29.0116 21.4609 27.8731C22.9854 26.7344 24.1558 25.114 24.7332 23.1895V23.1892Z" fill="white" stroke="#0A6397" stroke-width="0.6"/>
<path d="M15.6864 11.4601C15.1386 11.4601 14.6946 11.0133 14.6946 10.4627C14.6946 9.91182 15.1389 9.46533 15.6864 9.46533C18.7292 9.46533 21.4871 10.7051 23.487 12.7104C25.4858 14.7144 26.7257 17.4856 26.7344 20.5502C26.7344 21.0989 26.2919 21.5438 25.7463 21.5438C25.2006 21.5438 24.7582 21.0989 24.7582 20.5502C24.7514 18.039 23.733 15.7662 22.092 14.1207C20.4526 12.4764 18.1878 11.4601 15.6864 11.4601Z" fill="white" stroke="#0A6397" stroke-width="0.6"/>
</svg>
