<svg width="24" height="28" viewBox="0 0 24 28" fill="none" xmlns="http://www.w3.org/2000/svg">
<path d="M12.0583 4.62862C15.1062 4.62862 17.8661 5.87129 19.8636 7.88023C21.8611 9.88916 23.0968 12.6643 23.0968 15.7296C23.0968 18.7948 21.8611 21.5702 19.8636 23.5789C17.8661 25.5876 15.1062 26.8305 12.0583 26.8305C9.00991 26.8305 6.24999 25.5879 4.25274 23.5792C2.25526 21.5705 1.01929 18.7951 1.01929 15.7298C1.01929 12.6646 2.25503 9.88916 4.25274 7.88046C6.25046 5.87176 9.01015 4.62908 12.0583 4.62908V4.62862ZM18.8094 8.94027C17.0818 7.20295 14.6946 6.12819 12.0583 6.12819C9.42144 6.12819 7.03449 7.20295 5.30664 8.94004C3.57902 10.6774 2.51026 13.0779 2.51026 15.7296C2.51026 18.3812 3.57902 20.7816 5.30664 22.5191C7.03426 24.2564 9.42144 25.331 12.0583 25.331C14.6946 25.331 17.0818 24.2562 18.8094 22.5189C20.5371 20.7816 21.6056 18.3812 21.6056 15.7296C21.6056 13.0782 20.5368 10.6776 18.8094 8.94027Z" fill="white" stroke="#0A6397" stroke-width="0.6"/>
<path d="M10.1224 2.51249C9.71068 2.51249 9.37695 2.17666 9.37695 1.76282C9.37695 1.34875 9.71091 1.01315 10.1224 1.01315H13.9945C14.4063 1.01315 14.74 1.34899 14.74 1.76282C14.74 2.17689 14.4061 2.51249 13.9945 2.51249H10.1224Z" fill="white" stroke="#0A6397" stroke-width="0.6"/>
<path d="M12.8035 3.39469C12.8035 3.80876 12.4695 4.14436 12.058 4.14436C11.6462 4.14436 11.3125 3.80852 11.3125 3.39469V1.76246C11.3125 1.34839 11.6465 1.01279 12.058 1.01279C12.4697 1.01279 12.8035 1.34862 12.8035 1.76246V3.39469Z" fill="white" stroke="#0A6397" stroke-width="0.6"/>
<path d="M11.3127 10.6284C11.3127 10.2143 11.6467 9.87874 12.0582 9.87874C12.47 9.87874 12.8037 10.2146 12.8037 10.6284V14.9795H15.7202C16.1319 14.9795 16.4656 15.3154 16.4656 15.7292C16.4656 16.1433 16.1317 16.4789 15.7202 16.4789H12.058C11.6462 16.4789 11.3125 16.143 11.3125 15.7292V10.6282L11.3127 10.6284Z" fill="white" stroke="#0A6397" stroke-width="0.6"/>
<path d="M18.5836 17.7132C18.7009 17.3171 19.1156 17.0915 19.5095 17.2094C19.9034 17.3274 20.1277 17.7445 20.0105 18.1406C19.4812 19.9038 18.408 21.3894 17.0092 22.434C15.61 23.4791 13.887 24.0831 12.0582 24.0831C9.76457 24.0831 7.68766 23.148 6.18438 21.6362C4.6811 20.1245 3.75122 18.0359 3.75122 15.7295C3.75122 13.9534 4.31231 12.2719 5.29119 10.8882C6.26799 9.50745 7.66444 8.42405 9.33702 7.84043C9.72439 7.70637 10.1471 7.91329 10.2806 8.30307C10.4139 8.69262 10.2081 9.11767 9.82054 9.25195C8.45126 9.72978 7.30586 10.6196 6.50255 11.7553C5.70156 12.8877 5.24242 14.2677 5.24242 15.73C5.24242 17.6228 6.00556 19.3368 7.23851 20.5767C8.4717 21.8168 10.1759 22.5839 12.0582 22.5839C13.5635 22.5839 14.9783 22.0895 16.124 21.2338C17.2698 20.3779 18.1495 19.16 18.5836 17.7134V17.7132Z" fill="white" stroke="#0A6397" stroke-width="0.6"/>
<path d="M12.058 8.87504C11.6462 8.87504 11.3125 8.53921 11.3125 8.12537C11.3125 7.7113 11.6465 7.3757 12.058 7.3757C14.3451 7.3757 16.418 8.30754 17.9213 9.81482C19.4237 11.3212 20.3556 13.4041 20.3621 15.7076C20.3621 16.12 20.0296 16.4544 19.6194 16.4544C19.2093 16.4544 18.8767 16.12 18.8767 15.7076C18.8716 13.8201 18.1062 12.1117 16.8728 10.8749C15.6405 9.63896 13.9382 8.87504 12.058 8.87504Z" fill="white" stroke="#0A6397" stroke-width="0.6"/>
</svg>
